G04 #@! TF.GenerationSoftware,KiCad,Pcbnew,5.1.9*
G04 #@! TF.CreationDate,2021-05-04T19:13:35+02:00*
G04 #@! TF.ProjectId,12v_FAN_Pico,3132765f-4641-44e5-9f50-69636f2e6b69,rev?*
G04 #@! TF.SameCoordinates,Original*
G04 #@! TF.FileFunction,Paste,Top*
G04 #@! TF.FilePolarity,Positive*
%FSLAX46Y46*%
G04 Gerber Fmt 4.6, Leading zero omitted, Abs format (unit mm)*
G04 Created by KiCad (PCBNEW 5.1.9) date 2021-05-04 19:13:35*
%MOMM*%
%LPD*%
G01*
G04 APERTURE LIST*
%ADD10R,0.900000X0.800000*%
%ADD11R,0.800000X0.900000*%
G04 APERTURE END LIST*
D10*
X47006000Y-77978000D03*
X49006000Y-77028000D03*
X49006000Y-78928000D03*
D11*
X48006000Y-83804000D03*
X47056000Y-81804000D03*
X48956000Y-81804000D03*
G36*
G01*
X94492000Y-54046000D02*
X94992000Y-54046000D01*
G75*
G02*
X95217000Y-54271000I0J-225000D01*
G01*
X95217000Y-54721000D01*
G75*
G02*
X94992000Y-54946000I-225000J0D01*
G01*
X94492000Y-54946000D01*
G75*
G02*
X94267000Y-54721000I0J225000D01*
G01*
X94267000Y-54271000D01*
G75*
G02*
X94492000Y-54046000I225000J0D01*
G01*
G37*
G36*
G01*
X94492000Y-52496000D02*
X94992000Y-52496000D01*
G75*
G02*
X95217000Y-52721000I0J-225000D01*
G01*
X95217000Y-53171000D01*
G75*
G02*
X94992000Y-53396000I-225000J0D01*
G01*
X94492000Y-53396000D01*
G75*
G02*
X94267000Y-53171000I0J225000D01*
G01*
X94267000Y-52721000D01*
G75*
G02*
X94492000Y-52496000I225000J0D01*
G01*
G37*
G36*
G01*
X94238000Y-69794000D02*
X94738000Y-69794000D01*
G75*
G02*
X94963000Y-70019000I0J-225000D01*
G01*
X94963000Y-70469000D01*
G75*
G02*
X94738000Y-70694000I-225000J0D01*
G01*
X94238000Y-70694000D01*
G75*
G02*
X94013000Y-70469000I0J225000D01*
G01*
X94013000Y-70019000D01*
G75*
G02*
X94238000Y-69794000I225000J0D01*
G01*
G37*
G36*
G01*
X94238000Y-68244000D02*
X94738000Y-68244000D01*
G75*
G02*
X94963000Y-68469000I0J-225000D01*
G01*
X94963000Y-68919000D01*
G75*
G02*
X94738000Y-69144000I-225000J0D01*
G01*
X94238000Y-69144000D01*
G75*
G02*
X94013000Y-68919000I0J225000D01*
G01*
X94013000Y-68469000D01*
G75*
G02*
X94238000Y-68244000I225000J0D01*
G01*
G37*
G36*
G01*
X94365000Y-82608000D02*
X94865000Y-82608000D01*
G75*
G02*
X95090000Y-82833000I0J-225000D01*
G01*
X95090000Y-83283000D01*
G75*
G02*
X94865000Y-83508000I-225000J0D01*
G01*
X94365000Y-83508000D01*
G75*
G02*
X94140000Y-83283000I0J225000D01*
G01*
X94140000Y-82833000D01*
G75*
G02*
X94365000Y-82608000I225000J0D01*
G01*
G37*
G36*
G01*
X94365000Y-81058000D02*
X94865000Y-81058000D01*
G75*
G02*
X95090000Y-81283000I0J-225000D01*
G01*
X95090000Y-81733000D01*
G75*
G02*
X94865000Y-81958000I-225000J0D01*
G01*
X94365000Y-81958000D01*
G75*
G02*
X94140000Y-81733000I0J225000D01*
G01*
X94140000Y-81283000D01*
G75*
G02*
X94365000Y-81058000I225000J0D01*
G01*
G37*
G36*
G01*
X42676000Y-79573000D02*
X43176000Y-79573000D01*
G75*
G02*
X43401000Y-79798000I0J-225000D01*
G01*
X43401000Y-80248000D01*
G75*
G02*
X43176000Y-80473000I-225000J0D01*
G01*
X42676000Y-80473000D01*
G75*
G02*
X42451000Y-80248000I0J225000D01*
G01*
X42451000Y-79798000D01*
G75*
G02*
X42676000Y-79573000I225000J0D01*
G01*
G37*
G36*
G01*
X42676000Y-78023000D02*
X43176000Y-78023000D01*
G75*
G02*
X43401000Y-78248000I0J-225000D01*
G01*
X43401000Y-78698000D01*
G75*
G02*
X43176000Y-78923000I-225000J0D01*
G01*
X42676000Y-78923000D01*
G75*
G02*
X42451000Y-78698000I0J225000D01*
G01*
X42451000Y-78248000D01*
G75*
G02*
X42676000Y-78023000I225000J0D01*
G01*
G37*
G36*
G01*
X42676000Y-66746000D02*
X43176000Y-66746000D01*
G75*
G02*
X43401000Y-66971000I0J-225000D01*
G01*
X43401000Y-67421000D01*
G75*
G02*
X43176000Y-67646000I-225000J0D01*
G01*
X42676000Y-67646000D01*
G75*
G02*
X42451000Y-67421000I0J225000D01*
G01*
X42451000Y-66971000D01*
G75*
G02*
X42676000Y-66746000I225000J0D01*
G01*
G37*
G36*
G01*
X42676000Y-65196000D02*
X43176000Y-65196000D01*
G75*
G02*
X43401000Y-65421000I0J-225000D01*
G01*
X43401000Y-65871000D01*
G75*
G02*
X43176000Y-66096000I-225000J0D01*
G01*
X42676000Y-66096000D01*
G75*
G02*
X42451000Y-65871000I0J225000D01*
G01*
X42451000Y-65421000D01*
G75*
G02*
X42676000Y-65196000I225000J0D01*
G01*
G37*
G36*
G01*
X42676000Y-54046000D02*
X43176000Y-54046000D01*
G75*
G02*
X43401000Y-54271000I0J-225000D01*
G01*
X43401000Y-54721000D01*
G75*
G02*
X43176000Y-54946000I-225000J0D01*
G01*
X42676000Y-54946000D01*
G75*
G02*
X42451000Y-54721000I0J225000D01*
G01*
X42451000Y-54271000D01*
G75*
G02*
X42676000Y-54046000I225000J0D01*
G01*
G37*
G36*
G01*
X42676000Y-52496000D02*
X43176000Y-52496000D01*
G75*
G02*
X43401000Y-52721000I0J-225000D01*
G01*
X43401000Y-53171000D01*
G75*
G02*
X43176000Y-53396000I-225000J0D01*
G01*
X42676000Y-53396000D01*
G75*
G02*
X42451000Y-53171000I0J225000D01*
G01*
X42451000Y-52721000D01*
G75*
G02*
X42676000Y-52496000I225000J0D01*
G01*
G37*
G36*
G01*
X80094000Y-44678000D02*
X80434000Y-44678000D01*
G75*
G02*
X80574000Y-44818000I0J-140000D01*
G01*
X80574000Y-45098000D01*
G75*
G02*
X80434000Y-45238000I-140000J0D01*
G01*
X80094000Y-45238000D01*
G75*
G02*
X79954000Y-45098000I0J140000D01*
G01*
X79954000Y-44818000D01*
G75*
G02*
X80094000Y-44678000I140000J0D01*
G01*
G37*
G36*
G01*
X80094000Y-43718000D02*
X80434000Y-43718000D01*
G75*
G02*
X80574000Y-43858000I0J-140000D01*
G01*
X80574000Y-44138000D01*
G75*
G02*
X80434000Y-44278000I-140000J0D01*
G01*
X80094000Y-44278000D01*
G75*
G02*
X79954000Y-44138000I0J140000D01*
G01*
X79954000Y-43858000D01*
G75*
G02*
X80094000Y-43718000I140000J0D01*
G01*
G37*
G36*
G01*
X48641500Y-34380997D02*
X48641500Y-36231003D01*
G75*
G02*
X48391503Y-36481000I-249997J0D01*
G01*
X47566497Y-36481000D01*
G75*
G02*
X47316500Y-36231003I0J249997D01*
G01*
X47316500Y-34380997D01*
G75*
G02*
X47566497Y-34131000I249997J0D01*
G01*
X48391503Y-34131000D01*
G75*
G02*
X48641500Y-34380997I0J-249997D01*
G01*
G37*
G36*
G01*
X51716500Y-34380997D02*
X51716500Y-36231003D01*
G75*
G02*
X51466503Y-36481000I-249997J0D01*
G01*
X50641497Y-36481000D01*
G75*
G02*
X50391500Y-36231003I0J249997D01*
G01*
X50391500Y-34380997D01*
G75*
G02*
X50641497Y-34131000I249997J0D01*
G01*
X51466503Y-34131000D01*
G75*
G02*
X51716500Y-34380997I0J-249997D01*
G01*
G37*
X89789000Y-64151000D03*
X90739000Y-66151000D03*
X88839000Y-66151000D03*
X89154000Y-77994000D03*
X90104000Y-79994000D03*
X88204000Y-79994000D03*
X49022000Y-72628000D03*
X48072000Y-70628000D03*
X49972000Y-70628000D03*
X89281000Y-88281000D03*
X90231000Y-90281000D03*
X88331000Y-90281000D03*
X48768000Y-59166000D03*
X47818000Y-57166000D03*
X49718000Y-57166000D03*
D10*
X90789000Y-68834000D03*
X88789000Y-69784000D03*
X88789000Y-67884000D03*
X90200203Y-82807282D03*
X88200203Y-83757282D03*
X88200203Y-81857282D03*
X50022000Y-68006000D03*
X50022000Y-66106000D03*
X48022000Y-67056000D03*
X90408000Y-93218000D03*
X88408000Y-94168000D03*
X88408000Y-92268000D03*
X47768000Y-53594000D03*
X49768000Y-52644000D03*
X49768000Y-54544000D03*
G36*
G01*
X74027000Y-96429003D02*
X74027000Y-94578997D01*
G75*
G02*
X74276997Y-94329000I249997J0D01*
G01*
X75102003Y-94329000D01*
G75*
G02*
X75352000Y-94578997I0J-249997D01*
G01*
X75352000Y-96429003D01*
G75*
G02*
X75102003Y-96679000I-249997J0D01*
G01*
X74276997Y-96679000D01*
G75*
G02*
X74027000Y-96429003I0J249997D01*
G01*
G37*
G36*
G01*
X70952000Y-96429003D02*
X70952000Y-94578997D01*
G75*
G02*
X71201997Y-94329000I249997J0D01*
G01*
X72027003Y-94329000D01*
G75*
G02*
X72277000Y-94578997I0J-249997D01*
G01*
X72277000Y-96429003D01*
G75*
G02*
X72027003Y-96679000I-249997J0D01*
G01*
X71201997Y-96679000D01*
G75*
G02*
X70952000Y-96429003I0J249997D01*
G01*
G37*
G36*
G01*
X55097000Y-86404000D02*
X55647000Y-86404000D01*
G75*
G02*
X55847000Y-86604000I0J-200000D01*
G01*
X55847000Y-87004000D01*
G75*
G02*
X55647000Y-87204000I-200000J0D01*
G01*
X55097000Y-87204000D01*
G75*
G02*
X54897000Y-87004000I0J200000D01*
G01*
X54897000Y-86604000D01*
G75*
G02*
X55097000Y-86404000I200000J0D01*
G01*
G37*
G36*
G01*
X55097000Y-84754000D02*
X55647000Y-84754000D01*
G75*
G02*
X55847000Y-84954000I0J-200000D01*
G01*
X55847000Y-85354000D01*
G75*
G02*
X55647000Y-85554000I-200000J0D01*
G01*
X55097000Y-85554000D01*
G75*
G02*
X54897000Y-85354000I0J200000D01*
G01*
X54897000Y-84954000D01*
G75*
G02*
X55097000Y-84754000I200000J0D01*
G01*
G37*
G36*
G01*
X54377000Y-82125000D02*
X53827000Y-82125000D01*
G75*
G02*
X53627000Y-81925000I0J200000D01*
G01*
X53627000Y-81525000D01*
G75*
G02*
X53827000Y-81325000I200000J0D01*
G01*
X54377000Y-81325000D01*
G75*
G02*
X54577000Y-81525000I0J-200000D01*
G01*
X54577000Y-81925000D01*
G75*
G02*
X54377000Y-82125000I-200000J0D01*
G01*
G37*
G36*
G01*
X54377000Y-83775000D02*
X53827000Y-83775000D01*
G75*
G02*
X53627000Y-83575000I0J200000D01*
G01*
X53627000Y-83175000D01*
G75*
G02*
X53827000Y-82975000I200000J0D01*
G01*
X54377000Y-82975000D01*
G75*
G02*
X54577000Y-83175000I0J-200000D01*
G01*
X54577000Y-83575000D01*
G75*
G02*
X54377000Y-83775000I-200000J0D01*
G01*
G37*
G36*
G01*
X81793487Y-76440007D02*
X82343487Y-76440007D01*
G75*
G02*
X82543487Y-76640007I0J-200000D01*
G01*
X82543487Y-77040007D01*
G75*
G02*
X82343487Y-77240007I-200000J0D01*
G01*
X81793487Y-77240007D01*
G75*
G02*
X81593487Y-77040007I0J200000D01*
G01*
X81593487Y-76640007D01*
G75*
G02*
X81793487Y-76440007I200000J0D01*
G01*
G37*
G36*
G01*
X81793487Y-74790007D02*
X82343487Y-74790007D01*
G75*
G02*
X82543487Y-74990007I0J-200000D01*
G01*
X82543487Y-75390007D01*
G75*
G02*
X82343487Y-75590007I-200000J0D01*
G01*
X81793487Y-75590007D01*
G75*
G02*
X81593487Y-75390007I0J200000D01*
G01*
X81593487Y-74990007D01*
G75*
G02*
X81793487Y-74790007I200000J0D01*
G01*
G37*
G36*
G01*
X81814923Y-81703430D02*
X82364923Y-81703430D01*
G75*
G02*
X82564923Y-81903430I0J-200000D01*
G01*
X82564923Y-82303430D01*
G75*
G02*
X82364923Y-82503430I-200000J0D01*
G01*
X81814923Y-82503430D01*
G75*
G02*
X81614923Y-82303430I0J200000D01*
G01*
X81614923Y-81903430D01*
G75*
G02*
X81814923Y-81703430I200000J0D01*
G01*
G37*
G36*
G01*
X81814923Y-80053430D02*
X82364923Y-80053430D01*
G75*
G02*
X82564923Y-80253430I0J-200000D01*
G01*
X82564923Y-80653430D01*
G75*
G02*
X82364923Y-80853430I-200000J0D01*
G01*
X81814923Y-80853430D01*
G75*
G02*
X81614923Y-80653430I0J200000D01*
G01*
X81614923Y-80253430D01*
G75*
G02*
X81814923Y-80053430I200000J0D01*
G01*
G37*
G36*
G01*
X53573000Y-72561000D02*
X54123000Y-72561000D01*
G75*
G02*
X54323000Y-72761000I0J-200000D01*
G01*
X54323000Y-73161000D01*
G75*
G02*
X54123000Y-73361000I-200000J0D01*
G01*
X53573000Y-73361000D01*
G75*
G02*
X53373000Y-73161000I0J200000D01*
G01*
X53373000Y-72761000D01*
G75*
G02*
X53573000Y-72561000I200000J0D01*
G01*
G37*
G36*
G01*
X53573000Y-70911000D02*
X54123000Y-70911000D01*
G75*
G02*
X54323000Y-71111000I0J-200000D01*
G01*
X54323000Y-71511000D01*
G75*
G02*
X54123000Y-71711000I-200000J0D01*
G01*
X53573000Y-71711000D01*
G75*
G02*
X53373000Y-71511000I0J200000D01*
G01*
X53373000Y-71111000D01*
G75*
G02*
X53573000Y-70911000I200000J0D01*
G01*
G37*
G36*
G01*
X80918000Y-90276000D02*
X80918000Y-90826000D01*
G75*
G02*
X80718000Y-91026000I-200000J0D01*
G01*
X80318000Y-91026000D01*
G75*
G02*
X80118000Y-90826000I0J200000D01*
G01*
X80118000Y-90276000D01*
G75*
G02*
X80318000Y-90076000I200000J0D01*
G01*
X80718000Y-90076000D01*
G75*
G02*
X80918000Y-90276000I0J-200000D01*
G01*
G37*
G36*
G01*
X82568000Y-90276000D02*
X82568000Y-90826000D01*
G75*
G02*
X82368000Y-91026000I-200000J0D01*
G01*
X81968000Y-91026000D01*
G75*
G02*
X81768000Y-90826000I0J200000D01*
G01*
X81768000Y-90276000D01*
G75*
G02*
X81968000Y-90076000I200000J0D01*
G01*
X82368000Y-90076000D01*
G75*
G02*
X82568000Y-90276000I0J-200000D01*
G01*
G37*
G36*
G01*
X54504000Y-56916000D02*
X53954000Y-56916000D01*
G75*
G02*
X53754000Y-56716000I0J200000D01*
G01*
X53754000Y-56316000D01*
G75*
G02*
X53954000Y-56116000I200000J0D01*
G01*
X54504000Y-56116000D01*
G75*
G02*
X54704000Y-56316000I0J-200000D01*
G01*
X54704000Y-56716000D01*
G75*
G02*
X54504000Y-56916000I-200000J0D01*
G01*
G37*
G36*
G01*
X54504000Y-58566000D02*
X53954000Y-58566000D01*
G75*
G02*
X53754000Y-58366000I0J200000D01*
G01*
X53754000Y-57966000D01*
G75*
G02*
X53954000Y-57766000I200000J0D01*
G01*
X54504000Y-57766000D01*
G75*
G02*
X54704000Y-57966000I0J-200000D01*
G01*
X54704000Y-58366000D01*
G75*
G02*
X54504000Y-58566000I-200000J0D01*
G01*
G37*
G36*
G01*
X80918000Y-88625000D02*
X80918000Y-89175000D01*
G75*
G02*
X80718000Y-89375000I-200000J0D01*
G01*
X80318000Y-89375000D01*
G75*
G02*
X80118000Y-89175000I0J200000D01*
G01*
X80118000Y-88625000D01*
G75*
G02*
X80318000Y-88425000I200000J0D01*
G01*
X80718000Y-88425000D01*
G75*
G02*
X80918000Y-88625000I0J-200000D01*
G01*
G37*
G36*
G01*
X82568000Y-88625000D02*
X82568000Y-89175000D01*
G75*
G02*
X82368000Y-89375000I-200000J0D01*
G01*
X81968000Y-89375000D01*
G75*
G02*
X81768000Y-89175000I0J200000D01*
G01*
X81768000Y-88625000D01*
G75*
G02*
X81968000Y-88425000I200000J0D01*
G01*
X82368000Y-88425000D01*
G75*
G02*
X82568000Y-88625000I0J-200000D01*
G01*
G37*
G36*
G01*
X80243000Y-76434000D02*
X80793000Y-76434000D01*
G75*
G02*
X80993000Y-76634000I0J-200000D01*
G01*
X80993000Y-77034000D01*
G75*
G02*
X80793000Y-77234000I-200000J0D01*
G01*
X80243000Y-77234000D01*
G75*
G02*
X80043000Y-77034000I0J200000D01*
G01*
X80043000Y-76634000D01*
G75*
G02*
X80243000Y-76434000I200000J0D01*
G01*
G37*
G36*
G01*
X80243000Y-74784000D02*
X80793000Y-74784000D01*
G75*
G02*
X80993000Y-74984000I0J-200000D01*
G01*
X80993000Y-75384000D01*
G75*
G02*
X80793000Y-75584000I-200000J0D01*
G01*
X80243000Y-75584000D01*
G75*
G02*
X80043000Y-75384000I0J200000D01*
G01*
X80043000Y-74984000D01*
G75*
G02*
X80243000Y-74784000I200000J0D01*
G01*
G37*
G36*
G01*
X80243000Y-81705000D02*
X80793000Y-81705000D01*
G75*
G02*
X80993000Y-81905000I0J-200000D01*
G01*
X80993000Y-82305000D01*
G75*
G02*
X80793000Y-82505000I-200000J0D01*
G01*
X80243000Y-82505000D01*
G75*
G02*
X80043000Y-82305000I0J200000D01*
G01*
X80043000Y-81905000D01*
G75*
G02*
X80243000Y-81705000I200000J0D01*
G01*
G37*
G36*
G01*
X80243000Y-80055000D02*
X80793000Y-80055000D01*
G75*
G02*
X80993000Y-80255000I0J-200000D01*
G01*
X80993000Y-80655000D01*
G75*
G02*
X80793000Y-80855000I-200000J0D01*
G01*
X80243000Y-80855000D01*
G75*
G02*
X80043000Y-80655000I0J200000D01*
G01*
X80043000Y-80255000D01*
G75*
G02*
X80243000Y-80055000I200000J0D01*
G01*
G37*
G36*
G01*
X55097000Y-73640000D02*
X55647000Y-73640000D01*
G75*
G02*
X55847000Y-73840000I0J-200000D01*
G01*
X55847000Y-74240000D01*
G75*
G02*
X55647000Y-74440000I-200000J0D01*
G01*
X55097000Y-74440000D01*
G75*
G02*
X54897000Y-74240000I0J200000D01*
G01*
X54897000Y-73840000D01*
G75*
G02*
X55097000Y-73640000I200000J0D01*
G01*
G37*
G36*
G01*
X55097000Y-71990000D02*
X55647000Y-71990000D01*
G75*
G02*
X55847000Y-72190000I0J-200000D01*
G01*
X55847000Y-72590000D01*
G75*
G02*
X55647000Y-72790000I-200000J0D01*
G01*
X55097000Y-72790000D01*
G75*
G02*
X54897000Y-72590000I0J200000D01*
G01*
X54897000Y-72190000D01*
G75*
G02*
X55097000Y-71990000I200000J0D01*
G01*
G37*
G36*
G01*
X55097000Y-60814000D02*
X55647000Y-60814000D01*
G75*
G02*
X55847000Y-61014000I0J-200000D01*
G01*
X55847000Y-61414000D01*
G75*
G02*
X55647000Y-61614000I-200000J0D01*
G01*
X55097000Y-61614000D01*
G75*
G02*
X54897000Y-61414000I0J200000D01*
G01*
X54897000Y-61014000D01*
G75*
G02*
X55097000Y-60814000I200000J0D01*
G01*
G37*
G36*
G01*
X55097000Y-59164000D02*
X55647000Y-59164000D01*
G75*
G02*
X55847000Y-59364000I0J-200000D01*
G01*
X55847000Y-59764000D01*
G75*
G02*
X55647000Y-59964000I-200000J0D01*
G01*
X55097000Y-59964000D01*
G75*
G02*
X54897000Y-59764000I0J200000D01*
G01*
X54897000Y-59364000D01*
G75*
G02*
X55097000Y-59164000I200000J0D01*
G01*
G37*
M02*
