G04 #@! TF.GenerationSoftware,KiCad,Pcbnew,5.1.9*
G04 #@! TF.CreationDate,2021-05-04T19:13:35+02:00*
G04 #@! TF.ProjectId,12v_FAN_Pico,3132765f-4641-44e5-9f50-69636f2e6b69,rev?*
G04 #@! TF.SameCoordinates,Original*
G04 #@! TF.FileFunction,Legend,Bot*
G04 #@! TF.FilePolarity,Positive*
%FSLAX46Y46*%
G04 Gerber Fmt 4.6, Leading zero omitted, Abs format (unit mm)*
G04 Created by KiCad (PCBNEW 5.1.9) date 2021-05-04 19:13:35*
%MOMM*%
%LPD*%
G01*
G04 APERTURE LIST*
%ADD10C,0.150000*%
G04 APERTURE END LIST*
D10*
X67778380Y-58372952D02*
X68492666Y-58372952D01*
X68635523Y-58325333D01*
X68730761Y-58230095D01*
X68778380Y-58087238D01*
X68778380Y-57992000D01*
X68778380Y-59325333D02*
X68778380Y-58849142D01*
X67778380Y-58849142D01*
X68683142Y-60230095D02*
X68730761Y-60182476D01*
X68778380Y-60039619D01*
X68778380Y-59944380D01*
X68730761Y-59801523D01*
X68635523Y-59706285D01*
X68540285Y-59658666D01*
X68349809Y-59611047D01*
X68206952Y-59611047D01*
X68016476Y-59658666D01*
X67921238Y-59706285D01*
X67826000Y-59801523D01*
X67778380Y-59944380D01*
X67778380Y-60039619D01*
X67826000Y-60182476D01*
X67873619Y-60230095D01*
X67778380Y-60944380D02*
X68492666Y-60944380D01*
X68635523Y-60896761D01*
X68730761Y-60801523D01*
X68778380Y-60658666D01*
X68778380Y-60563428D01*
X68778380Y-61896761D02*
X68778380Y-61420571D01*
X67778380Y-61420571D01*
X68683142Y-62801523D02*
X68730761Y-62753904D01*
X68778380Y-62611047D01*
X68778380Y-62515809D01*
X68730761Y-62372952D01*
X68635523Y-62277714D01*
X68540285Y-62230095D01*
X68349809Y-62182476D01*
X68206952Y-62182476D01*
X68016476Y-62230095D01*
X67921238Y-62277714D01*
X67826000Y-62372952D01*
X67778380Y-62515809D01*
X67778380Y-62611047D01*
X67826000Y-62753904D01*
X67873619Y-62801523D01*
X67778380Y-63515809D02*
X68492666Y-63515809D01*
X68635523Y-63468190D01*
X68730761Y-63372952D01*
X68778380Y-63230095D01*
X68778380Y-63134857D01*
X68778380Y-64468190D02*
X68778380Y-63992000D01*
X67778380Y-63992000D01*
X68683142Y-65372952D02*
X68730761Y-65325333D01*
X68778380Y-65182476D01*
X68778380Y-65087238D01*
X68730761Y-64944380D01*
X68635523Y-64849142D01*
X68540285Y-64801523D01*
X68349809Y-64753904D01*
X68206952Y-64753904D01*
X68016476Y-64801523D01*
X67921238Y-64849142D01*
X67826000Y-64944380D01*
X67778380Y-65087238D01*
X67778380Y-65182476D01*
X67826000Y-65325333D01*
X67873619Y-65372952D01*
X67778380Y-66087238D02*
X68492666Y-66087238D01*
X68635523Y-66039619D01*
X68730761Y-65944380D01*
X68778380Y-65801523D01*
X68778380Y-65706285D01*
X68778380Y-67039619D02*
X68778380Y-66563428D01*
X67778380Y-66563428D01*
X68683142Y-67944380D02*
X68730761Y-67896761D01*
X68778380Y-67753904D01*
X68778380Y-67658666D01*
X68730761Y-67515809D01*
X68635523Y-67420571D01*
X68540285Y-67372952D01*
X68349809Y-67325333D01*
X68206952Y-67325333D01*
X68016476Y-67372952D01*
X67921238Y-67420571D01*
X67826000Y-67515809D01*
X67778380Y-67658666D01*
X67778380Y-67753904D01*
X67826000Y-67896761D01*
X67873619Y-67944380D01*
X70808809Y-83775761D02*
X70846904Y-83890047D01*
X70846904Y-84080523D01*
X70808809Y-84156714D01*
X70770714Y-84194809D01*
X70694523Y-84232904D01*
X70618333Y-84232904D01*
X70542142Y-84194809D01*
X70504047Y-84156714D01*
X70465952Y-84080523D01*
X70427857Y-83928142D01*
X70389761Y-83851952D01*
X70351666Y-83813857D01*
X70275476Y-83775761D01*
X70199285Y-83775761D01*
X70123095Y-83813857D01*
X70085000Y-83851952D01*
X70046904Y-83928142D01*
X70046904Y-84118619D01*
X70085000Y-84232904D01*
X70046904Y-84499571D02*
X70846904Y-84690047D01*
X70275476Y-84842428D01*
X70846904Y-84994809D01*
X70046904Y-85185285D01*
X70846904Y-85490047D02*
X70046904Y-85490047D01*
X70046904Y-85680523D01*
X70085000Y-85794809D01*
X70161190Y-85871000D01*
X70237380Y-85909095D01*
X70389761Y-85947190D01*
X70504047Y-85947190D01*
X70656428Y-85909095D01*
X70732619Y-85871000D01*
X70808809Y-85794809D01*
X70846904Y-85680523D01*
X70846904Y-85490047D01*
X70846904Y-86290047D02*
X70046904Y-86290047D01*
X70046904Y-86823380D02*
X70046904Y-86975761D01*
X70085000Y-87051952D01*
X70161190Y-87128142D01*
X70313571Y-87166238D01*
X70580238Y-87166238D01*
X70732619Y-87128142D01*
X70808809Y-87051952D01*
X70846904Y-86975761D01*
X70846904Y-86823380D01*
X70808809Y-86747190D01*
X70732619Y-86671000D01*
X70580238Y-86632904D01*
X70313571Y-86632904D01*
X70161190Y-86671000D01*
X70085000Y-86747190D01*
X70046904Y-86823380D01*
X65728809Y-83661476D02*
X65766904Y-83775761D01*
X65766904Y-83966238D01*
X65728809Y-84042428D01*
X65690714Y-84080523D01*
X65614523Y-84118619D01*
X65538333Y-84118619D01*
X65462142Y-84080523D01*
X65424047Y-84042428D01*
X65385952Y-83966238D01*
X65347857Y-83813857D01*
X65309761Y-83737666D01*
X65271666Y-83699571D01*
X65195476Y-83661476D01*
X65119285Y-83661476D01*
X65043095Y-83699571D01*
X65005000Y-83737666D01*
X64966904Y-83813857D01*
X64966904Y-84004333D01*
X65005000Y-84118619D01*
X64966904Y-84385285D02*
X65766904Y-84575761D01*
X65195476Y-84728142D01*
X65766904Y-84880523D01*
X64966904Y-85071000D01*
X65690714Y-85832904D02*
X65728809Y-85794809D01*
X65766904Y-85680523D01*
X65766904Y-85604333D01*
X65728809Y-85490047D01*
X65652619Y-85413857D01*
X65576428Y-85375761D01*
X65424047Y-85337666D01*
X65309761Y-85337666D01*
X65157380Y-85375761D01*
X65081190Y-85413857D01*
X65005000Y-85490047D01*
X64966904Y-85604333D01*
X64966904Y-85680523D01*
X65005000Y-85794809D01*
X65043095Y-85832904D01*
X65766904Y-86556714D02*
X65766904Y-86175761D01*
X64966904Y-86175761D01*
X65766904Y-86823380D02*
X64966904Y-86823380D01*
X65766904Y-87280523D02*
X65309761Y-86937666D01*
X64966904Y-87280523D02*
X65424047Y-86823380D01*
X75070402Y-59002964D02*
X74801028Y-58733590D01*
X74962653Y-59218463D02*
X75339776Y-58464216D01*
X74585529Y-58841340D01*
X74639404Y-57817719D02*
X74720216Y-57844656D01*
X74801028Y-57925468D01*
X74854903Y-58033218D01*
X74854903Y-58140967D01*
X74827966Y-58221780D01*
X74747154Y-58356467D01*
X74666341Y-58437279D01*
X74531654Y-58518091D01*
X74450842Y-58545028D01*
X74343093Y-58545028D01*
X74235343Y-58491154D01*
X74181468Y-58437279D01*
X74127593Y-58329529D01*
X74127593Y-58275654D01*
X74316155Y-58087093D01*
X74423905Y-58194842D01*
X73831282Y-58087093D02*
X74396967Y-57521407D01*
X73508033Y-57763844D01*
X74073719Y-57198158D01*
X73238659Y-57494470D02*
X73804345Y-56928784D01*
X73669658Y-56794097D01*
X73561908Y-56740223D01*
X73454158Y-56740223D01*
X73373346Y-56767160D01*
X73238659Y-56847972D01*
X73157847Y-56928784D01*
X73077035Y-57063471D01*
X73050097Y-57144284D01*
X73050097Y-57252033D01*
X73103972Y-57359783D01*
X73238659Y-57494470D01*
X75262841Y-45614155D02*
X75343653Y-45641093D01*
X75424465Y-45721905D01*
X75478340Y-45829654D01*
X75478340Y-45937404D01*
X75451402Y-46018216D01*
X75370590Y-46152903D01*
X75289778Y-46233715D01*
X75155091Y-46314528D01*
X75074279Y-46341465D01*
X74966529Y-46341465D01*
X74858780Y-46287590D01*
X74804905Y-46233715D01*
X74751030Y-46125966D01*
X74751030Y-46072091D01*
X74939592Y-45883529D01*
X75047341Y-45991279D01*
X74454719Y-45883529D02*
X75020404Y-45317844D01*
X74131470Y-45560280D01*
X74697155Y-44994595D01*
X73862096Y-45290906D02*
X74427781Y-44725221D01*
X74293094Y-44590534D01*
X74185345Y-44536659D01*
X74077595Y-44536659D01*
X73996783Y-44563597D01*
X73862096Y-44644409D01*
X73781284Y-44725221D01*
X73700471Y-44859908D01*
X73673534Y-44940720D01*
X73673534Y-45048470D01*
X73727409Y-45156219D01*
X73862096Y-45290906D01*
X75135841Y-71014155D02*
X75216653Y-71041093D01*
X75297465Y-71121905D01*
X75351340Y-71229654D01*
X75351340Y-71337404D01*
X75324402Y-71418216D01*
X75243590Y-71552903D01*
X75162778Y-71633715D01*
X75028091Y-71714528D01*
X74947279Y-71741465D01*
X74839529Y-71741465D01*
X74731780Y-71687590D01*
X74677905Y-71633715D01*
X74624030Y-71525966D01*
X74624030Y-71472091D01*
X74812592Y-71283529D01*
X74920341Y-71391279D01*
X74327719Y-71283529D02*
X74893404Y-70717844D01*
X74004470Y-70960280D01*
X74570155Y-70394595D01*
X73735096Y-70690906D02*
X74300781Y-70125221D01*
X74166094Y-69990534D01*
X74058345Y-69936659D01*
X73950595Y-69936659D01*
X73869783Y-69963597D01*
X73735096Y-70044409D01*
X73654284Y-70125221D01*
X73573471Y-70259908D01*
X73546534Y-70340720D01*
X73546534Y-70448470D01*
X73600409Y-70556219D01*
X73735096Y-70690906D01*
X61616155Y-82598158D02*
X61643093Y-82517346D01*
X61723905Y-82436534D01*
X61831654Y-82382659D01*
X61939404Y-82382659D01*
X62020216Y-82409597D01*
X62154903Y-82490409D01*
X62235715Y-82571221D01*
X62316528Y-82705908D01*
X62343465Y-82786720D01*
X62343465Y-82894470D01*
X62289590Y-83002219D01*
X62235715Y-83056094D01*
X62127966Y-83109969D01*
X62074091Y-83109969D01*
X61885529Y-82921407D01*
X61993279Y-82813658D01*
X61885529Y-83406280D02*
X61319844Y-82840595D01*
X61562280Y-83729529D01*
X60996595Y-83163844D01*
X61292906Y-83998903D02*
X60727221Y-83433218D01*
X60592534Y-83567905D01*
X60538659Y-83675654D01*
X60538659Y-83783404D01*
X60565597Y-83864216D01*
X60646409Y-83998903D01*
X60727221Y-84079715D01*
X60861908Y-84160528D01*
X60942720Y-84187465D01*
X61050470Y-84187465D01*
X61158219Y-84133590D01*
X61292906Y-83998903D01*
X61616155Y-69898158D02*
X61643093Y-69817346D01*
X61723905Y-69736534D01*
X61831654Y-69682659D01*
X61939404Y-69682659D01*
X62020216Y-69709597D01*
X62154903Y-69790409D01*
X62235715Y-69871221D01*
X62316528Y-70005908D01*
X62343465Y-70086720D01*
X62343465Y-70194470D01*
X62289590Y-70302219D01*
X62235715Y-70356094D01*
X62127966Y-70409969D01*
X62074091Y-70409969D01*
X61885529Y-70221407D01*
X61993279Y-70113658D01*
X61885529Y-70706280D02*
X61319844Y-70140595D01*
X61562280Y-71029529D01*
X60996595Y-70463844D01*
X61292906Y-71298903D02*
X60727221Y-70733218D01*
X60592534Y-70867905D01*
X60538659Y-70975654D01*
X60538659Y-71083404D01*
X60565597Y-71164216D01*
X60646409Y-71298903D01*
X60727221Y-71379715D01*
X60861908Y-71460528D01*
X60942720Y-71487465D01*
X61050470Y-71487465D01*
X61158219Y-71433590D01*
X61292906Y-71298903D01*
X61616155Y-57325158D02*
X61643093Y-57244346D01*
X61723905Y-57163534D01*
X61831654Y-57109659D01*
X61939404Y-57109659D01*
X62020216Y-57136597D01*
X62154903Y-57217409D01*
X62235715Y-57298221D01*
X62316528Y-57432908D01*
X62343465Y-57513720D01*
X62343465Y-57621470D01*
X62289590Y-57729219D01*
X62235715Y-57783094D01*
X62127966Y-57836969D01*
X62074091Y-57836969D01*
X61885529Y-57648407D01*
X61993279Y-57540658D01*
X61885529Y-58133280D02*
X61319844Y-57567595D01*
X61562280Y-58456529D01*
X60996595Y-57890844D01*
X61292906Y-58725903D02*
X60727221Y-58160218D01*
X60592534Y-58294905D01*
X60538659Y-58402654D01*
X60538659Y-58510404D01*
X60565597Y-58591216D01*
X60646409Y-58725903D01*
X60727221Y-58806715D01*
X60861908Y-58887528D01*
X60942720Y-58914465D01*
X61050470Y-58914465D01*
X61158219Y-58860590D01*
X61292906Y-58725903D01*
X61616155Y-44879158D02*
X61643093Y-44798346D01*
X61723905Y-44717534D01*
X61831654Y-44663659D01*
X61939404Y-44663659D01*
X62020216Y-44690597D01*
X62154903Y-44771409D01*
X62235715Y-44852221D01*
X62316528Y-44986908D01*
X62343465Y-45067720D01*
X62343465Y-45175470D01*
X62289590Y-45283219D01*
X62235715Y-45337094D01*
X62127966Y-45390969D01*
X62074091Y-45390969D01*
X61885529Y-45202407D01*
X61993279Y-45094658D01*
X61885529Y-45687280D02*
X61319844Y-45121595D01*
X61562280Y-46010529D01*
X60996595Y-45444844D01*
X61292906Y-46279903D02*
X60727221Y-45714218D01*
X60592534Y-45848905D01*
X60538659Y-45956654D01*
X60538659Y-46064404D01*
X60565597Y-46145216D01*
X60646409Y-46279903D01*
X60727221Y-46360715D01*
X60861908Y-46441528D01*
X60942720Y-46468465D01*
X61050470Y-46468465D01*
X61158219Y-46414590D01*
X61292906Y-46279903D01*
X75387870Y-41367309D02*
X74633622Y-41744433D01*
X75010746Y-40990186D01*
X74364248Y-40882436D02*
X74256499Y-40828561D01*
X74202624Y-40828561D01*
X74121812Y-40855499D01*
X74041000Y-40936311D01*
X74014062Y-41017123D01*
X74014062Y-41070998D01*
X74041000Y-41151810D01*
X74256499Y-41367309D01*
X74822184Y-40801624D01*
X74633622Y-40613062D01*
X74552810Y-40586125D01*
X74498935Y-40586125D01*
X74418123Y-40613062D01*
X74364248Y-40666937D01*
X74337311Y-40747749D01*
X74337311Y-40801624D01*
X74364248Y-40882436D01*
X74552810Y-41070998D01*
X74256499Y-40235938D02*
X73798563Y-40693874D01*
X73717751Y-40720812D01*
X73663876Y-40720812D01*
X73583064Y-40693874D01*
X73475314Y-40586125D01*
X73448377Y-40505312D01*
X73448377Y-40451438D01*
X73475314Y-40370625D01*
X73933250Y-39912690D01*
X73152065Y-40209001D02*
X73044316Y-40155126D01*
X72909629Y-40020439D01*
X72882691Y-39939627D01*
X72882691Y-39885752D01*
X72909629Y-39804940D01*
X72963503Y-39751065D01*
X73044316Y-39724128D01*
X73098190Y-39724128D01*
X73179003Y-39751065D01*
X73313690Y-39831877D01*
X73394502Y-39858815D01*
X73448377Y-39858815D01*
X73529189Y-39831877D01*
X73583064Y-39778003D01*
X73610001Y-39697190D01*
X73610001Y-39643316D01*
X73583064Y-39562503D01*
X73448377Y-39427816D01*
X73340627Y-39373942D01*
X75447526Y-43331966D02*
X74693279Y-43709089D01*
X75070402Y-42954842D01*
X74370030Y-43331966D02*
X74262280Y-43278091D01*
X74127593Y-43143404D01*
X74100656Y-43062592D01*
X74100656Y-43008717D01*
X74127593Y-42927905D01*
X74181468Y-42874030D01*
X74262280Y-42847093D01*
X74316155Y-42847093D01*
X74396967Y-42874030D01*
X74531654Y-42954842D01*
X74612467Y-42981780D01*
X74666341Y-42981780D01*
X74747154Y-42954842D01*
X74801028Y-42900967D01*
X74827966Y-42820155D01*
X74827966Y-42766280D01*
X74801028Y-42685468D01*
X74666341Y-42550781D01*
X74558592Y-42496906D01*
X73939032Y-42416094D02*
X73669658Y-42685468D01*
X74423905Y-42308345D02*
X73939032Y-42416094D01*
X74046781Y-41931221D01*
X73346409Y-42308345D02*
X73238659Y-42254470D01*
X73103972Y-42119783D01*
X73077035Y-42038971D01*
X73077035Y-41985096D01*
X73103972Y-41904284D01*
X73157847Y-41850409D01*
X73238659Y-41823471D01*
X73292534Y-41823471D01*
X73373346Y-41850409D01*
X73508033Y-41931221D01*
X73588845Y-41958158D01*
X73642720Y-41958158D01*
X73723532Y-41931221D01*
X73777407Y-41877346D01*
X73804345Y-41796534D01*
X73804345Y-41742659D01*
X73777407Y-41661847D01*
X73642720Y-41527160D01*
X73534971Y-41473285D01*
X75559152Y-51063592D02*
X75208966Y-50713406D01*
X75182028Y-51117467D01*
X75101216Y-51036654D01*
X75020404Y-51009717D01*
X74966529Y-51009717D01*
X74885717Y-51036654D01*
X74751030Y-51171341D01*
X74724093Y-51252154D01*
X74724093Y-51306028D01*
X74751030Y-51386841D01*
X74912654Y-51548465D01*
X74993467Y-51575402D01*
X75047341Y-51575402D01*
X75047341Y-50551781D02*
X74293094Y-50928905D01*
X74670218Y-50174658D01*
X74535531Y-50039971D02*
X74185345Y-49689784D01*
X74158407Y-50093845D01*
X74077595Y-50013033D01*
X73996783Y-49986096D01*
X73942908Y-49986096D01*
X73862096Y-50013033D01*
X73727409Y-50147720D01*
X73700471Y-50228532D01*
X73700471Y-50282407D01*
X73727409Y-50363219D01*
X73889033Y-50524844D01*
X73969845Y-50551781D01*
X74023720Y-50551781D01*
X74997211Y-53976773D02*
X74727837Y-53707399D01*
X74889462Y-54192272D02*
X75266585Y-53438025D01*
X74512338Y-53815149D01*
X74323776Y-53626587D02*
X74889462Y-53060902D01*
X74754775Y-52926215D01*
X74647025Y-52872340D01*
X74539276Y-52872340D01*
X74458463Y-52899277D01*
X74323776Y-52980089D01*
X74242964Y-53060902D01*
X74162152Y-53195589D01*
X74135215Y-53276401D01*
X74135215Y-53384150D01*
X74189089Y-53491900D01*
X74323776Y-53626587D01*
X73488717Y-52683778D02*
X73488717Y-52737653D01*
X73542592Y-52845402D01*
X73596467Y-52899277D01*
X73704216Y-52953152D01*
X73811966Y-52953152D01*
X73892778Y-52926215D01*
X74027465Y-52845402D01*
X74108277Y-52764590D01*
X74189089Y-52629903D01*
X74216027Y-52549091D01*
X74216027Y-52441341D01*
X74162152Y-52333592D01*
X74108277Y-52279717D01*
X74000528Y-52225842D01*
X73946653Y-52225842D01*
X73273218Y-52683778D02*
X72842219Y-52252780D01*
X73407905Y-51579345D02*
X72653658Y-51956468D01*
X73030781Y-51202221D01*
X71953285Y-51256096D02*
X72411221Y-51175284D01*
X72276534Y-51579345D02*
X72842219Y-51013659D01*
X72626720Y-50798160D01*
X72545908Y-50771223D01*
X72492033Y-50771223D01*
X72411221Y-50798160D01*
X72330409Y-50878972D01*
X72303471Y-50959784D01*
X72303471Y-51013659D01*
X72330409Y-51094471D01*
X72545908Y-51309971D01*
X72007160Y-50717348D02*
X71818598Y-50528786D01*
X71441475Y-50744285D02*
X71710849Y-51013659D01*
X72276534Y-50447974D01*
X72007160Y-50178600D01*
X71306788Y-50016975D02*
X71495349Y-50205537D01*
X71199038Y-50501849D02*
X71764723Y-49936163D01*
X71495349Y-49666789D01*
X74997277Y-55762592D02*
X75078089Y-55789529D01*
X75158902Y-55870341D01*
X75212776Y-55978091D01*
X75212776Y-56085841D01*
X75185839Y-56166653D01*
X75105027Y-56301340D01*
X75024215Y-56382152D01*
X74889528Y-56462964D01*
X74808715Y-56489902D01*
X74700966Y-56489902D01*
X74593216Y-56436027D01*
X74539341Y-56382152D01*
X74485467Y-56274402D01*
X74485467Y-56220528D01*
X74674028Y-56031966D01*
X74781778Y-56139715D01*
X74189155Y-56031966D02*
X74754841Y-55466280D01*
X74539341Y-55250781D01*
X74458529Y-55223844D01*
X74404654Y-55223844D01*
X74323842Y-55250781D01*
X74243030Y-55331593D01*
X74216093Y-55412406D01*
X74216093Y-55466280D01*
X74243030Y-55547093D01*
X74458529Y-55762592D01*
X74162218Y-54981407D02*
X74162218Y-54927532D01*
X74135280Y-54846720D01*
X74000593Y-54712033D01*
X73919781Y-54685096D01*
X73865906Y-54685096D01*
X73785094Y-54712033D01*
X73731219Y-54765908D01*
X73677345Y-54873658D01*
X73677345Y-55520155D01*
X73327158Y-55169969D01*
X73327158Y-54523471D02*
X73407971Y-54550409D01*
X73461845Y-54550409D01*
X73542658Y-54523471D01*
X73569595Y-54496534D01*
X73596532Y-54415722D01*
X73596532Y-54361847D01*
X73569595Y-54281035D01*
X73461845Y-54173285D01*
X73381033Y-54146348D01*
X73327158Y-54146348D01*
X73246346Y-54173285D01*
X73219409Y-54200223D01*
X73192471Y-54281035D01*
X73192471Y-54334910D01*
X73219409Y-54415722D01*
X73327158Y-54523471D01*
X73354096Y-54604284D01*
X73354096Y-54658158D01*
X73327158Y-54738971D01*
X73219409Y-54846720D01*
X73138597Y-54873658D01*
X73084722Y-54873658D01*
X73003910Y-54846720D01*
X72896160Y-54738971D01*
X72869223Y-54658158D01*
X72869223Y-54604284D01*
X72896160Y-54523471D01*
X73003910Y-54415722D01*
X73084722Y-54388784D01*
X73138597Y-54388784D01*
X73219409Y-54415722D01*
X74743277Y-60842592D02*
X74824089Y-60869529D01*
X74904902Y-60950341D01*
X74958776Y-61058091D01*
X74958776Y-61165841D01*
X74931839Y-61246653D01*
X74851027Y-61381340D01*
X74770215Y-61462152D01*
X74635528Y-61542964D01*
X74554715Y-61569902D01*
X74446966Y-61569902D01*
X74339216Y-61516027D01*
X74285341Y-61462152D01*
X74231467Y-61354402D01*
X74231467Y-61300528D01*
X74420028Y-61111966D01*
X74527778Y-61219715D01*
X73935155Y-61111966D02*
X74500841Y-60546280D01*
X74285341Y-60330781D01*
X74204529Y-60303844D01*
X74150654Y-60303844D01*
X74069842Y-60330781D01*
X73989030Y-60411593D01*
X73962093Y-60492406D01*
X73962093Y-60546280D01*
X73989030Y-60627093D01*
X74204529Y-60842592D01*
X73908218Y-60061407D02*
X73908218Y-60007532D01*
X73881280Y-59926720D01*
X73746593Y-59792033D01*
X73665781Y-59765096D01*
X73611906Y-59765096D01*
X73531094Y-59792033D01*
X73477219Y-59845908D01*
X73423345Y-59953658D01*
X73423345Y-60600155D01*
X73073158Y-60249969D01*
X73450282Y-59495722D02*
X73073158Y-59118598D01*
X72749910Y-59926720D01*
X74743277Y-63382592D02*
X74824089Y-63409529D01*
X74904902Y-63490341D01*
X74958776Y-63598091D01*
X74958776Y-63705841D01*
X74931839Y-63786653D01*
X74851027Y-63921340D01*
X74770215Y-64002152D01*
X74635528Y-64082964D01*
X74554715Y-64109902D01*
X74446966Y-64109902D01*
X74339216Y-64056027D01*
X74285341Y-64002152D01*
X74231467Y-63894402D01*
X74231467Y-63840528D01*
X74420028Y-63651966D01*
X74527778Y-63759715D01*
X73935155Y-63651966D02*
X74500841Y-63086280D01*
X74285341Y-62870781D01*
X74204529Y-62843844D01*
X74150654Y-62843844D01*
X74069842Y-62870781D01*
X73989030Y-62951593D01*
X73962093Y-63032406D01*
X73962093Y-63086280D01*
X73989030Y-63167093D01*
X74204529Y-63382592D01*
X73908218Y-62601407D02*
X73908218Y-62547532D01*
X73881280Y-62466720D01*
X73746593Y-62332033D01*
X73665781Y-62305096D01*
X73611906Y-62305096D01*
X73531094Y-62332033D01*
X73477219Y-62385908D01*
X73423345Y-62493658D01*
X73423345Y-63140155D01*
X73073158Y-62789969D01*
X73153971Y-61739410D02*
X73261720Y-61847160D01*
X73288658Y-61927972D01*
X73288658Y-61981847D01*
X73261720Y-62116534D01*
X73180908Y-62251221D01*
X72965409Y-62466720D01*
X72884597Y-62493658D01*
X72830722Y-62493658D01*
X72749910Y-62466720D01*
X72642160Y-62358971D01*
X72615223Y-62278158D01*
X72615223Y-62224284D01*
X72642160Y-62143471D01*
X72776847Y-62008784D01*
X72857659Y-61981847D01*
X72911534Y-61981847D01*
X72992346Y-62008784D01*
X73100096Y-62116534D01*
X73127033Y-62197346D01*
X73127033Y-62251221D01*
X73100096Y-62332033D01*
X74456624Y-66205435D02*
X74914560Y-66124622D01*
X74779873Y-66528683D02*
X75345558Y-65962998D01*
X75130059Y-65747499D01*
X75049247Y-65720561D01*
X74995372Y-65720561D01*
X74914560Y-65747499D01*
X74833748Y-65828311D01*
X74806810Y-65909123D01*
X74806810Y-65962998D01*
X74833748Y-66043810D01*
X75049247Y-66259309D01*
X74779873Y-65397312D02*
X74321937Y-65855248D01*
X74241125Y-65882186D01*
X74187250Y-65882186D01*
X74106438Y-65855248D01*
X73998688Y-65747499D01*
X73971751Y-65666687D01*
X73971751Y-65612812D01*
X73998688Y-65532000D01*
X74456624Y-65074064D01*
X73621564Y-65370375D02*
X74187250Y-64804690D01*
X73298316Y-65047126D01*
X73864001Y-64481441D01*
X75124277Y-68208592D02*
X75205089Y-68235529D01*
X75285902Y-68316341D01*
X75339776Y-68424091D01*
X75339776Y-68531841D01*
X75312839Y-68612653D01*
X75232027Y-68747340D01*
X75151215Y-68828152D01*
X75016528Y-68908964D01*
X74935715Y-68935902D01*
X74827966Y-68935902D01*
X74720216Y-68882027D01*
X74666341Y-68828152D01*
X74612467Y-68720402D01*
X74612467Y-68666528D01*
X74801028Y-68477966D01*
X74908778Y-68585715D01*
X74316155Y-68477966D02*
X74881841Y-67912280D01*
X74666341Y-67696781D01*
X74585529Y-67669844D01*
X74531654Y-67669844D01*
X74450842Y-67696781D01*
X74370030Y-67777593D01*
X74343093Y-67858406D01*
X74343093Y-67912280D01*
X74370030Y-67993093D01*
X74585529Y-68208592D01*
X74289218Y-67427407D02*
X74289218Y-67373532D01*
X74262280Y-67292720D01*
X74127593Y-67158033D01*
X74046781Y-67131096D01*
X73992906Y-67131096D01*
X73912094Y-67158033D01*
X73858219Y-67211908D01*
X73804345Y-67319658D01*
X73804345Y-67966155D01*
X73454158Y-67615969D01*
X73750470Y-66888659D02*
X73750470Y-66834784D01*
X73723532Y-66753972D01*
X73588845Y-66619285D01*
X73508033Y-66592348D01*
X73454158Y-66592348D01*
X73373346Y-66619285D01*
X73319471Y-66673160D01*
X73265597Y-66780910D01*
X73265597Y-67427407D01*
X72915410Y-67077221D01*
X75251277Y-73415592D02*
X75332089Y-73442529D01*
X75412902Y-73523341D01*
X75466776Y-73631091D01*
X75466776Y-73738841D01*
X75439839Y-73819653D01*
X75359027Y-73954340D01*
X75278215Y-74035152D01*
X75143528Y-74115964D01*
X75062715Y-74142902D01*
X74954966Y-74142902D01*
X74847216Y-74089027D01*
X74793341Y-74035152D01*
X74739467Y-73927402D01*
X74739467Y-73873528D01*
X74928028Y-73684966D01*
X75035778Y-73792715D01*
X74443155Y-73684966D02*
X75008841Y-73119280D01*
X74793341Y-72903781D01*
X74712529Y-72876844D01*
X74658654Y-72876844D01*
X74577842Y-72903781D01*
X74497030Y-72984593D01*
X74470093Y-73065406D01*
X74470093Y-73119280D01*
X74497030Y-73200093D01*
X74712529Y-73415592D01*
X74416218Y-72634407D02*
X74416218Y-72580532D01*
X74389280Y-72499720D01*
X74254593Y-72365033D01*
X74173781Y-72338096D01*
X74119906Y-72338096D01*
X74039094Y-72365033D01*
X73985219Y-72418908D01*
X73931345Y-72526658D01*
X73931345Y-73173155D01*
X73581158Y-72822969D01*
X73042410Y-72284221D02*
X73365659Y-72607470D01*
X73204035Y-72445845D02*
X73769720Y-71880160D01*
X73742783Y-72014847D01*
X73742783Y-72122597D01*
X73769720Y-72203409D01*
X75378277Y-75828592D02*
X75459089Y-75855529D01*
X75539902Y-75936341D01*
X75593776Y-76044091D01*
X75593776Y-76151841D01*
X75566839Y-76232653D01*
X75486027Y-76367340D01*
X75405215Y-76448152D01*
X75270528Y-76528964D01*
X75189715Y-76555902D01*
X75081966Y-76555902D01*
X74974216Y-76502027D01*
X74920341Y-76448152D01*
X74866467Y-76340402D01*
X74866467Y-76286528D01*
X75055028Y-76097966D01*
X75162778Y-76205715D01*
X74570155Y-76097966D02*
X75135841Y-75532280D01*
X74920341Y-75316781D01*
X74839529Y-75289844D01*
X74785654Y-75289844D01*
X74704842Y-75316781D01*
X74624030Y-75397593D01*
X74597093Y-75478406D01*
X74597093Y-75532280D01*
X74624030Y-75613093D01*
X74839529Y-75828592D01*
X74543218Y-75047407D02*
X74543218Y-74993532D01*
X74516280Y-74912720D01*
X74381593Y-74778033D01*
X74300781Y-74751096D01*
X74246906Y-74751096D01*
X74166094Y-74778033D01*
X74112219Y-74831908D01*
X74058345Y-74939658D01*
X74058345Y-75586155D01*
X73708158Y-75235969D01*
X73923658Y-74320097D02*
X73869783Y-74266223D01*
X73788971Y-74239285D01*
X73735096Y-74239285D01*
X73654284Y-74266223D01*
X73519597Y-74347035D01*
X73384910Y-74481722D01*
X73304097Y-74616409D01*
X73277160Y-74697221D01*
X73277160Y-74751096D01*
X73304097Y-74831908D01*
X73357972Y-74885783D01*
X73438784Y-74912720D01*
X73492659Y-74912720D01*
X73573471Y-74885783D01*
X73708158Y-74804971D01*
X73842845Y-74670284D01*
X73923658Y-74535597D01*
X73950595Y-74454784D01*
X73950595Y-74400910D01*
X73923658Y-74320097D01*
X75124277Y-78114592D02*
X75205089Y-78141529D01*
X75285902Y-78222341D01*
X75339776Y-78330091D01*
X75339776Y-78437841D01*
X75312839Y-78518653D01*
X75232027Y-78653340D01*
X75151215Y-78734152D01*
X75016528Y-78814964D01*
X74935715Y-78841902D01*
X74827966Y-78841902D01*
X74720216Y-78788027D01*
X74666341Y-78734152D01*
X74612467Y-78626402D01*
X74612467Y-78572528D01*
X74801028Y-78383966D01*
X74908778Y-78491715D01*
X74316155Y-78383966D02*
X74881841Y-77818280D01*
X74666341Y-77602781D01*
X74585529Y-77575844D01*
X74531654Y-77575844D01*
X74450842Y-77602781D01*
X74370030Y-77683593D01*
X74343093Y-77764406D01*
X74343093Y-77818280D01*
X74370030Y-77899093D01*
X74585529Y-78114592D01*
X73454158Y-77521969D02*
X73777407Y-77845218D01*
X73615783Y-77683593D02*
X74181468Y-77117908D01*
X74154531Y-77252595D01*
X74154531Y-77360345D01*
X74181468Y-77441157D01*
X73184784Y-77252595D02*
X73077035Y-77144845D01*
X73050097Y-77064033D01*
X73050097Y-77010158D01*
X73077035Y-76875471D01*
X73157847Y-76740784D01*
X73373346Y-76525285D01*
X73454158Y-76498348D01*
X73508033Y-76498348D01*
X73588845Y-76525285D01*
X73696595Y-76633035D01*
X73723532Y-76713847D01*
X73723532Y-76767722D01*
X73696595Y-76848534D01*
X73561908Y-76983221D01*
X73481096Y-77010158D01*
X73427221Y-77010158D01*
X73346409Y-76983221D01*
X73238659Y-76875471D01*
X73211722Y-76794659D01*
X73211722Y-76740784D01*
X73238659Y-76659972D01*
X75124277Y-80908592D02*
X75205089Y-80935529D01*
X75285902Y-81016341D01*
X75339776Y-81124091D01*
X75339776Y-81231841D01*
X75312839Y-81312653D01*
X75232027Y-81447340D01*
X75151215Y-81528152D01*
X75016528Y-81608964D01*
X74935715Y-81635902D01*
X74827966Y-81635902D01*
X74720216Y-81582027D01*
X74666341Y-81528152D01*
X74612467Y-81420402D01*
X74612467Y-81366528D01*
X74801028Y-81177966D01*
X74908778Y-81285715D01*
X74316155Y-81177966D02*
X74881841Y-80612280D01*
X74666341Y-80396781D01*
X74585529Y-80369844D01*
X74531654Y-80369844D01*
X74450842Y-80396781D01*
X74370030Y-80477593D01*
X74343093Y-80558406D01*
X74343093Y-80612280D01*
X74370030Y-80693093D01*
X74585529Y-80908592D01*
X73454158Y-80315969D02*
X73777407Y-80639218D01*
X73615783Y-80477593D02*
X74181468Y-79911908D01*
X74154531Y-80046595D01*
X74154531Y-80154345D01*
X74181468Y-80235157D01*
X73454158Y-79669471D02*
X73534971Y-79696409D01*
X73588845Y-79696409D01*
X73669658Y-79669471D01*
X73696595Y-79642534D01*
X73723532Y-79561722D01*
X73723532Y-79507847D01*
X73696595Y-79427035D01*
X73588845Y-79319285D01*
X73508033Y-79292348D01*
X73454158Y-79292348D01*
X73373346Y-79319285D01*
X73346409Y-79346223D01*
X73319471Y-79427035D01*
X73319471Y-79480910D01*
X73346409Y-79561722D01*
X73454158Y-79669471D01*
X73481096Y-79750284D01*
X73481096Y-79804158D01*
X73454158Y-79884971D01*
X73346409Y-79992720D01*
X73265597Y-80019658D01*
X73211722Y-80019658D01*
X73130910Y-79992720D01*
X73023160Y-79884971D01*
X72996223Y-79804158D01*
X72996223Y-79750284D01*
X73023160Y-79669471D01*
X73130910Y-79561722D01*
X73211722Y-79534784D01*
X73265597Y-79534784D01*
X73346409Y-79561722D01*
X75124277Y-85861592D02*
X75205089Y-85888529D01*
X75285902Y-85969341D01*
X75339776Y-86077091D01*
X75339776Y-86184841D01*
X75312839Y-86265653D01*
X75232027Y-86400340D01*
X75151215Y-86481152D01*
X75016528Y-86561964D01*
X74935715Y-86588902D01*
X74827966Y-86588902D01*
X74720216Y-86535027D01*
X74666341Y-86481152D01*
X74612467Y-86373402D01*
X74612467Y-86319528D01*
X74801028Y-86130966D01*
X74908778Y-86238715D01*
X74316155Y-86130966D02*
X74881841Y-85565280D01*
X74666341Y-85349781D01*
X74585529Y-85322844D01*
X74531654Y-85322844D01*
X74450842Y-85349781D01*
X74370030Y-85430593D01*
X74343093Y-85511406D01*
X74343093Y-85565280D01*
X74370030Y-85646093D01*
X74585529Y-85861592D01*
X73454158Y-85268969D02*
X73777407Y-85592218D01*
X73615783Y-85430593D02*
X74181468Y-84864908D01*
X74154531Y-84999595D01*
X74154531Y-85107345D01*
X74181468Y-85188157D01*
X73831282Y-84514722D02*
X73454158Y-84137598D01*
X73130910Y-84945720D01*
X75378277Y-88782592D02*
X75459089Y-88809529D01*
X75539902Y-88890341D01*
X75593776Y-88998091D01*
X75593776Y-89105841D01*
X75566839Y-89186653D01*
X75486027Y-89321340D01*
X75405215Y-89402152D01*
X75270528Y-89482964D01*
X75189715Y-89509902D01*
X75081966Y-89509902D01*
X74974216Y-89456027D01*
X74920341Y-89402152D01*
X74866467Y-89294402D01*
X74866467Y-89240528D01*
X75055028Y-89051966D01*
X75162778Y-89159715D01*
X74570155Y-89051966D02*
X75135841Y-88486280D01*
X74920341Y-88270781D01*
X74839529Y-88243844D01*
X74785654Y-88243844D01*
X74704842Y-88270781D01*
X74624030Y-88351593D01*
X74597093Y-88432406D01*
X74597093Y-88486280D01*
X74624030Y-88567093D01*
X74839529Y-88782592D01*
X73708158Y-88189969D02*
X74031407Y-88513218D01*
X73869783Y-88351593D02*
X74435468Y-87785908D01*
X74408531Y-87920595D01*
X74408531Y-88028345D01*
X74435468Y-88109157D01*
X73788971Y-87139410D02*
X73896720Y-87247160D01*
X73923658Y-87327972D01*
X73923658Y-87381847D01*
X73896720Y-87516534D01*
X73815908Y-87651221D01*
X73600409Y-87866720D01*
X73519597Y-87893658D01*
X73465722Y-87893658D01*
X73384910Y-87866720D01*
X73277160Y-87758971D01*
X73250223Y-87678158D01*
X73250223Y-87624284D01*
X73277160Y-87543471D01*
X73411847Y-87408784D01*
X73492659Y-87381847D01*
X73546534Y-87381847D01*
X73627346Y-87408784D01*
X73735096Y-87516534D01*
X73762033Y-87597346D01*
X73762033Y-87651221D01*
X73735096Y-87732033D01*
X61858592Y-87689722D02*
X61885529Y-87608910D01*
X61966341Y-87528097D01*
X62074091Y-87474223D01*
X62181841Y-87474223D01*
X62262653Y-87501160D01*
X62397340Y-87581972D01*
X62478152Y-87662784D01*
X62558964Y-87797471D01*
X62585902Y-87878284D01*
X62585902Y-87986033D01*
X62532027Y-88093783D01*
X62478152Y-88147658D01*
X62370402Y-88201532D01*
X62316528Y-88201532D01*
X62127966Y-88012971D01*
X62235715Y-87905221D01*
X62127966Y-88497844D02*
X61562280Y-87932158D01*
X61346781Y-88147658D01*
X61319844Y-88228470D01*
X61319844Y-88282345D01*
X61346781Y-88363157D01*
X61427593Y-88443969D01*
X61508406Y-88470906D01*
X61562280Y-88470906D01*
X61643093Y-88443969D01*
X61858592Y-88228470D01*
X61265969Y-89359841D02*
X61589218Y-89036592D01*
X61427593Y-89198216D02*
X60861908Y-88632531D01*
X60996595Y-88659468D01*
X61104345Y-88659468D01*
X61185157Y-88632531D01*
X60188473Y-89305966D02*
X60457847Y-89036592D01*
X60754158Y-89279028D01*
X60700284Y-89279028D01*
X60619471Y-89305966D01*
X60484784Y-89440653D01*
X60457847Y-89521465D01*
X60457847Y-89575340D01*
X60484784Y-89656152D01*
X60619471Y-89790839D01*
X60700284Y-89817776D01*
X60754158Y-89817776D01*
X60834971Y-89790839D01*
X60969658Y-89656152D01*
X60996595Y-89575340D01*
X60996595Y-89521465D01*
X61985592Y-84768722D02*
X62012529Y-84687910D01*
X62093341Y-84607097D01*
X62201091Y-84553223D01*
X62308841Y-84553223D01*
X62389653Y-84580160D01*
X62524340Y-84660972D01*
X62605152Y-84741784D01*
X62685964Y-84876471D01*
X62712902Y-84957284D01*
X62712902Y-85065033D01*
X62659027Y-85172783D01*
X62605152Y-85226658D01*
X62497402Y-85280532D01*
X62443528Y-85280532D01*
X62254966Y-85091971D01*
X62362715Y-84984221D01*
X62254966Y-85576844D02*
X61689280Y-85011158D01*
X61473781Y-85226658D01*
X61446844Y-85307470D01*
X61446844Y-85361345D01*
X61473781Y-85442157D01*
X61554593Y-85522969D01*
X61635406Y-85549906D01*
X61689280Y-85549906D01*
X61770093Y-85522969D01*
X61985592Y-85307470D01*
X61392969Y-86438841D02*
X61716218Y-86115592D01*
X61554593Y-86277216D02*
X60988908Y-85711531D01*
X61123595Y-85738468D01*
X61231345Y-85738468D01*
X61312157Y-85711531D01*
X60530972Y-86546590D02*
X60908096Y-86923714D01*
X60450160Y-86196404D02*
X60988908Y-86465778D01*
X60638722Y-86815964D01*
X62112592Y-79688722D02*
X62139529Y-79607910D01*
X62220341Y-79527097D01*
X62328091Y-79473223D01*
X62435841Y-79473223D01*
X62516653Y-79500160D01*
X62651340Y-79580972D01*
X62732152Y-79661784D01*
X62812964Y-79796471D01*
X62839902Y-79877284D01*
X62839902Y-79985033D01*
X62786027Y-80092783D01*
X62732152Y-80146658D01*
X62624402Y-80200532D01*
X62570528Y-80200532D01*
X62381966Y-80011971D01*
X62489715Y-79904221D01*
X62381966Y-80496844D02*
X61816280Y-79931158D01*
X61600781Y-80146658D01*
X61573844Y-80227470D01*
X61573844Y-80281345D01*
X61600781Y-80362157D01*
X61681593Y-80442969D01*
X61762406Y-80469906D01*
X61816280Y-80469906D01*
X61897093Y-80442969D01*
X62112592Y-80227470D01*
X61519969Y-81358841D02*
X61843218Y-81035592D01*
X61681593Y-81197216D02*
X61115908Y-80631531D01*
X61250595Y-80658468D01*
X61358345Y-80658468D01*
X61439157Y-80631531D01*
X60765722Y-80981717D02*
X60415536Y-81331903D01*
X60819597Y-81358841D01*
X60738784Y-81439653D01*
X60711847Y-81520465D01*
X60711847Y-81574340D01*
X60738784Y-81655152D01*
X60873471Y-81789839D01*
X60954284Y-81816776D01*
X61008158Y-81816776D01*
X61088971Y-81789839D01*
X61250595Y-81628215D01*
X61277532Y-81547402D01*
X61277532Y-81493528D01*
X61858592Y-77148722D02*
X61885529Y-77067910D01*
X61966341Y-76987097D01*
X62074091Y-76933223D01*
X62181841Y-76933223D01*
X62262653Y-76960160D01*
X62397340Y-77040972D01*
X62478152Y-77121784D01*
X62558964Y-77256471D01*
X62585902Y-77337284D01*
X62585902Y-77445033D01*
X62532027Y-77552783D01*
X62478152Y-77606658D01*
X62370402Y-77660532D01*
X62316528Y-77660532D01*
X62127966Y-77471971D01*
X62235715Y-77364221D01*
X62127966Y-77956844D02*
X61562280Y-77391158D01*
X61346781Y-77606658D01*
X61319844Y-77687470D01*
X61319844Y-77741345D01*
X61346781Y-77822157D01*
X61427593Y-77902969D01*
X61508406Y-77929906D01*
X61562280Y-77929906D01*
X61643093Y-77902969D01*
X61858592Y-77687470D01*
X61265969Y-78818841D02*
X61589218Y-78495592D01*
X61427593Y-78657216D02*
X60861908Y-78091531D01*
X60996595Y-78118468D01*
X61104345Y-78118468D01*
X61185157Y-78091531D01*
X60538659Y-78522529D02*
X60484784Y-78522529D01*
X60403972Y-78549467D01*
X60269285Y-78684154D01*
X60242348Y-78764966D01*
X60242348Y-78818841D01*
X60269285Y-78899653D01*
X60323160Y-78953528D01*
X60430910Y-79007402D01*
X61077407Y-79007402D01*
X60727221Y-79357589D01*
X61985592Y-74481722D02*
X62012529Y-74400910D01*
X62093341Y-74320097D01*
X62201091Y-74266223D01*
X62308841Y-74266223D01*
X62389653Y-74293160D01*
X62524340Y-74373972D01*
X62605152Y-74454784D01*
X62685964Y-74589471D01*
X62712902Y-74670284D01*
X62712902Y-74778033D01*
X62659027Y-74885783D01*
X62605152Y-74939658D01*
X62497402Y-74993532D01*
X62443528Y-74993532D01*
X62254966Y-74804971D01*
X62362715Y-74697221D01*
X62254966Y-75289844D02*
X61689280Y-74724158D01*
X61473781Y-74939658D01*
X61446844Y-75020470D01*
X61446844Y-75074345D01*
X61473781Y-75155157D01*
X61554593Y-75235969D01*
X61635406Y-75262906D01*
X61689280Y-75262906D01*
X61770093Y-75235969D01*
X61985592Y-75020470D01*
X61392969Y-76151841D02*
X61716218Y-75828592D01*
X61554593Y-75990216D02*
X60988908Y-75424531D01*
X61123595Y-75451468D01*
X61231345Y-75451468D01*
X61312157Y-75424531D01*
X60854221Y-76690589D02*
X61177470Y-76367340D01*
X61015845Y-76528964D02*
X60450160Y-75963279D01*
X60584847Y-75990216D01*
X60692597Y-75990216D01*
X60773409Y-75963279D01*
X61858592Y-72195722D02*
X61885529Y-72114910D01*
X61966341Y-72034097D01*
X62074091Y-71980223D01*
X62181841Y-71980223D01*
X62262653Y-72007160D01*
X62397340Y-72087972D01*
X62478152Y-72168784D01*
X62558964Y-72303471D01*
X62585902Y-72384284D01*
X62585902Y-72492033D01*
X62532027Y-72599783D01*
X62478152Y-72653658D01*
X62370402Y-72707532D01*
X62316528Y-72707532D01*
X62127966Y-72518971D01*
X62235715Y-72411221D01*
X62127966Y-73003844D02*
X61562280Y-72438158D01*
X61346781Y-72653658D01*
X61319844Y-72734470D01*
X61319844Y-72788345D01*
X61346781Y-72869157D01*
X61427593Y-72949969D01*
X61508406Y-72976906D01*
X61562280Y-72976906D01*
X61643093Y-72949969D01*
X61858592Y-72734470D01*
X61265969Y-73865841D02*
X61589218Y-73542592D01*
X61427593Y-73704216D02*
X60861908Y-73138531D01*
X60996595Y-73165468D01*
X61104345Y-73165468D01*
X61185157Y-73138531D01*
X60350097Y-73650341D02*
X60296223Y-73704216D01*
X60269285Y-73785028D01*
X60269285Y-73838903D01*
X60296223Y-73919715D01*
X60377035Y-74054402D01*
X60511722Y-74189089D01*
X60646409Y-74269902D01*
X60727221Y-74296839D01*
X60781096Y-74296839D01*
X60861908Y-74269902D01*
X60915783Y-74216027D01*
X60942720Y-74135215D01*
X60942720Y-74081340D01*
X60915783Y-74000528D01*
X60834971Y-73865841D01*
X60700284Y-73731154D01*
X60565597Y-73650341D01*
X60484784Y-73623404D01*
X60430910Y-73623404D01*
X60350097Y-73650341D01*
X61462218Y-67385096D02*
X61489155Y-67304284D01*
X61569967Y-67223471D01*
X61677717Y-67169597D01*
X61785467Y-67169597D01*
X61866279Y-67196534D01*
X62000966Y-67277346D01*
X62081778Y-67358158D01*
X62162590Y-67492845D01*
X62189528Y-67573658D01*
X62189528Y-67681407D01*
X62135653Y-67789157D01*
X62081778Y-67843032D01*
X61974028Y-67896906D01*
X61920154Y-67896906D01*
X61731592Y-67708345D01*
X61839341Y-67600595D01*
X61731592Y-68193218D02*
X61165906Y-67627532D01*
X60950407Y-67843032D01*
X60923470Y-67923844D01*
X60923470Y-67977719D01*
X60950407Y-68058531D01*
X61031219Y-68139343D01*
X61112032Y-68166280D01*
X61165906Y-68166280D01*
X61246719Y-68139343D01*
X61462218Y-67923844D01*
X61138969Y-68785841D02*
X61031219Y-68893590D01*
X60950407Y-68920528D01*
X60896532Y-68920528D01*
X60761845Y-68893590D01*
X60627158Y-68812778D01*
X60411659Y-68597279D01*
X60384722Y-68516467D01*
X60384722Y-68462592D01*
X60411659Y-68381780D01*
X60519409Y-68274030D01*
X60600221Y-68247093D01*
X60654096Y-68247093D01*
X60734908Y-68274030D01*
X60869595Y-68408717D01*
X60896532Y-68489529D01*
X60896532Y-68543404D01*
X60869595Y-68624216D01*
X60761845Y-68731966D01*
X60681033Y-68758903D01*
X60627158Y-68758903D01*
X60546346Y-68731966D01*
X61589218Y-64972096D02*
X61616155Y-64891284D01*
X61696967Y-64810471D01*
X61804717Y-64756597D01*
X61912467Y-64756597D01*
X61993279Y-64783534D01*
X62127966Y-64864346D01*
X62208778Y-64945158D01*
X62289590Y-65079845D01*
X62316528Y-65160658D01*
X62316528Y-65268407D01*
X62262653Y-65376157D01*
X62208778Y-65430032D01*
X62101028Y-65483906D01*
X62047154Y-65483906D01*
X61858592Y-65295345D01*
X61966341Y-65187595D01*
X61858592Y-65780218D02*
X61292906Y-65214532D01*
X61077407Y-65430032D01*
X61050470Y-65510844D01*
X61050470Y-65564719D01*
X61077407Y-65645531D01*
X61158219Y-65726343D01*
X61239032Y-65753280D01*
X61292906Y-65753280D01*
X61373719Y-65726343D01*
X61589218Y-65510844D01*
X60888845Y-66103467D02*
X60915783Y-66022654D01*
X60915783Y-65968780D01*
X60888845Y-65887967D01*
X60861908Y-65861030D01*
X60781096Y-65834093D01*
X60727221Y-65834093D01*
X60646409Y-65861030D01*
X60538659Y-65968780D01*
X60511722Y-66049592D01*
X60511722Y-66103467D01*
X60538659Y-66184279D01*
X60565597Y-66211216D01*
X60646409Y-66238154D01*
X60700284Y-66238154D01*
X60781096Y-66211216D01*
X60888845Y-66103467D01*
X60969658Y-66076529D01*
X61023532Y-66076529D01*
X61104345Y-66103467D01*
X61212094Y-66211216D01*
X61239032Y-66292028D01*
X61239032Y-66345903D01*
X61212094Y-66426715D01*
X61104345Y-66534465D01*
X61023532Y-66561402D01*
X60969658Y-66561402D01*
X60888845Y-66534465D01*
X60781096Y-66426715D01*
X60754158Y-66345903D01*
X60754158Y-66292028D01*
X60781096Y-66211216D01*
X61716218Y-62559096D02*
X61743155Y-62478284D01*
X61823967Y-62397471D01*
X61931717Y-62343597D01*
X62039467Y-62343597D01*
X62120279Y-62370534D01*
X62254966Y-62451346D01*
X62335778Y-62532158D01*
X62416590Y-62666845D01*
X62443528Y-62747658D01*
X62443528Y-62855407D01*
X62389653Y-62963157D01*
X62335778Y-63017032D01*
X62228028Y-63070906D01*
X62174154Y-63070906D01*
X61985592Y-62882345D01*
X62093341Y-62774595D01*
X61985592Y-63367218D02*
X61419906Y-62801532D01*
X61204407Y-63017032D01*
X61177470Y-63097844D01*
X61177470Y-63151719D01*
X61204407Y-63232531D01*
X61285219Y-63313343D01*
X61366032Y-63340280D01*
X61419906Y-63340280D01*
X61500719Y-63313343D01*
X61716218Y-63097844D01*
X60908096Y-63313343D02*
X60530972Y-63690467D01*
X61339094Y-64013715D01*
X61589218Y-60273096D02*
X61616155Y-60192284D01*
X61696967Y-60111471D01*
X61804717Y-60057597D01*
X61912467Y-60057597D01*
X61993279Y-60084534D01*
X62127966Y-60165346D01*
X62208778Y-60246158D01*
X62289590Y-60380845D01*
X62316528Y-60461658D01*
X62316528Y-60569407D01*
X62262653Y-60677157D01*
X62208778Y-60731032D01*
X62101028Y-60784906D01*
X62047154Y-60784906D01*
X61858592Y-60596345D01*
X61966341Y-60488595D01*
X61858592Y-61081218D02*
X61292906Y-60515532D01*
X61077407Y-60731032D01*
X61050470Y-60811844D01*
X61050470Y-60865719D01*
X61077407Y-60946531D01*
X61158219Y-61027343D01*
X61239032Y-61054280D01*
X61292906Y-61054280D01*
X61373719Y-61027343D01*
X61589218Y-60811844D01*
X60484784Y-61323654D02*
X60592534Y-61215905D01*
X60673346Y-61188967D01*
X60727221Y-61188967D01*
X60861908Y-61215905D01*
X60996595Y-61296717D01*
X61212094Y-61512216D01*
X61239032Y-61593028D01*
X61239032Y-61646903D01*
X61212094Y-61727715D01*
X61104345Y-61835465D01*
X61023532Y-61862402D01*
X60969658Y-61862402D01*
X60888845Y-61835465D01*
X60754158Y-61700778D01*
X60727221Y-61619966D01*
X60727221Y-61566091D01*
X60754158Y-61485279D01*
X60861908Y-61377529D01*
X60942720Y-61350592D01*
X60996595Y-61350592D01*
X61077407Y-61377529D01*
X61462218Y-54812096D02*
X61489155Y-54731284D01*
X61569967Y-54650471D01*
X61677717Y-54596597D01*
X61785467Y-54596597D01*
X61866279Y-54623534D01*
X62000966Y-54704346D01*
X62081778Y-54785158D01*
X62162590Y-54919845D01*
X62189528Y-55000658D01*
X62189528Y-55108407D01*
X62135653Y-55216157D01*
X62081778Y-55270032D01*
X61974028Y-55323906D01*
X61920154Y-55323906D01*
X61731592Y-55135345D01*
X61839341Y-55027595D01*
X61731592Y-55620218D02*
X61165906Y-55054532D01*
X60950407Y-55270032D01*
X60923470Y-55350844D01*
X60923470Y-55404719D01*
X60950407Y-55485531D01*
X61031219Y-55566343D01*
X61112032Y-55593280D01*
X61165906Y-55593280D01*
X61246719Y-55566343D01*
X61462218Y-55350844D01*
X60330847Y-55889592D02*
X60600221Y-55620218D01*
X60896532Y-55862654D01*
X60842658Y-55862654D01*
X60761845Y-55889592D01*
X60627158Y-56024279D01*
X60600221Y-56105091D01*
X60600221Y-56158966D01*
X60627158Y-56239778D01*
X60761845Y-56374465D01*
X60842658Y-56401402D01*
X60896532Y-56401402D01*
X60977345Y-56374465D01*
X61112032Y-56239778D01*
X61138969Y-56158966D01*
X61138969Y-56105091D01*
X61589218Y-52399096D02*
X61616155Y-52318284D01*
X61696967Y-52237471D01*
X61804717Y-52183597D01*
X61912467Y-52183597D01*
X61993279Y-52210534D01*
X62127966Y-52291346D01*
X62208778Y-52372158D01*
X62289590Y-52506845D01*
X62316528Y-52587658D01*
X62316528Y-52695407D01*
X62262653Y-52803157D01*
X62208778Y-52857032D01*
X62101028Y-52910906D01*
X62047154Y-52910906D01*
X61858592Y-52722345D01*
X61966341Y-52614595D01*
X61858592Y-53207218D02*
X61292906Y-52641532D01*
X61077407Y-52857032D01*
X61050470Y-52937844D01*
X61050470Y-52991719D01*
X61077407Y-53072531D01*
X61158219Y-53153343D01*
X61239032Y-53180280D01*
X61292906Y-53180280D01*
X61373719Y-53153343D01*
X61589218Y-52937844D01*
X60673346Y-53638216D02*
X61050470Y-54015340D01*
X60592534Y-53288030D02*
X61131282Y-53557404D01*
X60781096Y-53907590D01*
X61589218Y-49732096D02*
X61616155Y-49651284D01*
X61696967Y-49570471D01*
X61804717Y-49516597D01*
X61912467Y-49516597D01*
X61993279Y-49543534D01*
X62127966Y-49624346D01*
X62208778Y-49705158D01*
X62289590Y-49839845D01*
X62316528Y-49920658D01*
X62316528Y-50028407D01*
X62262653Y-50136157D01*
X62208778Y-50190032D01*
X62101028Y-50243906D01*
X62047154Y-50243906D01*
X61858592Y-50055345D01*
X61966341Y-49947595D01*
X61858592Y-50540218D02*
X61292906Y-49974532D01*
X61077407Y-50190032D01*
X61050470Y-50270844D01*
X61050470Y-50324719D01*
X61077407Y-50405531D01*
X61158219Y-50486343D01*
X61239032Y-50513280D01*
X61292906Y-50513280D01*
X61373719Y-50486343D01*
X61589218Y-50270844D01*
X60781096Y-50486343D02*
X60430910Y-50836529D01*
X60834971Y-50863467D01*
X60754158Y-50944279D01*
X60727221Y-51025091D01*
X60727221Y-51078966D01*
X60754158Y-51159778D01*
X60888845Y-51294465D01*
X60969658Y-51321402D01*
X61023532Y-51321402D01*
X61104345Y-51294465D01*
X61265969Y-51132841D01*
X61292906Y-51052028D01*
X61292906Y-50998154D01*
X61716218Y-39953096D02*
X61743155Y-39872284D01*
X61823967Y-39791471D01*
X61931717Y-39737597D01*
X62039467Y-39737597D01*
X62120279Y-39764534D01*
X62254966Y-39845346D01*
X62335778Y-39926158D01*
X62416590Y-40060845D01*
X62443528Y-40141658D01*
X62443528Y-40249407D01*
X62389653Y-40357157D01*
X62335778Y-40411032D01*
X62228028Y-40464906D01*
X62174154Y-40464906D01*
X61985592Y-40276345D01*
X62093341Y-40168595D01*
X61985592Y-40761218D02*
X61419906Y-40195532D01*
X61204407Y-40411032D01*
X61177470Y-40491844D01*
X61177470Y-40545719D01*
X61204407Y-40626531D01*
X61285219Y-40707343D01*
X61366032Y-40734280D01*
X61419906Y-40734280D01*
X61500719Y-40707343D01*
X61716218Y-40491844D01*
X60746471Y-40868967D02*
X60692597Y-40922842D01*
X60665659Y-41003654D01*
X60665659Y-41057529D01*
X60692597Y-41138341D01*
X60773409Y-41273028D01*
X60908096Y-41407715D01*
X61042783Y-41488528D01*
X61123595Y-41515465D01*
X61177470Y-41515465D01*
X61258282Y-41488528D01*
X61312157Y-41434653D01*
X61339094Y-41353841D01*
X61339094Y-41299966D01*
X61312157Y-41219154D01*
X61231345Y-41084467D01*
X61096658Y-40949780D01*
X60961971Y-40868967D01*
X60881158Y-40842030D01*
X60827284Y-40842030D01*
X60746471Y-40868967D01*
X61589218Y-47446096D02*
X61616155Y-47365284D01*
X61696967Y-47284471D01*
X61804717Y-47230597D01*
X61912467Y-47230597D01*
X61993279Y-47257534D01*
X62127966Y-47338346D01*
X62208778Y-47419158D01*
X62289590Y-47553845D01*
X62316528Y-47634658D01*
X62316528Y-47742407D01*
X62262653Y-47850157D01*
X62208778Y-47904032D01*
X62101028Y-47957906D01*
X62047154Y-47957906D01*
X61858592Y-47769345D01*
X61966341Y-47661595D01*
X61858592Y-48254218D02*
X61292906Y-47688532D01*
X61077407Y-47904032D01*
X61050470Y-47984844D01*
X61050470Y-48038719D01*
X61077407Y-48119531D01*
X61158219Y-48200343D01*
X61239032Y-48227280D01*
X61292906Y-48227280D01*
X61373719Y-48200343D01*
X61589218Y-47984844D01*
X60808033Y-48281155D02*
X60754158Y-48281155D01*
X60673346Y-48308093D01*
X60538659Y-48442780D01*
X60511722Y-48523592D01*
X60511722Y-48577467D01*
X60538659Y-48658279D01*
X60592534Y-48712154D01*
X60700284Y-48766028D01*
X61346781Y-48766028D01*
X60996595Y-49116215D01*
X61462218Y-42483096D02*
X61489155Y-42402284D01*
X61569967Y-42321471D01*
X61677717Y-42267597D01*
X61785467Y-42267597D01*
X61866279Y-42294534D01*
X62000966Y-42375346D01*
X62081778Y-42456158D01*
X62162590Y-42590845D01*
X62189528Y-42671658D01*
X62189528Y-42779407D01*
X62135653Y-42887157D01*
X62081778Y-42941032D01*
X61974028Y-42994906D01*
X61920154Y-42994906D01*
X61731592Y-42806345D01*
X61839341Y-42698595D01*
X61731592Y-43291218D02*
X61165906Y-42725532D01*
X60950407Y-42941032D01*
X60923470Y-43021844D01*
X60923470Y-43075719D01*
X60950407Y-43156531D01*
X61031219Y-43237343D01*
X61112032Y-43264280D01*
X61165906Y-43264280D01*
X61246719Y-43237343D01*
X61462218Y-43021844D01*
X60869595Y-44153215D02*
X61192844Y-43829966D01*
X61031219Y-43991590D02*
X60465534Y-43425905D01*
X60600221Y-43452842D01*
X60707971Y-43452842D01*
X60788783Y-43425905D01*
M02*
