M48
; DRILL file {KiCad 5.1.9} date Tue May  4 19:13:39 2021
; FORMAT={-:-/ absolute / inch / decimal}
; #@! TF.CreationDate,2021-05-04T19:13:39+02:00
; #@! TF.GenerationSoftware,Kicad,Pcbnew,5.1.9
; #@! TF.FileFunction,Plated,1,2,PTH
FMAT,2
INCH
T1C0.0118
T2C0.0236
T3C0.0300
T4C0.0354
T5C0.0394
T6C0.0402
T7C0.1260
%
G90
G05
T1
X1.87Y-2.36
X3.31Y-3.49
X3.4109Y-3.1161
X3.57Y-3.46
X3.61Y-3.06
X3.62Y-2.4
X3.72Y-2.66
T2
X1.57Y-1.23
X1.57Y-1.3087
X1.74Y-3.34
X1.8Y-2.35
X1.83Y-2.85
X1.93Y-3.3
X1.96Y-2.33
X1.9604Y-2.0311
X1.9678Y-2.8598
X1.9681Y-2.5616
X2.135Y-2.185
X2.99Y-3.76
X3.135Y-3.565
X3.23Y-3.27
X3.27Y-3.025
X3.47Y-3.07
X3.4734Y-3.3361
X3.4736Y-3.4735
X3.4956Y-2.5256
T3
X1.525Y-1.6175
X1.525Y-1.6963
X1.525Y-1.775
X1.525Y-1.8537
X3.3313Y-1.165
X3.41Y-1.165
X3.4887Y-1.165
X3.5675Y-1.165
T4
X2.27Y-1.31
X2.27Y-1.41
X3.08Y-1.17
X3.08Y-1.27
X3.965Y-1.345
X4.065Y-1.345
T5
X1.85Y-1.23
X1.95Y-1.23
X2.05Y-1.23
T6
X1.525Y-2.075
X1.525Y-2.175
X1.525Y-2.275
X1.525Y-2.375
X1.525Y-2.575
X1.525Y-2.675
X1.525Y-2.775
X1.525Y-2.875
X1.525Y-3.075
X1.525Y-3.175
X1.525Y-3.275
X1.525Y-3.375
X2.325Y-1.6
X2.325Y-1.7
X2.325Y-1.8
X2.325Y-1.9
X2.325Y-2.0
X2.325Y-2.1
X2.325Y-2.2
X2.325Y-2.3
X2.325Y-2.4
X2.325Y-2.5
X2.325Y-2.6
X2.325Y-2.7
X2.325Y-2.8
X2.325Y-2.9
X2.325Y-3.0
X2.325Y-3.1
X2.325Y-3.2
X2.325Y-3.3
X2.325Y-3.4
X2.325Y-3.5
X2.575Y-3.4909
X2.675Y-3.4909
X2.775Y-3.4909
X3.025Y-1.6
X3.025Y-1.7
X3.025Y-1.8
X3.025Y-1.9
X3.025Y-2.0
X3.025Y-2.1
X3.025Y-2.2
X3.025Y-2.3
X3.025Y-2.4
X3.025Y-2.5
X3.025Y-2.6
X3.025Y-2.7
X3.025Y-2.8
X3.025Y-2.9
X3.025Y-3.0
X3.025Y-3.1
X3.025Y-3.2
X3.025Y-3.3
X3.025Y-3.4
X3.025Y-3.5
X3.92Y-2.08
X3.92Y-2.18
X3.92Y-2.28
X3.92Y-2.38
X3.92Y-2.58
X3.92Y-2.68
X3.92Y-2.78
X3.92Y-2.88
X3.92Y-3.07
X3.92Y-3.17
X3.92Y-3.27
X3.92Y-3.37
T7
X1.355Y-1.1
X1.36Y-3.795
X4.04Y-1.105
X4.045Y-3.795
T5
G00X3.8269Y-1.6632
M15
G01X3.8269Y-1.6868
M16
G05
G00X3.9568Y-1.49
M15
G01X3.9332Y-1.49
M16
G05
G00X4.0631Y-1.6632
M15
G01X4.0631Y-1.6868
M16
G05
T0
M30
