G04 #@! TF.GenerationSoftware,KiCad,Pcbnew,5.1.9*
G04 #@! TF.CreationDate,2021-05-04T19:13:35+02:00*
G04 #@! TF.ProjectId,12v_FAN_Pico,3132765f-4641-44e5-9f50-69636f2e6b69,rev?*
G04 #@! TF.SameCoordinates,Original*
G04 #@! TF.FileFunction,Copper,L2,Bot*
G04 #@! TF.FilePolarity,Positive*
%FSLAX46Y46*%
G04 Gerber Fmt 4.6, Leading zero omitted, Abs format (unit mm)*
G04 Created by KiCad (PCBNEW 5.1.9) date 2021-05-04 19:13:35*
%MOMM*%
%LPD*%
G01*
G04 APERTURE LIST*
G04 #@! TA.AperFunction,ComponentPad*
%ADD10R,1.800000X1.800000*%
G04 #@! TD*
G04 #@! TA.AperFunction,ComponentPad*
%ADD11O,1.800000X1.800000*%
G04 #@! TD*
G04 #@! TA.AperFunction,ComponentPad*
%ADD12C,5.600000*%
G04 #@! TD*
G04 #@! TA.AperFunction,ComponentPad*
%ADD13O,2.030000X1.730000*%
G04 #@! TD*
G04 #@! TA.AperFunction,ComponentPad*
%ADD14R,2.030000X1.730000*%
G04 #@! TD*
G04 #@! TA.AperFunction,ComponentPad*
%ADD15C,1.200000*%
G04 #@! TD*
G04 #@! TA.AperFunction,ComponentPad*
%ADD16R,1.200000X1.200000*%
G04 #@! TD*
G04 #@! TA.AperFunction,ComponentPad*
%ADD17R,2.000000X2.600000*%
G04 #@! TD*
G04 #@! TA.AperFunction,ComponentPad*
%ADD18R,2.600000X2.000000*%
G04 #@! TD*
G04 #@! TA.AperFunction,ComponentPad*
%ADD19C,1.524000*%
G04 #@! TD*
G04 #@! TA.AperFunction,ComponentPad*
%ADD20R,1.524000X1.524000*%
G04 #@! TD*
G04 #@! TA.AperFunction,ComponentPad*
%ADD21C,2.000000*%
G04 #@! TD*
G04 #@! TA.AperFunction,ComponentPad*
%ADD22R,2.000000X2.000000*%
G04 #@! TD*
G04 #@! TA.AperFunction,ComponentPad*
%ADD23O,1.700000X1.700000*%
G04 #@! TD*
G04 #@! TA.AperFunction,ComponentPad*
%ADD24R,1.700000X1.700000*%
G04 #@! TD*
G04 #@! TA.AperFunction,ViaPad*
%ADD25C,1.000000*%
G04 #@! TD*
G04 #@! TA.AperFunction,ViaPad*
%ADD26C,0.400000*%
G04 #@! TD*
G04 #@! TA.AperFunction,Conductor*
%ADD27C,1.000000*%
G04 #@! TD*
G04 #@! TA.AperFunction,Conductor*
%ADD28C,0.500000*%
G04 #@! TD*
G04 #@! TA.AperFunction,Conductor*
%ADD29C,0.254000*%
G04 #@! TD*
G04 #@! TA.AperFunction,Conductor*
%ADD30C,0.100000*%
G04 #@! TD*
G04 APERTURE END LIST*
D10*
X57658000Y-35814000D03*
D11*
X57658000Y-33274000D03*
X78232000Y-29718000D03*
D10*
X78232000Y-32258000D03*
D11*
X100711000Y-34163000D03*
D10*
X103251000Y-34163000D03*
D12*
X102743000Y-96393000D03*
X34544000Y-96393000D03*
X34417000Y-27940000D03*
X102616000Y-28067000D03*
D13*
X99568000Y-85598000D03*
X99568000Y-83058000D03*
X99568000Y-80518000D03*
D14*
X99568000Y-77978000D03*
D15*
X39878000Y-33242000D03*
D16*
X39878000Y-31242000D03*
D13*
X99568000Y-73152000D03*
X99568000Y-70612000D03*
X99568000Y-68072000D03*
D14*
X99568000Y-65532000D03*
D17*
X103203000Y-42545000D03*
X97203000Y-42545000D03*
D18*
X100203000Y-37845000D03*
D13*
X38735000Y-60325000D03*
X38735000Y-57785000D03*
X38735000Y-55245000D03*
D14*
X38735000Y-52705000D03*
D13*
X38735000Y-85725000D03*
X38735000Y-83185000D03*
X38735000Y-80645000D03*
D14*
X38735000Y-78105000D03*
D19*
X84614000Y-29591000D03*
X86614000Y-29591000D03*
X88614000Y-29591000D03*
D20*
X90614000Y-29591000D03*
D13*
X99568000Y-60452000D03*
X99568000Y-57912000D03*
X99568000Y-55372000D03*
D14*
X99568000Y-52832000D03*
D21*
X52070000Y-31242000D03*
X49530000Y-31242000D03*
D22*
X46990000Y-31242000D03*
D23*
X70485000Y-88670000D03*
D24*
X67945000Y-88670000D03*
D23*
X65405000Y-88670000D03*
X76835000Y-40640000D03*
X76835000Y-43180000D03*
D24*
X76835000Y-45720000D03*
D23*
X76835000Y-48260000D03*
X76835000Y-50800000D03*
X76835000Y-53340000D03*
X76835000Y-55880000D03*
D24*
X76835000Y-58420000D03*
D23*
X76835000Y-60960000D03*
X76835000Y-63500000D03*
X76835000Y-66040000D03*
X76835000Y-68580000D03*
D24*
X76835000Y-71120000D03*
D23*
X76835000Y-73660000D03*
X76835000Y-76200000D03*
X76835000Y-78740000D03*
X76835000Y-81280000D03*
D24*
X76835000Y-83820000D03*
D23*
X76835000Y-86360000D03*
X76835000Y-88900000D03*
X59055000Y-88900000D03*
X59055000Y-86360000D03*
D24*
X59055000Y-83820000D03*
D23*
X59055000Y-81280000D03*
X59055000Y-78740000D03*
X59055000Y-76200000D03*
X59055000Y-73660000D03*
D24*
X59055000Y-71120000D03*
D23*
X59055000Y-68580000D03*
X59055000Y-66040000D03*
X59055000Y-63500000D03*
X59055000Y-60960000D03*
D24*
X59055000Y-58420000D03*
D23*
X59055000Y-55880000D03*
X59055000Y-53340000D03*
X59055000Y-50800000D03*
X59055000Y-48260000D03*
D24*
X59055000Y-45720000D03*
D23*
X59055000Y-43180000D03*
X59055000Y-40640000D03*
D13*
X38735000Y-73025000D03*
X38735000Y-70485000D03*
X38735000Y-67945000D03*
D14*
X38735000Y-65405000D03*
D19*
X38735000Y-47085000D03*
X38735000Y-45085000D03*
X38735000Y-43085000D03*
D20*
X38735000Y-41085000D03*
D25*
X46482000Y-72390000D03*
X49983328Y-72639111D03*
X49794436Y-51588949D03*
X75946000Y-95504000D03*
X83058000Y-76835000D03*
X79629000Y-90551000D03*
X82042000Y-83058000D03*
X54229000Y-55499000D03*
X49989098Y-65065833D03*
X88224403Y-84737235D03*
D26*
X86637020Y-79149555D03*
X84074000Y-88646000D03*
X90678000Y-87884000D03*
X91948000Y-60960000D03*
X47498000Y-59944000D03*
X91694000Y-77724000D03*
X94488000Y-67564000D03*
D25*
X88228595Y-88226851D03*
X88138000Y-77978000D03*
X88788869Y-64150251D03*
X49022000Y-83820000D03*
X49784000Y-59182000D03*
X45720000Y-59690000D03*
X44196000Y-84836000D03*
D27*
X85344000Y-76200000D02*
X85344000Y-86106000D01*
X85344000Y-62992000D02*
X85344000Y-67564000D01*
X85344000Y-67564000D02*
X85344000Y-75438000D01*
X85344000Y-75438000D02*
X85344000Y-76200000D01*
X85344000Y-62230000D02*
X85344000Y-62992000D01*
X83566000Y-60452000D02*
X85344000Y-62230000D01*
X83566000Y-45974000D02*
X83566000Y-60452000D01*
X52356000Y-47085000D02*
X52578000Y-46863000D01*
X38735000Y-47085000D02*
X52356000Y-47085000D01*
X52578000Y-46863000D02*
X52578000Y-53340000D01*
X83566000Y-30639000D02*
X84614000Y-29591000D01*
X83566000Y-45974000D02*
X83566000Y-30639000D01*
X51054000Y-59182000D02*
X52578000Y-57658000D01*
X49784000Y-59182000D02*
X51054000Y-59182000D01*
X52578000Y-57658000D02*
X52578000Y-65913000D01*
X52578000Y-53340000D02*
X52578000Y-57658000D01*
X51058889Y-72639111D02*
X52578000Y-71120000D01*
X49983328Y-72639111D02*
X51058889Y-72639111D01*
X52578000Y-65913000D02*
X52578000Y-71120000D01*
X50038000Y-83820000D02*
X49022000Y-83820000D01*
X52578000Y-81280000D02*
X50038000Y-83820000D01*
X52578000Y-71120000D02*
X52578000Y-81280000D01*
X85344000Y-62230000D02*
X86868000Y-63754000D01*
X87264251Y-64150251D02*
X86868000Y-63754000D01*
X88788869Y-64150251D02*
X87264251Y-64150251D01*
X87122000Y-77978000D02*
X85344000Y-76200000D01*
X88138000Y-77978000D02*
X87122000Y-77978000D01*
X85344000Y-86106000D02*
X85344000Y-87122000D01*
X86448851Y-88226851D02*
X85344000Y-87122000D01*
X88228595Y-88226851D02*
X86448851Y-88226851D01*
X52578000Y-40894000D02*
X52578000Y-46863000D01*
X63754000Y-29718000D02*
X52578000Y-40894000D01*
X78232000Y-29718000D02*
X63754000Y-29718000D01*
X84487000Y-29718000D02*
X84614000Y-29591000D01*
X83471000Y-30639000D02*
X82550000Y-29718000D01*
X83566000Y-30639000D02*
X83471000Y-30639000D01*
X82550000Y-29718000D02*
X84487000Y-29718000D01*
X78232000Y-29718000D02*
X82550000Y-29718000D01*
D28*
X58865000Y-40450000D02*
X59055000Y-40640000D01*
D27*
X45085000Y-60325000D02*
X45720000Y-59690000D01*
X38735000Y-60325000D02*
X45085000Y-60325000D01*
X45847000Y-73025000D02*
X46482000Y-72390000D01*
X38735000Y-73025000D02*
X45847000Y-73025000D01*
X43307000Y-85725000D02*
X44196000Y-84836000D01*
X38735000Y-85725000D02*
X43307000Y-85725000D01*
X76835000Y-43180000D02*
X75184000Y-43180000D01*
X75184000Y-43180000D02*
X74168000Y-42164000D01*
X74168000Y-36322000D02*
X78232000Y-32258000D01*
X74168000Y-42164000D02*
X74168000Y-36322000D01*
D29*
X101302994Y-24874870D02*
X100705470Y-25192361D01*
X100691308Y-25201823D01*
X100379124Y-25650519D01*
X102616000Y-27887395D01*
X102630143Y-27873253D01*
X102809748Y-28052858D01*
X102795605Y-28067000D01*
X105032481Y-30303876D01*
X105481177Y-29991692D01*
X105801612Y-29395741D01*
X105999626Y-28748727D01*
X106020076Y-28546224D01*
X106028318Y-95389943D01*
X105935130Y-95079994D01*
X105617639Y-94482470D01*
X105608177Y-94468308D01*
X105159481Y-94156124D01*
X102922605Y-96393000D01*
X102936748Y-96407143D01*
X102757143Y-96586748D01*
X102743000Y-96572605D01*
X100506124Y-98809481D01*
X100818308Y-99258177D01*
X101414259Y-99578612D01*
X101712868Y-99669999D01*
X35574719Y-99670001D01*
X35857006Y-99585130D01*
X36454530Y-99267639D01*
X36468692Y-99258177D01*
X36780876Y-98809481D01*
X34544000Y-96572605D01*
X34529858Y-96586748D01*
X34350253Y-96407143D01*
X34364395Y-96393000D01*
X34723605Y-96393000D01*
X36960481Y-98629876D01*
X37409177Y-98317692D01*
X37729612Y-97721741D01*
X37927626Y-97074727D01*
X37995610Y-96401516D01*
X37993975Y-96384484D01*
X99291390Y-96384484D01*
X99356051Y-97058023D01*
X99550870Y-97706006D01*
X99868361Y-98303530D01*
X99877823Y-98317692D01*
X100326519Y-98629876D01*
X102563395Y-96393000D01*
X100326519Y-94156124D01*
X99877823Y-94468308D01*
X99557388Y-95064259D01*
X99359374Y-95711273D01*
X99291390Y-96384484D01*
X37993975Y-96384484D01*
X37930949Y-95727977D01*
X37736130Y-95079994D01*
X37418639Y-94482470D01*
X37409177Y-94468308D01*
X36960481Y-94156124D01*
X34723605Y-96393000D01*
X34364395Y-96393000D01*
X32127519Y-94156124D01*
X31678823Y-94468308D01*
X31358388Y-95064259D01*
X31160374Y-95711273D01*
X31140074Y-95912293D01*
X31140313Y-93976519D01*
X32307124Y-93976519D01*
X34544000Y-96213395D01*
X36780876Y-93976519D01*
X100506124Y-93976519D01*
X102743000Y-96213395D01*
X104979876Y-93976519D01*
X104667692Y-93527823D01*
X104071741Y-93207388D01*
X103424727Y-93009374D01*
X102751516Y-92941390D01*
X102077977Y-93006051D01*
X101429994Y-93200870D01*
X100832470Y-93518361D01*
X100818308Y-93527823D01*
X100506124Y-93976519D01*
X36780876Y-93976519D01*
X36468692Y-93527823D01*
X35872741Y-93207388D01*
X35225727Y-93009374D01*
X34552516Y-92941390D01*
X33878977Y-93006051D01*
X33230994Y-93200870D01*
X32633470Y-93518361D01*
X32619308Y-93527823D01*
X32307124Y-93976519D01*
X31140313Y-93976519D01*
X31141959Y-80645000D01*
X37077743Y-80645000D01*
X37106705Y-80939051D01*
X37192476Y-81221802D01*
X37331762Y-81482387D01*
X37519208Y-81710792D01*
X37747613Y-81898238D01*
X37778972Y-81915000D01*
X37747613Y-81931762D01*
X37519208Y-82119208D01*
X37331762Y-82347613D01*
X37192476Y-82608198D01*
X37106705Y-82890949D01*
X37077743Y-83185000D01*
X37106705Y-83479051D01*
X37192476Y-83761802D01*
X37331762Y-84022387D01*
X37519208Y-84250792D01*
X37747613Y-84438238D01*
X37778972Y-84455000D01*
X37747613Y-84471762D01*
X37519208Y-84659208D01*
X37331762Y-84887613D01*
X37192476Y-85148198D01*
X37106705Y-85430949D01*
X37077743Y-85725000D01*
X37106705Y-86019051D01*
X37192476Y-86301802D01*
X37331762Y-86562387D01*
X37519208Y-86790792D01*
X37747613Y-86978238D01*
X38008198Y-87117524D01*
X38290949Y-87203295D01*
X38511320Y-87225000D01*
X38958680Y-87225000D01*
X39179051Y-87203295D01*
X39461802Y-87117524D01*
X39722387Y-86978238D01*
X39866461Y-86860000D01*
X43251249Y-86860000D01*
X43307000Y-86865491D01*
X43362751Y-86860000D01*
X43362752Y-86860000D01*
X43529499Y-86843577D01*
X43743447Y-86778676D01*
X43940623Y-86673284D01*
X44113449Y-86531449D01*
X44148995Y-86488136D01*
X45037988Y-85599144D01*
X45077612Y-85559520D01*
X45108742Y-85512930D01*
X45144284Y-85469623D01*
X45170693Y-85420214D01*
X45201824Y-85373624D01*
X45223269Y-85321851D01*
X45249676Y-85272447D01*
X45265937Y-85218842D01*
X45287383Y-85167067D01*
X45298315Y-85112106D01*
X45314577Y-85058499D01*
X45320068Y-85002747D01*
X45331000Y-84947788D01*
X45331000Y-84891752D01*
X45336491Y-84836000D01*
X45331000Y-84780248D01*
X45331000Y-84724212D01*
X45320068Y-84669253D01*
X45314577Y-84613501D01*
X45298315Y-84559895D01*
X45287383Y-84504933D01*
X45265936Y-84453156D01*
X45249676Y-84399554D01*
X45223271Y-84350153D01*
X45201824Y-84298376D01*
X45170691Y-84251782D01*
X45144284Y-84202378D01*
X45108744Y-84159072D01*
X45077612Y-84112480D01*
X45037990Y-84072858D01*
X45002449Y-84029551D01*
X44959142Y-83994010D01*
X44919520Y-83954388D01*
X44872928Y-83923256D01*
X44829622Y-83887716D01*
X44780218Y-83861309D01*
X44733624Y-83830176D01*
X44681847Y-83808729D01*
X44632446Y-83782324D01*
X44578844Y-83766064D01*
X44527067Y-83744617D01*
X44472105Y-83733685D01*
X44418499Y-83717423D01*
X44362747Y-83711932D01*
X44307788Y-83701000D01*
X44251752Y-83701000D01*
X44196000Y-83695509D01*
X44140248Y-83701000D01*
X44084212Y-83701000D01*
X44029253Y-83711932D01*
X43973501Y-83717423D01*
X43919894Y-83733685D01*
X43864933Y-83744617D01*
X43813158Y-83766063D01*
X43759553Y-83782324D01*
X43710149Y-83808731D01*
X43658376Y-83830176D01*
X43611786Y-83861307D01*
X43562377Y-83887716D01*
X43519070Y-83923258D01*
X43472480Y-83954388D01*
X43432856Y-83994012D01*
X42836869Y-84590000D01*
X39866461Y-84590000D01*
X39722387Y-84471762D01*
X39691028Y-84455000D01*
X39722387Y-84438238D01*
X39950792Y-84250792D01*
X40101414Y-84067258D01*
X40139606Y-84105450D01*
X40333692Y-84235134D01*
X40549348Y-84324461D01*
X40778288Y-84370000D01*
X41011712Y-84370000D01*
X41240652Y-84324461D01*
X41456308Y-84235134D01*
X41650394Y-84105450D01*
X41815450Y-83940394D01*
X41945134Y-83746308D01*
X42034461Y-83530652D01*
X42080000Y-83301712D01*
X42080000Y-83068288D01*
X42034461Y-82839348D01*
X41945134Y-82623692D01*
X41815450Y-82429606D01*
X41650394Y-82264550D01*
X41456308Y-82134866D01*
X41240652Y-82045539D01*
X41011712Y-82000000D01*
X40778288Y-82000000D01*
X40549348Y-82045539D01*
X40333692Y-82134866D01*
X40139606Y-82264550D01*
X40101414Y-82302742D01*
X39950792Y-82119208D01*
X39722387Y-81931762D01*
X39691028Y-81915000D01*
X39722387Y-81898238D01*
X39950792Y-81710792D01*
X40138238Y-81482387D01*
X40277524Y-81221802D01*
X40363295Y-80939051D01*
X40392257Y-80645000D01*
X40363295Y-80350949D01*
X40277524Y-80068198D01*
X40138238Y-79807613D01*
X39950792Y-79579208D01*
X39944970Y-79574430D01*
X39994180Y-79559502D01*
X40104494Y-79500537D01*
X40201185Y-79421185D01*
X40280537Y-79324494D01*
X40339502Y-79214180D01*
X40375812Y-79094482D01*
X40388072Y-78970000D01*
X40385000Y-78390750D01*
X40226250Y-78232000D01*
X38862000Y-78232000D01*
X38862000Y-78252000D01*
X38608000Y-78252000D01*
X38608000Y-78232000D01*
X37243750Y-78232000D01*
X37085000Y-78390750D01*
X37081928Y-78970000D01*
X37094188Y-79094482D01*
X37130498Y-79214180D01*
X37189463Y-79324494D01*
X37268815Y-79421185D01*
X37365506Y-79500537D01*
X37475820Y-79559502D01*
X37525030Y-79574430D01*
X37519208Y-79579208D01*
X37331762Y-79807613D01*
X37192476Y-80068198D01*
X37106705Y-80350949D01*
X37077743Y-80645000D01*
X31141959Y-80645000D01*
X31142379Y-77240000D01*
X37081928Y-77240000D01*
X37085000Y-77819250D01*
X37243750Y-77978000D01*
X38608000Y-77978000D01*
X38608000Y-76763750D01*
X38862000Y-76763750D01*
X38862000Y-77978000D01*
X40226250Y-77978000D01*
X40385000Y-77819250D01*
X40388072Y-77240000D01*
X40375812Y-77115518D01*
X40339502Y-76995820D01*
X40280537Y-76885506D01*
X40201185Y-76788815D01*
X40104494Y-76709463D01*
X39994180Y-76650498D01*
X39874482Y-76614188D01*
X39750000Y-76601928D01*
X39020750Y-76605000D01*
X38862000Y-76763750D01*
X38608000Y-76763750D01*
X38449250Y-76605000D01*
X37720000Y-76601928D01*
X37595518Y-76614188D01*
X37475820Y-76650498D01*
X37365506Y-76709463D01*
X37268815Y-76788815D01*
X37189463Y-76885506D01*
X37130498Y-76995820D01*
X37094188Y-77115518D01*
X37081928Y-77240000D01*
X31142379Y-77240000D01*
X31143527Y-67945000D01*
X37077743Y-67945000D01*
X37106705Y-68239051D01*
X37192476Y-68521802D01*
X37331762Y-68782387D01*
X37519208Y-69010792D01*
X37747613Y-69198238D01*
X37778972Y-69215000D01*
X37747613Y-69231762D01*
X37519208Y-69419208D01*
X37331762Y-69647613D01*
X37192476Y-69908198D01*
X37106705Y-70190949D01*
X37077743Y-70485000D01*
X37106705Y-70779051D01*
X37192476Y-71061802D01*
X37331762Y-71322387D01*
X37519208Y-71550792D01*
X37747613Y-71738238D01*
X37778972Y-71755000D01*
X37747613Y-71771762D01*
X37519208Y-71959208D01*
X37331762Y-72187613D01*
X37192476Y-72448198D01*
X37106705Y-72730949D01*
X37077743Y-73025000D01*
X37106705Y-73319051D01*
X37192476Y-73601802D01*
X37331762Y-73862387D01*
X37519208Y-74090792D01*
X37747613Y-74278238D01*
X38008198Y-74417524D01*
X38290949Y-74503295D01*
X38511320Y-74525000D01*
X38958680Y-74525000D01*
X39179051Y-74503295D01*
X39461802Y-74417524D01*
X39722387Y-74278238D01*
X39866461Y-74160000D01*
X45791249Y-74160000D01*
X45847000Y-74165491D01*
X45902751Y-74160000D01*
X45902752Y-74160000D01*
X46069499Y-74143577D01*
X46283447Y-74078676D01*
X46480623Y-73973284D01*
X46653449Y-73831449D01*
X46688995Y-73788136D01*
X47323989Y-73153143D01*
X47363612Y-73113520D01*
X47394742Y-73066931D01*
X47430284Y-73023623D01*
X47456693Y-72974214D01*
X47487824Y-72927624D01*
X47509269Y-72875851D01*
X47535676Y-72826447D01*
X47551937Y-72772842D01*
X47573383Y-72721067D01*
X47584315Y-72666106D01*
X47600577Y-72612499D01*
X47606068Y-72556747D01*
X47617000Y-72501788D01*
X47617000Y-72445752D01*
X47622491Y-72390000D01*
X47617000Y-72334248D01*
X47617000Y-72278212D01*
X47606068Y-72223253D01*
X47600577Y-72167501D01*
X47584315Y-72113894D01*
X47573383Y-72058933D01*
X47551937Y-72007158D01*
X47535676Y-71953553D01*
X47509269Y-71904149D01*
X47487824Y-71852376D01*
X47456693Y-71805786D01*
X47430284Y-71756377D01*
X47394741Y-71713068D01*
X47363612Y-71666480D01*
X47323991Y-71626859D01*
X47288449Y-71583551D01*
X47245141Y-71548009D01*
X47205520Y-71508388D01*
X47158932Y-71477259D01*
X47115623Y-71441716D01*
X47066214Y-71415307D01*
X47019624Y-71384176D01*
X46967851Y-71362731D01*
X46918447Y-71336324D01*
X46864842Y-71320063D01*
X46813067Y-71298617D01*
X46758106Y-71287685D01*
X46704499Y-71271423D01*
X46648747Y-71265932D01*
X46593788Y-71255000D01*
X46537752Y-71255000D01*
X46482000Y-71249509D01*
X46426248Y-71255000D01*
X46370212Y-71255000D01*
X46315253Y-71265932D01*
X46259501Y-71271423D01*
X46205894Y-71287685D01*
X46150933Y-71298617D01*
X46099158Y-71320063D01*
X46045553Y-71336324D01*
X45996149Y-71362731D01*
X45944376Y-71384176D01*
X45897786Y-71415307D01*
X45848377Y-71441716D01*
X45805069Y-71477258D01*
X45758480Y-71508388D01*
X45376868Y-71890000D01*
X39866461Y-71890000D01*
X39722387Y-71771762D01*
X39691028Y-71755000D01*
X39722387Y-71738238D01*
X39950792Y-71550792D01*
X40101414Y-71367258D01*
X40139606Y-71405450D01*
X40333692Y-71535134D01*
X40549348Y-71624461D01*
X40778288Y-71670000D01*
X41011712Y-71670000D01*
X41240652Y-71624461D01*
X41456308Y-71535134D01*
X41650394Y-71405450D01*
X41815450Y-71240394D01*
X41945134Y-71046308D01*
X42034461Y-70830652D01*
X42080000Y-70601712D01*
X42080000Y-70368288D01*
X42034461Y-70139348D01*
X41945134Y-69923692D01*
X41815450Y-69729606D01*
X41650394Y-69564550D01*
X41456308Y-69434866D01*
X41240652Y-69345539D01*
X41011712Y-69300000D01*
X40778288Y-69300000D01*
X40549348Y-69345539D01*
X40333692Y-69434866D01*
X40139606Y-69564550D01*
X40101414Y-69602742D01*
X39950792Y-69419208D01*
X39722387Y-69231762D01*
X39691028Y-69215000D01*
X39722387Y-69198238D01*
X39950792Y-69010792D01*
X40138238Y-68782387D01*
X40277524Y-68521802D01*
X40363295Y-68239051D01*
X40392257Y-67945000D01*
X40363295Y-67650949D01*
X40277524Y-67368198D01*
X40138238Y-67107613D01*
X39950792Y-66879208D01*
X39944970Y-66874430D01*
X39994180Y-66859502D01*
X40104494Y-66800537D01*
X40201185Y-66721185D01*
X40280537Y-66624494D01*
X40339502Y-66514180D01*
X40375812Y-66394482D01*
X40388072Y-66270000D01*
X40385000Y-65690750D01*
X40226250Y-65532000D01*
X38862000Y-65532000D01*
X38862000Y-65552000D01*
X38608000Y-65552000D01*
X38608000Y-65532000D01*
X37243750Y-65532000D01*
X37085000Y-65690750D01*
X37081928Y-66270000D01*
X37094188Y-66394482D01*
X37130498Y-66514180D01*
X37189463Y-66624494D01*
X37268815Y-66721185D01*
X37365506Y-66800537D01*
X37475820Y-66859502D01*
X37525030Y-66874430D01*
X37519208Y-66879208D01*
X37331762Y-67107613D01*
X37192476Y-67368198D01*
X37106705Y-67650949D01*
X37077743Y-67945000D01*
X31143527Y-67945000D01*
X31143947Y-64540000D01*
X37081928Y-64540000D01*
X37085000Y-65119250D01*
X37243750Y-65278000D01*
X38608000Y-65278000D01*
X38608000Y-64063750D01*
X38862000Y-64063750D01*
X38862000Y-65278000D01*
X40226250Y-65278000D01*
X40385000Y-65119250D01*
X40388072Y-64540000D01*
X40375812Y-64415518D01*
X40339502Y-64295820D01*
X40280537Y-64185506D01*
X40201185Y-64088815D01*
X40104494Y-64009463D01*
X39994180Y-63950498D01*
X39874482Y-63914188D01*
X39750000Y-63901928D01*
X39020750Y-63905000D01*
X38862000Y-64063750D01*
X38608000Y-64063750D01*
X38449250Y-63905000D01*
X37720000Y-63901928D01*
X37595518Y-63914188D01*
X37475820Y-63950498D01*
X37365506Y-64009463D01*
X37268815Y-64088815D01*
X37189463Y-64185506D01*
X37130498Y-64295820D01*
X37094188Y-64415518D01*
X37081928Y-64540000D01*
X31143947Y-64540000D01*
X31145096Y-55245000D01*
X37077743Y-55245000D01*
X37106705Y-55539051D01*
X37192476Y-55821802D01*
X37331762Y-56082387D01*
X37519208Y-56310792D01*
X37747613Y-56498238D01*
X37778972Y-56515000D01*
X37747613Y-56531762D01*
X37519208Y-56719208D01*
X37331762Y-56947613D01*
X37192476Y-57208198D01*
X37106705Y-57490949D01*
X37077743Y-57785000D01*
X37106705Y-58079051D01*
X37192476Y-58361802D01*
X37331762Y-58622387D01*
X37519208Y-58850792D01*
X37747613Y-59038238D01*
X37778972Y-59055000D01*
X37747613Y-59071762D01*
X37519208Y-59259208D01*
X37331762Y-59487613D01*
X37192476Y-59748198D01*
X37106705Y-60030949D01*
X37077743Y-60325000D01*
X37106705Y-60619051D01*
X37192476Y-60901802D01*
X37331762Y-61162387D01*
X37519208Y-61390792D01*
X37747613Y-61578238D01*
X38008198Y-61717524D01*
X38290949Y-61803295D01*
X38511320Y-61825000D01*
X38958680Y-61825000D01*
X39179051Y-61803295D01*
X39461802Y-61717524D01*
X39722387Y-61578238D01*
X39866461Y-61460000D01*
X45029249Y-61460000D01*
X45085000Y-61465491D01*
X45140751Y-61460000D01*
X45140752Y-61460000D01*
X45307499Y-61443577D01*
X45521447Y-61378676D01*
X45718623Y-61273284D01*
X45891449Y-61131449D01*
X45926995Y-61088136D01*
X46561989Y-60453143D01*
X46601612Y-60413520D01*
X46632742Y-60366931D01*
X46668284Y-60323623D01*
X46694693Y-60274214D01*
X46725824Y-60227624D01*
X46747269Y-60175851D01*
X46773676Y-60126447D01*
X46789937Y-60072842D01*
X46811383Y-60021067D01*
X46822315Y-59966106D01*
X46838577Y-59912499D01*
X46844068Y-59856747D01*
X46855000Y-59801788D01*
X46855000Y-59745752D01*
X46860491Y-59690000D01*
X46855000Y-59634248D01*
X46855000Y-59578212D01*
X46844068Y-59523253D01*
X46838577Y-59467501D01*
X46822315Y-59413894D01*
X46811383Y-59358933D01*
X46789937Y-59307158D01*
X46773676Y-59253553D01*
X46747269Y-59204149D01*
X46725824Y-59152376D01*
X46694693Y-59105786D01*
X46668284Y-59056377D01*
X46632741Y-59013068D01*
X46601612Y-58966480D01*
X46561991Y-58926859D01*
X46526449Y-58883551D01*
X46483141Y-58848009D01*
X46443520Y-58808388D01*
X46396932Y-58777259D01*
X46353623Y-58741716D01*
X46304214Y-58715307D01*
X46257624Y-58684176D01*
X46205851Y-58662731D01*
X46156447Y-58636324D01*
X46102842Y-58620063D01*
X46051067Y-58598617D01*
X45996106Y-58587685D01*
X45942499Y-58571423D01*
X45886747Y-58565932D01*
X45831788Y-58555000D01*
X45775752Y-58555000D01*
X45720000Y-58549509D01*
X45664248Y-58555000D01*
X45608212Y-58555000D01*
X45553253Y-58565932D01*
X45497501Y-58571423D01*
X45443894Y-58587685D01*
X45388933Y-58598617D01*
X45337158Y-58620063D01*
X45283553Y-58636324D01*
X45234149Y-58662731D01*
X45182376Y-58684176D01*
X45135786Y-58715307D01*
X45086377Y-58741716D01*
X45043069Y-58777258D01*
X44996480Y-58808388D01*
X44614868Y-59190000D01*
X39866461Y-59190000D01*
X39722387Y-59071762D01*
X39691028Y-59055000D01*
X39722387Y-59038238D01*
X39950792Y-58850792D01*
X40101414Y-58667258D01*
X40139606Y-58705450D01*
X40333692Y-58835134D01*
X40549348Y-58924461D01*
X40778288Y-58970000D01*
X41011712Y-58970000D01*
X41240652Y-58924461D01*
X41456308Y-58835134D01*
X41650394Y-58705450D01*
X41815450Y-58540394D01*
X41945134Y-58346308D01*
X42034461Y-58130652D01*
X42080000Y-57901712D01*
X42080000Y-57668288D01*
X42034461Y-57439348D01*
X41945134Y-57223692D01*
X41815450Y-57029606D01*
X41650394Y-56864550D01*
X41456308Y-56734866D01*
X41240652Y-56645539D01*
X41011712Y-56600000D01*
X40778288Y-56600000D01*
X40549348Y-56645539D01*
X40333692Y-56734866D01*
X40139606Y-56864550D01*
X40101414Y-56902742D01*
X39950792Y-56719208D01*
X39722387Y-56531762D01*
X39691028Y-56515000D01*
X39722387Y-56498238D01*
X39950792Y-56310792D01*
X40138238Y-56082387D01*
X40277524Y-55821802D01*
X40363295Y-55539051D01*
X40392257Y-55245000D01*
X40363295Y-54950949D01*
X40277524Y-54668198D01*
X40138238Y-54407613D01*
X39950792Y-54179208D01*
X39944970Y-54174430D01*
X39994180Y-54159502D01*
X40104494Y-54100537D01*
X40201185Y-54021185D01*
X40280537Y-53924494D01*
X40339502Y-53814180D01*
X40375812Y-53694482D01*
X40388072Y-53570000D01*
X40385000Y-52990750D01*
X40226250Y-52832000D01*
X38862000Y-52832000D01*
X38862000Y-52852000D01*
X38608000Y-52852000D01*
X38608000Y-52832000D01*
X37243750Y-52832000D01*
X37085000Y-52990750D01*
X37081928Y-53570000D01*
X37094188Y-53694482D01*
X37130498Y-53814180D01*
X37189463Y-53924494D01*
X37268815Y-54021185D01*
X37365506Y-54100537D01*
X37475820Y-54159502D01*
X37525030Y-54174430D01*
X37519208Y-54179208D01*
X37331762Y-54407613D01*
X37192476Y-54668198D01*
X37106705Y-54950949D01*
X37077743Y-55245000D01*
X31145096Y-55245000D01*
X31145516Y-51840000D01*
X37081928Y-51840000D01*
X37085000Y-52419250D01*
X37243750Y-52578000D01*
X38608000Y-52578000D01*
X38608000Y-51363750D01*
X38862000Y-51363750D01*
X38862000Y-52578000D01*
X40226250Y-52578000D01*
X40385000Y-52419250D01*
X40388072Y-51840000D01*
X40375812Y-51715518D01*
X40339502Y-51595820D01*
X40280537Y-51485506D01*
X40201185Y-51388815D01*
X40104494Y-51309463D01*
X39994180Y-51250498D01*
X39874482Y-51214188D01*
X39750000Y-51201928D01*
X39020750Y-51205000D01*
X38862000Y-51363750D01*
X38608000Y-51363750D01*
X38449250Y-51205000D01*
X37720000Y-51201928D01*
X37595518Y-51214188D01*
X37475820Y-51250498D01*
X37365506Y-51309463D01*
X37268815Y-51388815D01*
X37189463Y-51485506D01*
X37130498Y-51595820D01*
X37094188Y-51715518D01*
X37081928Y-51840000D01*
X31145516Y-51840000D01*
X31146119Y-46947408D01*
X37338000Y-46947408D01*
X37338000Y-47222592D01*
X37391686Y-47492490D01*
X37496995Y-47746727D01*
X37649880Y-47975535D01*
X37844465Y-48170120D01*
X38073273Y-48323005D01*
X38327510Y-48428314D01*
X38597408Y-48482000D01*
X38872592Y-48482000D01*
X39142490Y-48428314D01*
X39396727Y-48323005D01*
X39550884Y-48220000D01*
X51443000Y-48220000D01*
X51443001Y-53284239D01*
X51443000Y-53284249D01*
X51443001Y-57187867D01*
X50583869Y-58047000D01*
X49672212Y-58047000D01*
X49617253Y-58057932D01*
X49561501Y-58063423D01*
X49507894Y-58079685D01*
X49452933Y-58090617D01*
X49401158Y-58112063D01*
X49347553Y-58128324D01*
X49298149Y-58154731D01*
X49246376Y-58176176D01*
X49199786Y-58207307D01*
X49150377Y-58233716D01*
X49107068Y-58269259D01*
X49060480Y-58300388D01*
X49020859Y-58340009D01*
X48977551Y-58375551D01*
X48942011Y-58418857D01*
X48902388Y-58458480D01*
X48871259Y-58505068D01*
X48835716Y-58548377D01*
X48809307Y-58597786D01*
X48778176Y-58644376D01*
X48756731Y-58696149D01*
X48730324Y-58745553D01*
X48714063Y-58799158D01*
X48692617Y-58850933D01*
X48681685Y-58905894D01*
X48665423Y-58959501D01*
X48659932Y-59015253D01*
X48649000Y-59070212D01*
X48649000Y-59126248D01*
X48643509Y-59182000D01*
X48649000Y-59237752D01*
X48649000Y-59293788D01*
X48659932Y-59348747D01*
X48665423Y-59404499D01*
X48681685Y-59458106D01*
X48692617Y-59513067D01*
X48714063Y-59564842D01*
X48730324Y-59618447D01*
X48756731Y-59667851D01*
X48778176Y-59719624D01*
X48809307Y-59766214D01*
X48835716Y-59815623D01*
X48871259Y-59858932D01*
X48902388Y-59905520D01*
X48942009Y-59945141D01*
X48977551Y-59988449D01*
X49020859Y-60023991D01*
X49060480Y-60063612D01*
X49107068Y-60094741D01*
X49150377Y-60130284D01*
X49199786Y-60156693D01*
X49246376Y-60187824D01*
X49298149Y-60209269D01*
X49347553Y-60235676D01*
X49401158Y-60251937D01*
X49452933Y-60273383D01*
X49507894Y-60284315D01*
X49561501Y-60300577D01*
X49617253Y-60306068D01*
X49672212Y-60317000D01*
X50998249Y-60317000D01*
X51054000Y-60322491D01*
X51109751Y-60317000D01*
X51109752Y-60317000D01*
X51276499Y-60300577D01*
X51443000Y-60250069D01*
X51443001Y-65857239D01*
X51443000Y-65857249D01*
X51443001Y-70649867D01*
X50588758Y-71504111D01*
X49871540Y-71504111D01*
X49816581Y-71515043D01*
X49760829Y-71520534D01*
X49707222Y-71536796D01*
X49652261Y-71547728D01*
X49600486Y-71569174D01*
X49546881Y-71585435D01*
X49497477Y-71611842D01*
X49445704Y-71633287D01*
X49399114Y-71664418D01*
X49349705Y-71690827D01*
X49306396Y-71726370D01*
X49259808Y-71757499D01*
X49220187Y-71797120D01*
X49176879Y-71832662D01*
X49141339Y-71875968D01*
X49101716Y-71915591D01*
X49070587Y-71962179D01*
X49035044Y-72005488D01*
X49008635Y-72054897D01*
X48977504Y-72101487D01*
X48956059Y-72153260D01*
X48929652Y-72202664D01*
X48913391Y-72256269D01*
X48891945Y-72308044D01*
X48881013Y-72363005D01*
X48864751Y-72416612D01*
X48859260Y-72472364D01*
X48848328Y-72527323D01*
X48848328Y-72583359D01*
X48842837Y-72639111D01*
X48848328Y-72694863D01*
X48848328Y-72750899D01*
X48859260Y-72805858D01*
X48864751Y-72861610D01*
X48881013Y-72915217D01*
X48891945Y-72970178D01*
X48913391Y-73021953D01*
X48929652Y-73075558D01*
X48956059Y-73124962D01*
X48977504Y-73176735D01*
X49008635Y-73223325D01*
X49035044Y-73272734D01*
X49070587Y-73316043D01*
X49101716Y-73362631D01*
X49141337Y-73402252D01*
X49176879Y-73445560D01*
X49220187Y-73481102D01*
X49259808Y-73520723D01*
X49306396Y-73551852D01*
X49349705Y-73587395D01*
X49399114Y-73613804D01*
X49445704Y-73644935D01*
X49497477Y-73666380D01*
X49546881Y-73692787D01*
X49600486Y-73709048D01*
X49652261Y-73730494D01*
X49707222Y-73741426D01*
X49760829Y-73757688D01*
X49816581Y-73763179D01*
X49871540Y-73774111D01*
X51003138Y-73774111D01*
X51058889Y-73779602D01*
X51114640Y-73774111D01*
X51114641Y-73774111D01*
X51281388Y-73757688D01*
X51443000Y-73708663D01*
X51443001Y-80809867D01*
X49567869Y-82685000D01*
X48910212Y-82685000D01*
X48855253Y-82695932D01*
X48799501Y-82701423D01*
X48745894Y-82717685D01*
X48690933Y-82728617D01*
X48639158Y-82750063D01*
X48585553Y-82766324D01*
X48536149Y-82792731D01*
X48484376Y-82814176D01*
X48437786Y-82845307D01*
X48388377Y-82871716D01*
X48345068Y-82907259D01*
X48298480Y-82938388D01*
X48258859Y-82978009D01*
X48215551Y-83013551D01*
X48180011Y-83056857D01*
X48140388Y-83096480D01*
X48109259Y-83143068D01*
X48073716Y-83186377D01*
X48047307Y-83235786D01*
X48016176Y-83282376D01*
X47994731Y-83334149D01*
X47968324Y-83383553D01*
X47952063Y-83437158D01*
X47930617Y-83488933D01*
X47919685Y-83543894D01*
X47903423Y-83597501D01*
X47897932Y-83653253D01*
X47887000Y-83708212D01*
X47887000Y-83764248D01*
X47881509Y-83820000D01*
X47887000Y-83875752D01*
X47887000Y-83931788D01*
X47897932Y-83986747D01*
X47903423Y-84042499D01*
X47919685Y-84096106D01*
X47930617Y-84151067D01*
X47952063Y-84202842D01*
X47968324Y-84256447D01*
X47994731Y-84305851D01*
X48016176Y-84357624D01*
X48047307Y-84404214D01*
X48073716Y-84453623D01*
X48109259Y-84496932D01*
X48140388Y-84543520D01*
X48180009Y-84583141D01*
X48215551Y-84626449D01*
X48258859Y-84661991D01*
X48298480Y-84701612D01*
X48345068Y-84732741D01*
X48388377Y-84768284D01*
X48437786Y-84794693D01*
X48484376Y-84825824D01*
X48536149Y-84847269D01*
X48585553Y-84873676D01*
X48639158Y-84889937D01*
X48690933Y-84911383D01*
X48745894Y-84922315D01*
X48799501Y-84938577D01*
X48855253Y-84944068D01*
X48910212Y-84955000D01*
X49982249Y-84955000D01*
X50038000Y-84960491D01*
X50093751Y-84955000D01*
X50093752Y-84955000D01*
X50260499Y-84938577D01*
X50474447Y-84873676D01*
X50671623Y-84768284D01*
X50791382Y-84670000D01*
X57566928Y-84670000D01*
X57579188Y-84794482D01*
X57615498Y-84914180D01*
X57674463Y-85024494D01*
X57753815Y-85121185D01*
X57850506Y-85200537D01*
X57960820Y-85259502D01*
X58033380Y-85281513D01*
X57901525Y-85413368D01*
X57739010Y-85656589D01*
X57627068Y-85926842D01*
X57570000Y-86213740D01*
X57570000Y-86506260D01*
X57627068Y-86793158D01*
X57739010Y-87063411D01*
X57901525Y-87306632D01*
X58108368Y-87513475D01*
X58282760Y-87630000D01*
X58108368Y-87746525D01*
X57901525Y-87953368D01*
X57739010Y-88196589D01*
X57627068Y-88466842D01*
X57570000Y-88753740D01*
X57570000Y-89046260D01*
X57627068Y-89333158D01*
X57739010Y-89603411D01*
X57901525Y-89846632D01*
X58108368Y-90053475D01*
X58351589Y-90215990D01*
X58621842Y-90327932D01*
X58908740Y-90385000D01*
X59201260Y-90385000D01*
X59488158Y-90327932D01*
X59758411Y-90215990D01*
X60001632Y-90053475D01*
X60208475Y-89846632D01*
X60370990Y-89603411D01*
X60482932Y-89333158D01*
X60540000Y-89046260D01*
X60540000Y-88753740D01*
X60494250Y-88523740D01*
X63920000Y-88523740D01*
X63920000Y-88816260D01*
X63977068Y-89103158D01*
X64089010Y-89373411D01*
X64251525Y-89616632D01*
X64458368Y-89823475D01*
X64701589Y-89985990D01*
X64971842Y-90097932D01*
X65258740Y-90155000D01*
X65551260Y-90155000D01*
X65838158Y-90097932D01*
X66108411Y-89985990D01*
X66351632Y-89823475D01*
X66483487Y-89691620D01*
X66505498Y-89764180D01*
X66564463Y-89874494D01*
X66643815Y-89971185D01*
X66740506Y-90050537D01*
X66850820Y-90109502D01*
X66970518Y-90145812D01*
X67095000Y-90158072D01*
X67659250Y-90155000D01*
X67818000Y-89996250D01*
X67818000Y-88797000D01*
X67798000Y-88797000D01*
X67798000Y-88543000D01*
X67818000Y-88543000D01*
X67818000Y-87343750D01*
X68072000Y-87343750D01*
X68072000Y-88543000D01*
X68092000Y-88543000D01*
X68092000Y-88797000D01*
X68072000Y-88797000D01*
X68072000Y-89996250D01*
X68230750Y-90155000D01*
X68795000Y-90158072D01*
X68919482Y-90145812D01*
X69039180Y-90109502D01*
X69149494Y-90050537D01*
X69246185Y-89971185D01*
X69325537Y-89874494D01*
X69384502Y-89764180D01*
X69406513Y-89691620D01*
X69538368Y-89823475D01*
X69781589Y-89985990D01*
X70051842Y-90097932D01*
X70338740Y-90155000D01*
X70631260Y-90155000D01*
X70918158Y-90097932D01*
X71188411Y-89985990D01*
X71431632Y-89823475D01*
X71638475Y-89616632D01*
X71800990Y-89373411D01*
X71912932Y-89103158D01*
X71970000Y-88816260D01*
X71970000Y-88523740D01*
X71912932Y-88236842D01*
X71800990Y-87966589D01*
X71638475Y-87723368D01*
X71431632Y-87516525D01*
X71188411Y-87354010D01*
X70918158Y-87242068D01*
X70631260Y-87185000D01*
X70338740Y-87185000D01*
X70051842Y-87242068D01*
X69781589Y-87354010D01*
X69538368Y-87516525D01*
X69406513Y-87648380D01*
X69384502Y-87575820D01*
X69325537Y-87465506D01*
X69246185Y-87368815D01*
X69149494Y-87289463D01*
X69039180Y-87230498D01*
X68919482Y-87194188D01*
X68795000Y-87181928D01*
X68230750Y-87185000D01*
X68072000Y-87343750D01*
X67818000Y-87343750D01*
X67659250Y-87185000D01*
X67095000Y-87181928D01*
X66970518Y-87194188D01*
X66850820Y-87230498D01*
X66740506Y-87289463D01*
X66643815Y-87368815D01*
X66564463Y-87465506D01*
X66505498Y-87575820D01*
X66483487Y-87648380D01*
X66351632Y-87516525D01*
X66108411Y-87354010D01*
X65838158Y-87242068D01*
X65551260Y-87185000D01*
X65258740Y-87185000D01*
X64971842Y-87242068D01*
X64701589Y-87354010D01*
X64458368Y-87516525D01*
X64251525Y-87723368D01*
X64089010Y-87966589D01*
X63977068Y-88236842D01*
X63920000Y-88523740D01*
X60494250Y-88523740D01*
X60482932Y-88466842D01*
X60370990Y-88196589D01*
X60208475Y-87953368D01*
X60001632Y-87746525D01*
X59827240Y-87630000D01*
X60001632Y-87513475D01*
X60208475Y-87306632D01*
X60370990Y-87063411D01*
X60482932Y-86793158D01*
X60540000Y-86506260D01*
X60540000Y-86213740D01*
X60482932Y-85926842D01*
X60370990Y-85656589D01*
X60208475Y-85413368D01*
X60076620Y-85281513D01*
X60149180Y-85259502D01*
X60259494Y-85200537D01*
X60356185Y-85121185D01*
X60435537Y-85024494D01*
X60494502Y-84914180D01*
X60530812Y-84794482D01*
X60543072Y-84670000D01*
X75346928Y-84670000D01*
X75359188Y-84794482D01*
X75395498Y-84914180D01*
X75454463Y-85024494D01*
X75533815Y-85121185D01*
X75630506Y-85200537D01*
X75740820Y-85259502D01*
X75813380Y-85281513D01*
X75681525Y-85413368D01*
X75519010Y-85656589D01*
X75407068Y-85926842D01*
X75350000Y-86213740D01*
X75350000Y-86506260D01*
X75407068Y-86793158D01*
X75519010Y-87063411D01*
X75681525Y-87306632D01*
X75888368Y-87513475D01*
X76062760Y-87630000D01*
X75888368Y-87746525D01*
X75681525Y-87953368D01*
X75519010Y-88196589D01*
X75407068Y-88466842D01*
X75350000Y-88753740D01*
X75350000Y-89046260D01*
X75407068Y-89333158D01*
X75519010Y-89603411D01*
X75681525Y-89846632D01*
X75888368Y-90053475D01*
X76131589Y-90215990D01*
X76401842Y-90327932D01*
X76688740Y-90385000D01*
X76981260Y-90385000D01*
X77268158Y-90327932D01*
X77538411Y-90215990D01*
X77781632Y-90053475D01*
X77988475Y-89846632D01*
X78150990Y-89603411D01*
X78262932Y-89333158D01*
X78320000Y-89046260D01*
X78320000Y-88753740D01*
X78262932Y-88466842D01*
X78150990Y-88196589D01*
X77988475Y-87953368D01*
X77781632Y-87746525D01*
X77607240Y-87630000D01*
X77781632Y-87513475D01*
X77988475Y-87306632D01*
X78150990Y-87063411D01*
X78262932Y-86793158D01*
X78320000Y-86506260D01*
X78320000Y-86213740D01*
X78262932Y-85926842D01*
X78150990Y-85656589D01*
X77988475Y-85413368D01*
X77856620Y-85281513D01*
X77929180Y-85259502D01*
X78039494Y-85200537D01*
X78136185Y-85121185D01*
X78215537Y-85024494D01*
X78274502Y-84914180D01*
X78310812Y-84794482D01*
X78323072Y-84670000D01*
X78320000Y-84105750D01*
X78161250Y-83947000D01*
X76962000Y-83947000D01*
X76962000Y-83967000D01*
X76708000Y-83967000D01*
X76708000Y-83947000D01*
X75508750Y-83947000D01*
X75350000Y-84105750D01*
X75346928Y-84670000D01*
X60543072Y-84670000D01*
X60540000Y-84105750D01*
X60381250Y-83947000D01*
X59182000Y-83947000D01*
X59182000Y-83967000D01*
X58928000Y-83967000D01*
X58928000Y-83947000D01*
X57728750Y-83947000D01*
X57570000Y-84105750D01*
X57566928Y-84670000D01*
X50791382Y-84670000D01*
X50844449Y-84626449D01*
X50879996Y-84583135D01*
X53341141Y-82121991D01*
X53384449Y-82086449D01*
X53526284Y-81913623D01*
X53631676Y-81716447D01*
X53696577Y-81502499D01*
X53713000Y-81335752D01*
X53713000Y-81335743D01*
X53718490Y-81280001D01*
X53713000Y-81224259D01*
X53713000Y-71970000D01*
X57566928Y-71970000D01*
X57579188Y-72094482D01*
X57615498Y-72214180D01*
X57674463Y-72324494D01*
X57753815Y-72421185D01*
X57850506Y-72500537D01*
X57960820Y-72559502D01*
X58033380Y-72581513D01*
X57901525Y-72713368D01*
X57739010Y-72956589D01*
X57627068Y-73226842D01*
X57570000Y-73513740D01*
X57570000Y-73806260D01*
X57627068Y-74093158D01*
X57739010Y-74363411D01*
X57901525Y-74606632D01*
X58108368Y-74813475D01*
X58282760Y-74930000D01*
X58108368Y-75046525D01*
X57901525Y-75253368D01*
X57739010Y-75496589D01*
X57627068Y-75766842D01*
X57570000Y-76053740D01*
X57570000Y-76346260D01*
X57627068Y-76633158D01*
X57739010Y-76903411D01*
X57901525Y-77146632D01*
X58108368Y-77353475D01*
X58282760Y-77470000D01*
X58108368Y-77586525D01*
X57901525Y-77793368D01*
X57739010Y-78036589D01*
X57627068Y-78306842D01*
X57570000Y-78593740D01*
X57570000Y-78886260D01*
X57627068Y-79173158D01*
X57739010Y-79443411D01*
X57901525Y-79686632D01*
X58108368Y-79893475D01*
X58282760Y-80010000D01*
X58108368Y-80126525D01*
X57901525Y-80333368D01*
X57739010Y-80576589D01*
X57627068Y-80846842D01*
X57570000Y-81133740D01*
X57570000Y-81426260D01*
X57627068Y-81713158D01*
X57739010Y-81983411D01*
X57901525Y-82226632D01*
X58033380Y-82358487D01*
X57960820Y-82380498D01*
X57850506Y-82439463D01*
X57753815Y-82518815D01*
X57674463Y-82615506D01*
X57615498Y-82725820D01*
X57579188Y-82845518D01*
X57566928Y-82970000D01*
X57570000Y-83534250D01*
X57728750Y-83693000D01*
X58928000Y-83693000D01*
X58928000Y-83673000D01*
X59182000Y-83673000D01*
X59182000Y-83693000D01*
X60381250Y-83693000D01*
X60540000Y-83534250D01*
X60543072Y-82970000D01*
X60530812Y-82845518D01*
X60494502Y-82725820D01*
X60435537Y-82615506D01*
X60356185Y-82518815D01*
X60259494Y-82439463D01*
X60149180Y-82380498D01*
X60076620Y-82358487D01*
X60208475Y-82226632D01*
X60370990Y-81983411D01*
X60482932Y-81713158D01*
X60540000Y-81426260D01*
X60540000Y-81133740D01*
X60482932Y-80846842D01*
X60370990Y-80576589D01*
X60208475Y-80333368D01*
X60001632Y-80126525D01*
X59827240Y-80010000D01*
X60001632Y-79893475D01*
X60208475Y-79686632D01*
X60370990Y-79443411D01*
X60482932Y-79173158D01*
X60540000Y-78886260D01*
X60540000Y-78593740D01*
X60482932Y-78306842D01*
X60370990Y-78036589D01*
X60208475Y-77793368D01*
X60001632Y-77586525D01*
X59827240Y-77470000D01*
X60001632Y-77353475D01*
X60208475Y-77146632D01*
X60370990Y-76903411D01*
X60482932Y-76633158D01*
X60540000Y-76346260D01*
X60540000Y-76053740D01*
X60482932Y-75766842D01*
X60370990Y-75496589D01*
X60208475Y-75253368D01*
X60001632Y-75046525D01*
X59827240Y-74930000D01*
X60001632Y-74813475D01*
X60208475Y-74606632D01*
X60370990Y-74363411D01*
X60482932Y-74093158D01*
X60540000Y-73806260D01*
X60540000Y-73513740D01*
X60482932Y-73226842D01*
X60370990Y-72956589D01*
X60208475Y-72713368D01*
X60076620Y-72581513D01*
X60149180Y-72559502D01*
X60259494Y-72500537D01*
X60356185Y-72421185D01*
X60435537Y-72324494D01*
X60494502Y-72214180D01*
X60530812Y-72094482D01*
X60543072Y-71970000D01*
X75346928Y-71970000D01*
X75359188Y-72094482D01*
X75395498Y-72214180D01*
X75454463Y-72324494D01*
X75533815Y-72421185D01*
X75630506Y-72500537D01*
X75740820Y-72559502D01*
X75813380Y-72581513D01*
X75681525Y-72713368D01*
X75519010Y-72956589D01*
X75407068Y-73226842D01*
X75350000Y-73513740D01*
X75350000Y-73806260D01*
X75407068Y-74093158D01*
X75519010Y-74363411D01*
X75681525Y-74606632D01*
X75888368Y-74813475D01*
X76062760Y-74930000D01*
X75888368Y-75046525D01*
X75681525Y-75253368D01*
X75519010Y-75496589D01*
X75407068Y-75766842D01*
X75350000Y-76053740D01*
X75350000Y-76346260D01*
X75407068Y-76633158D01*
X75519010Y-76903411D01*
X75681525Y-77146632D01*
X75888368Y-77353475D01*
X76062760Y-77470000D01*
X75888368Y-77586525D01*
X75681525Y-77793368D01*
X75519010Y-78036589D01*
X75407068Y-78306842D01*
X75350000Y-78593740D01*
X75350000Y-78886260D01*
X75407068Y-79173158D01*
X75519010Y-79443411D01*
X75681525Y-79686632D01*
X75888368Y-79893475D01*
X76062760Y-80010000D01*
X75888368Y-80126525D01*
X75681525Y-80333368D01*
X75519010Y-80576589D01*
X75407068Y-80846842D01*
X75350000Y-81133740D01*
X75350000Y-81426260D01*
X75407068Y-81713158D01*
X75519010Y-81983411D01*
X75681525Y-82226632D01*
X75813380Y-82358487D01*
X75740820Y-82380498D01*
X75630506Y-82439463D01*
X75533815Y-82518815D01*
X75454463Y-82615506D01*
X75395498Y-82725820D01*
X75359188Y-82845518D01*
X75346928Y-82970000D01*
X75350000Y-83534250D01*
X75508750Y-83693000D01*
X76708000Y-83693000D01*
X76708000Y-83673000D01*
X76962000Y-83673000D01*
X76962000Y-83693000D01*
X78161250Y-83693000D01*
X78320000Y-83534250D01*
X78323072Y-82970000D01*
X78310812Y-82845518D01*
X78274502Y-82725820D01*
X78215537Y-82615506D01*
X78136185Y-82518815D01*
X78039494Y-82439463D01*
X77929180Y-82380498D01*
X77856620Y-82358487D01*
X77988475Y-82226632D01*
X78150990Y-81983411D01*
X78262932Y-81713158D01*
X78320000Y-81426260D01*
X78320000Y-81133740D01*
X78262932Y-80846842D01*
X78150990Y-80576589D01*
X77988475Y-80333368D01*
X77781632Y-80126525D01*
X77607240Y-80010000D01*
X77781632Y-79893475D01*
X77988475Y-79686632D01*
X78150990Y-79443411D01*
X78262932Y-79173158D01*
X78320000Y-78886260D01*
X78320000Y-78593740D01*
X78262932Y-78306842D01*
X78150990Y-78036589D01*
X77988475Y-77793368D01*
X77781632Y-77586525D01*
X77607240Y-77470000D01*
X77781632Y-77353475D01*
X77988475Y-77146632D01*
X78150990Y-76903411D01*
X78262932Y-76633158D01*
X78320000Y-76346260D01*
X78320000Y-76053740D01*
X78262932Y-75766842D01*
X78150990Y-75496589D01*
X77988475Y-75253368D01*
X77781632Y-75046525D01*
X77607240Y-74930000D01*
X77781632Y-74813475D01*
X77988475Y-74606632D01*
X78150990Y-74363411D01*
X78262932Y-74093158D01*
X78320000Y-73806260D01*
X78320000Y-73513740D01*
X78262932Y-73226842D01*
X78150990Y-72956589D01*
X77988475Y-72713368D01*
X77856620Y-72581513D01*
X77929180Y-72559502D01*
X78039494Y-72500537D01*
X78136185Y-72421185D01*
X78215537Y-72324494D01*
X78274502Y-72214180D01*
X78310812Y-72094482D01*
X78323072Y-71970000D01*
X78320000Y-71405750D01*
X78161250Y-71247000D01*
X76962000Y-71247000D01*
X76962000Y-71267000D01*
X76708000Y-71267000D01*
X76708000Y-71247000D01*
X75508750Y-71247000D01*
X75350000Y-71405750D01*
X75346928Y-71970000D01*
X60543072Y-71970000D01*
X60540000Y-71405750D01*
X60381250Y-71247000D01*
X59182000Y-71247000D01*
X59182000Y-71267000D01*
X58928000Y-71267000D01*
X58928000Y-71247000D01*
X57728750Y-71247000D01*
X57570000Y-71405750D01*
X57566928Y-71970000D01*
X53713000Y-71970000D01*
X53713000Y-71175743D01*
X53718490Y-71120001D01*
X53713000Y-71064259D01*
X53713000Y-59270000D01*
X57566928Y-59270000D01*
X57579188Y-59394482D01*
X57615498Y-59514180D01*
X57674463Y-59624494D01*
X57753815Y-59721185D01*
X57850506Y-59800537D01*
X57960820Y-59859502D01*
X58033380Y-59881513D01*
X57901525Y-60013368D01*
X57739010Y-60256589D01*
X57627068Y-60526842D01*
X57570000Y-60813740D01*
X57570000Y-61106260D01*
X57627068Y-61393158D01*
X57739010Y-61663411D01*
X57901525Y-61906632D01*
X58108368Y-62113475D01*
X58282760Y-62230000D01*
X58108368Y-62346525D01*
X57901525Y-62553368D01*
X57739010Y-62796589D01*
X57627068Y-63066842D01*
X57570000Y-63353740D01*
X57570000Y-63646260D01*
X57627068Y-63933158D01*
X57739010Y-64203411D01*
X57901525Y-64446632D01*
X58108368Y-64653475D01*
X58282760Y-64770000D01*
X58108368Y-64886525D01*
X57901525Y-65093368D01*
X57739010Y-65336589D01*
X57627068Y-65606842D01*
X57570000Y-65893740D01*
X57570000Y-66186260D01*
X57627068Y-66473158D01*
X57739010Y-66743411D01*
X57901525Y-66986632D01*
X58108368Y-67193475D01*
X58282760Y-67310000D01*
X58108368Y-67426525D01*
X57901525Y-67633368D01*
X57739010Y-67876589D01*
X57627068Y-68146842D01*
X57570000Y-68433740D01*
X57570000Y-68726260D01*
X57627068Y-69013158D01*
X57739010Y-69283411D01*
X57901525Y-69526632D01*
X58033380Y-69658487D01*
X57960820Y-69680498D01*
X57850506Y-69739463D01*
X57753815Y-69818815D01*
X57674463Y-69915506D01*
X57615498Y-70025820D01*
X57579188Y-70145518D01*
X57566928Y-70270000D01*
X57570000Y-70834250D01*
X57728750Y-70993000D01*
X58928000Y-70993000D01*
X58928000Y-70973000D01*
X59182000Y-70973000D01*
X59182000Y-70993000D01*
X60381250Y-70993000D01*
X60540000Y-70834250D01*
X60543072Y-70270000D01*
X60530812Y-70145518D01*
X60494502Y-70025820D01*
X60435537Y-69915506D01*
X60356185Y-69818815D01*
X60259494Y-69739463D01*
X60149180Y-69680498D01*
X60076620Y-69658487D01*
X60208475Y-69526632D01*
X60370990Y-69283411D01*
X60482932Y-69013158D01*
X60540000Y-68726260D01*
X60540000Y-68433740D01*
X60482932Y-68146842D01*
X60370990Y-67876589D01*
X60208475Y-67633368D01*
X60001632Y-67426525D01*
X59827240Y-67310000D01*
X60001632Y-67193475D01*
X60208475Y-66986632D01*
X60370990Y-66743411D01*
X60482932Y-66473158D01*
X60540000Y-66186260D01*
X60540000Y-65893740D01*
X60482932Y-65606842D01*
X60370990Y-65336589D01*
X60208475Y-65093368D01*
X60001632Y-64886525D01*
X59827240Y-64770000D01*
X60001632Y-64653475D01*
X60208475Y-64446632D01*
X60370990Y-64203411D01*
X60482932Y-63933158D01*
X60540000Y-63646260D01*
X60540000Y-63353740D01*
X60482932Y-63066842D01*
X60370990Y-62796589D01*
X60208475Y-62553368D01*
X60001632Y-62346525D01*
X59827240Y-62230000D01*
X60001632Y-62113475D01*
X60208475Y-61906632D01*
X60370990Y-61663411D01*
X60482932Y-61393158D01*
X60540000Y-61106260D01*
X60540000Y-60813740D01*
X60482932Y-60526842D01*
X60370990Y-60256589D01*
X60208475Y-60013368D01*
X60076620Y-59881513D01*
X60149180Y-59859502D01*
X60259494Y-59800537D01*
X60356185Y-59721185D01*
X60435537Y-59624494D01*
X60494502Y-59514180D01*
X60530812Y-59394482D01*
X60543072Y-59270000D01*
X75346928Y-59270000D01*
X75359188Y-59394482D01*
X75395498Y-59514180D01*
X75454463Y-59624494D01*
X75533815Y-59721185D01*
X75630506Y-59800537D01*
X75740820Y-59859502D01*
X75813380Y-59881513D01*
X75681525Y-60013368D01*
X75519010Y-60256589D01*
X75407068Y-60526842D01*
X75350000Y-60813740D01*
X75350000Y-61106260D01*
X75407068Y-61393158D01*
X75519010Y-61663411D01*
X75681525Y-61906632D01*
X75888368Y-62113475D01*
X76062760Y-62230000D01*
X75888368Y-62346525D01*
X75681525Y-62553368D01*
X75519010Y-62796589D01*
X75407068Y-63066842D01*
X75350000Y-63353740D01*
X75350000Y-63646260D01*
X75407068Y-63933158D01*
X75519010Y-64203411D01*
X75681525Y-64446632D01*
X75888368Y-64653475D01*
X76062760Y-64770000D01*
X75888368Y-64886525D01*
X75681525Y-65093368D01*
X75519010Y-65336589D01*
X75407068Y-65606842D01*
X75350000Y-65893740D01*
X75350000Y-66186260D01*
X75407068Y-66473158D01*
X75519010Y-66743411D01*
X75681525Y-66986632D01*
X75888368Y-67193475D01*
X76062760Y-67310000D01*
X75888368Y-67426525D01*
X75681525Y-67633368D01*
X75519010Y-67876589D01*
X75407068Y-68146842D01*
X75350000Y-68433740D01*
X75350000Y-68726260D01*
X75407068Y-69013158D01*
X75519010Y-69283411D01*
X75681525Y-69526632D01*
X75813380Y-69658487D01*
X75740820Y-69680498D01*
X75630506Y-69739463D01*
X75533815Y-69818815D01*
X75454463Y-69915506D01*
X75395498Y-70025820D01*
X75359188Y-70145518D01*
X75346928Y-70270000D01*
X75350000Y-70834250D01*
X75508750Y-70993000D01*
X76708000Y-70993000D01*
X76708000Y-70973000D01*
X76962000Y-70973000D01*
X76962000Y-70993000D01*
X78161250Y-70993000D01*
X78320000Y-70834250D01*
X78323072Y-70270000D01*
X78310812Y-70145518D01*
X78274502Y-70025820D01*
X78215537Y-69915506D01*
X78136185Y-69818815D01*
X78039494Y-69739463D01*
X77929180Y-69680498D01*
X77856620Y-69658487D01*
X77988475Y-69526632D01*
X78150990Y-69283411D01*
X78262932Y-69013158D01*
X78320000Y-68726260D01*
X78320000Y-68433740D01*
X78262932Y-68146842D01*
X78150990Y-67876589D01*
X77988475Y-67633368D01*
X77781632Y-67426525D01*
X77607240Y-67310000D01*
X77781632Y-67193475D01*
X77988475Y-66986632D01*
X78150990Y-66743411D01*
X78262932Y-66473158D01*
X78320000Y-66186260D01*
X78320000Y-65893740D01*
X78262932Y-65606842D01*
X78150990Y-65336589D01*
X77988475Y-65093368D01*
X77781632Y-64886525D01*
X77607240Y-64770000D01*
X77781632Y-64653475D01*
X77988475Y-64446632D01*
X78150990Y-64203411D01*
X78262932Y-63933158D01*
X78320000Y-63646260D01*
X78320000Y-63353740D01*
X78262932Y-63066842D01*
X78150990Y-62796589D01*
X77988475Y-62553368D01*
X77781632Y-62346525D01*
X77607240Y-62230000D01*
X77781632Y-62113475D01*
X77988475Y-61906632D01*
X78150990Y-61663411D01*
X78262932Y-61393158D01*
X78320000Y-61106260D01*
X78320000Y-60813740D01*
X78262932Y-60526842D01*
X78150990Y-60256589D01*
X77988475Y-60013368D01*
X77856620Y-59881513D01*
X77929180Y-59859502D01*
X78039494Y-59800537D01*
X78136185Y-59721185D01*
X78215537Y-59624494D01*
X78274502Y-59514180D01*
X78310812Y-59394482D01*
X78323072Y-59270000D01*
X78320000Y-58705750D01*
X78161250Y-58547000D01*
X76962000Y-58547000D01*
X76962000Y-58567000D01*
X76708000Y-58567000D01*
X76708000Y-58547000D01*
X75508750Y-58547000D01*
X75350000Y-58705750D01*
X75346928Y-59270000D01*
X60543072Y-59270000D01*
X60540000Y-58705750D01*
X60381250Y-58547000D01*
X59182000Y-58547000D01*
X59182000Y-58567000D01*
X58928000Y-58567000D01*
X58928000Y-58547000D01*
X57728750Y-58547000D01*
X57570000Y-58705750D01*
X57566928Y-59270000D01*
X53713000Y-59270000D01*
X53713000Y-57713743D01*
X53718490Y-57658001D01*
X53713000Y-57602259D01*
X53713000Y-46918742D01*
X53718490Y-46863001D01*
X53713000Y-46807259D01*
X53713000Y-46570000D01*
X57566928Y-46570000D01*
X57579188Y-46694482D01*
X57615498Y-46814180D01*
X57674463Y-46924494D01*
X57753815Y-47021185D01*
X57850506Y-47100537D01*
X57960820Y-47159502D01*
X58033380Y-47181513D01*
X57901525Y-47313368D01*
X57739010Y-47556589D01*
X57627068Y-47826842D01*
X57570000Y-48113740D01*
X57570000Y-48406260D01*
X57627068Y-48693158D01*
X57739010Y-48963411D01*
X57901525Y-49206632D01*
X58108368Y-49413475D01*
X58282760Y-49530000D01*
X58108368Y-49646525D01*
X57901525Y-49853368D01*
X57739010Y-50096589D01*
X57627068Y-50366842D01*
X57570000Y-50653740D01*
X57570000Y-50946260D01*
X57627068Y-51233158D01*
X57739010Y-51503411D01*
X57901525Y-51746632D01*
X58108368Y-51953475D01*
X58282760Y-52070000D01*
X58108368Y-52186525D01*
X57901525Y-52393368D01*
X57739010Y-52636589D01*
X57627068Y-52906842D01*
X57570000Y-53193740D01*
X57570000Y-53486260D01*
X57627068Y-53773158D01*
X57739010Y-54043411D01*
X57901525Y-54286632D01*
X58108368Y-54493475D01*
X58282760Y-54610000D01*
X58108368Y-54726525D01*
X57901525Y-54933368D01*
X57739010Y-55176589D01*
X57627068Y-55446842D01*
X57570000Y-55733740D01*
X57570000Y-56026260D01*
X57627068Y-56313158D01*
X57739010Y-56583411D01*
X57901525Y-56826632D01*
X58033380Y-56958487D01*
X57960820Y-56980498D01*
X57850506Y-57039463D01*
X57753815Y-57118815D01*
X57674463Y-57215506D01*
X57615498Y-57325820D01*
X57579188Y-57445518D01*
X57566928Y-57570000D01*
X57570000Y-58134250D01*
X57728750Y-58293000D01*
X58928000Y-58293000D01*
X58928000Y-58273000D01*
X59182000Y-58273000D01*
X59182000Y-58293000D01*
X60381250Y-58293000D01*
X60540000Y-58134250D01*
X60543072Y-57570000D01*
X60530812Y-57445518D01*
X60494502Y-57325820D01*
X60435537Y-57215506D01*
X60356185Y-57118815D01*
X60259494Y-57039463D01*
X60149180Y-56980498D01*
X60076620Y-56958487D01*
X60208475Y-56826632D01*
X60370990Y-56583411D01*
X60482932Y-56313158D01*
X60540000Y-56026260D01*
X60540000Y-55733740D01*
X60482932Y-55446842D01*
X60370990Y-55176589D01*
X60208475Y-54933368D01*
X60001632Y-54726525D01*
X59827240Y-54610000D01*
X60001632Y-54493475D01*
X60208475Y-54286632D01*
X60370990Y-54043411D01*
X60482932Y-53773158D01*
X60540000Y-53486260D01*
X60540000Y-53193740D01*
X60482932Y-52906842D01*
X60370990Y-52636589D01*
X60208475Y-52393368D01*
X60001632Y-52186525D01*
X59827240Y-52070000D01*
X60001632Y-51953475D01*
X60208475Y-51746632D01*
X60370990Y-51503411D01*
X60482932Y-51233158D01*
X60540000Y-50946260D01*
X60540000Y-50653740D01*
X60482932Y-50366842D01*
X60370990Y-50096589D01*
X60208475Y-49853368D01*
X60001632Y-49646525D01*
X59827240Y-49530000D01*
X60001632Y-49413475D01*
X60208475Y-49206632D01*
X60370990Y-48963411D01*
X60482932Y-48693158D01*
X60540000Y-48406260D01*
X60540000Y-48113740D01*
X60482932Y-47826842D01*
X60370990Y-47556589D01*
X60208475Y-47313368D01*
X60076620Y-47181513D01*
X60149180Y-47159502D01*
X60259494Y-47100537D01*
X60356185Y-47021185D01*
X60435537Y-46924494D01*
X60494502Y-46814180D01*
X60530812Y-46694482D01*
X60543072Y-46570000D01*
X75346928Y-46570000D01*
X75359188Y-46694482D01*
X75395498Y-46814180D01*
X75454463Y-46924494D01*
X75533815Y-47021185D01*
X75630506Y-47100537D01*
X75740820Y-47159502D01*
X75813380Y-47181513D01*
X75681525Y-47313368D01*
X75519010Y-47556589D01*
X75407068Y-47826842D01*
X75350000Y-48113740D01*
X75350000Y-48406260D01*
X75407068Y-48693158D01*
X75519010Y-48963411D01*
X75681525Y-49206632D01*
X75888368Y-49413475D01*
X76062760Y-49530000D01*
X75888368Y-49646525D01*
X75681525Y-49853368D01*
X75519010Y-50096589D01*
X75407068Y-50366842D01*
X75350000Y-50653740D01*
X75350000Y-50946260D01*
X75407068Y-51233158D01*
X75519010Y-51503411D01*
X75681525Y-51746632D01*
X75888368Y-51953475D01*
X76062760Y-52070000D01*
X75888368Y-52186525D01*
X75681525Y-52393368D01*
X75519010Y-52636589D01*
X75407068Y-52906842D01*
X75350000Y-53193740D01*
X75350000Y-53486260D01*
X75407068Y-53773158D01*
X75519010Y-54043411D01*
X75681525Y-54286632D01*
X75888368Y-54493475D01*
X76062760Y-54610000D01*
X75888368Y-54726525D01*
X75681525Y-54933368D01*
X75519010Y-55176589D01*
X75407068Y-55446842D01*
X75350000Y-55733740D01*
X75350000Y-56026260D01*
X75407068Y-56313158D01*
X75519010Y-56583411D01*
X75681525Y-56826632D01*
X75813380Y-56958487D01*
X75740820Y-56980498D01*
X75630506Y-57039463D01*
X75533815Y-57118815D01*
X75454463Y-57215506D01*
X75395498Y-57325820D01*
X75359188Y-57445518D01*
X75346928Y-57570000D01*
X75350000Y-58134250D01*
X75508750Y-58293000D01*
X76708000Y-58293000D01*
X76708000Y-58273000D01*
X76962000Y-58273000D01*
X76962000Y-58293000D01*
X78161250Y-58293000D01*
X78320000Y-58134250D01*
X78323072Y-57570000D01*
X78310812Y-57445518D01*
X78274502Y-57325820D01*
X78215537Y-57215506D01*
X78136185Y-57118815D01*
X78039494Y-57039463D01*
X77929180Y-56980498D01*
X77856620Y-56958487D01*
X77988475Y-56826632D01*
X78150990Y-56583411D01*
X78262932Y-56313158D01*
X78320000Y-56026260D01*
X78320000Y-55733740D01*
X78262932Y-55446842D01*
X78150990Y-55176589D01*
X77988475Y-54933368D01*
X77781632Y-54726525D01*
X77607240Y-54610000D01*
X77781632Y-54493475D01*
X77988475Y-54286632D01*
X78150990Y-54043411D01*
X78262932Y-53773158D01*
X78320000Y-53486260D01*
X78320000Y-53193740D01*
X78262932Y-52906842D01*
X78150990Y-52636589D01*
X77988475Y-52393368D01*
X77781632Y-52186525D01*
X77607240Y-52070000D01*
X77781632Y-51953475D01*
X77988475Y-51746632D01*
X78150990Y-51503411D01*
X78262932Y-51233158D01*
X78320000Y-50946260D01*
X78320000Y-50653740D01*
X78262932Y-50366842D01*
X78150990Y-50096589D01*
X77988475Y-49853368D01*
X77781632Y-49646525D01*
X77607240Y-49530000D01*
X77781632Y-49413475D01*
X77988475Y-49206632D01*
X78150990Y-48963411D01*
X78262932Y-48693158D01*
X78320000Y-48406260D01*
X78320000Y-48113740D01*
X78262932Y-47826842D01*
X78150990Y-47556589D01*
X77988475Y-47313368D01*
X77856620Y-47181513D01*
X77929180Y-47159502D01*
X78039494Y-47100537D01*
X78136185Y-47021185D01*
X78215537Y-46924494D01*
X78274502Y-46814180D01*
X78310812Y-46694482D01*
X78323072Y-46570000D01*
X78320000Y-46005750D01*
X78161250Y-45847000D01*
X76962000Y-45847000D01*
X76962000Y-45867000D01*
X76708000Y-45867000D01*
X76708000Y-45847000D01*
X75508750Y-45847000D01*
X75350000Y-46005750D01*
X75346928Y-46570000D01*
X60543072Y-46570000D01*
X60540000Y-46005750D01*
X60381250Y-45847000D01*
X59182000Y-45847000D01*
X59182000Y-45867000D01*
X58928000Y-45867000D01*
X58928000Y-45847000D01*
X57728750Y-45847000D01*
X57570000Y-46005750D01*
X57566928Y-46570000D01*
X53713000Y-46570000D01*
X53713000Y-44870000D01*
X57566928Y-44870000D01*
X57570000Y-45434250D01*
X57728750Y-45593000D01*
X58928000Y-45593000D01*
X58928000Y-45573000D01*
X59182000Y-45573000D01*
X59182000Y-45593000D01*
X60381250Y-45593000D01*
X60540000Y-45434250D01*
X60543072Y-44870000D01*
X60530812Y-44745518D01*
X60494502Y-44625820D01*
X60435537Y-44515506D01*
X60356185Y-44418815D01*
X60259494Y-44339463D01*
X60149180Y-44280498D01*
X60076620Y-44258487D01*
X60208475Y-44126632D01*
X60370990Y-43883411D01*
X60462042Y-43663589D01*
X64135000Y-43663589D01*
X64135000Y-43936411D01*
X64188225Y-44203989D01*
X64292629Y-44456043D01*
X64444201Y-44682886D01*
X64637114Y-44875799D01*
X64863957Y-45027371D01*
X65116011Y-45131775D01*
X65383589Y-45185000D01*
X65656411Y-45185000D01*
X65923989Y-45131775D01*
X66176043Y-45027371D01*
X66402886Y-44875799D01*
X66595799Y-44682886D01*
X66747371Y-44456043D01*
X66851775Y-44203989D01*
X66905000Y-43936411D01*
X66905000Y-43663589D01*
X68985000Y-43663589D01*
X68985000Y-43936411D01*
X69038225Y-44203989D01*
X69142629Y-44456043D01*
X69294201Y-44682886D01*
X69487114Y-44875799D01*
X69713957Y-45027371D01*
X69966011Y-45131775D01*
X70233589Y-45185000D01*
X70506411Y-45185000D01*
X70773989Y-45131775D01*
X71026043Y-45027371D01*
X71252886Y-44875799D01*
X71445799Y-44682886D01*
X71597371Y-44456043D01*
X71701775Y-44203989D01*
X71755000Y-43936411D01*
X71755000Y-43663589D01*
X71701775Y-43396011D01*
X71597371Y-43143957D01*
X71445799Y-42917114D01*
X71252886Y-42724201D01*
X71026043Y-42572629D01*
X70773989Y-42468225D01*
X70506411Y-42415000D01*
X70233589Y-42415000D01*
X69966011Y-42468225D01*
X69713957Y-42572629D01*
X69487114Y-42724201D01*
X69294201Y-42917114D01*
X69142629Y-43143957D01*
X69038225Y-43396011D01*
X68985000Y-43663589D01*
X66905000Y-43663589D01*
X66851775Y-43396011D01*
X66747371Y-43143957D01*
X66595799Y-42917114D01*
X66402886Y-42724201D01*
X66176043Y-42572629D01*
X65923989Y-42468225D01*
X65656411Y-42415000D01*
X65383589Y-42415000D01*
X65116011Y-42468225D01*
X64863957Y-42572629D01*
X64637114Y-42724201D01*
X64444201Y-42917114D01*
X64292629Y-43143957D01*
X64188225Y-43396011D01*
X64135000Y-43663589D01*
X60462042Y-43663589D01*
X60482932Y-43613158D01*
X60540000Y-43326260D01*
X60540000Y-43033740D01*
X60482932Y-42746842D01*
X60370990Y-42476589D01*
X60208475Y-42233368D01*
X60001632Y-42026525D01*
X59827240Y-41910000D01*
X60001632Y-41793475D01*
X60208475Y-41586632D01*
X60370990Y-41343411D01*
X60482932Y-41073158D01*
X60540000Y-40786260D01*
X60540000Y-40618816D01*
X63685000Y-40618816D01*
X63685000Y-40921184D01*
X63743989Y-41217743D01*
X63859701Y-41497095D01*
X64027688Y-41748505D01*
X64241495Y-41962312D01*
X64492905Y-42130299D01*
X64772257Y-42246011D01*
X65068816Y-42305000D01*
X65371184Y-42305000D01*
X65667743Y-42246011D01*
X65947095Y-42130299D01*
X66198505Y-41962312D01*
X66412312Y-41748505D01*
X66580299Y-41497095D01*
X66696011Y-41217743D01*
X66755000Y-40921184D01*
X66755000Y-40618816D01*
X66696011Y-40322257D01*
X66580299Y-40042905D01*
X66412312Y-39791495D01*
X66396817Y-39776000D01*
X69493183Y-39776000D01*
X69477688Y-39791495D01*
X69309701Y-40042905D01*
X69193989Y-40322257D01*
X69135000Y-40618816D01*
X69135000Y-40921184D01*
X69193989Y-41217743D01*
X69309701Y-41497095D01*
X69477688Y-41748505D01*
X69691495Y-41962312D01*
X69942905Y-42130299D01*
X70222257Y-42246011D01*
X70518816Y-42305000D01*
X70821184Y-42305000D01*
X71117743Y-42246011D01*
X71397095Y-42130299D01*
X71648505Y-41962312D01*
X71862312Y-41748505D01*
X72030299Y-41497095D01*
X72146011Y-41217743D01*
X72205000Y-40921184D01*
X72205000Y-40618816D01*
X72146011Y-40322257D01*
X72030299Y-40042905D01*
X71862312Y-39791495D01*
X71846817Y-39776000D01*
X72103581Y-39776000D01*
X72136000Y-39779193D01*
X72168419Y-39776000D01*
X72265383Y-39766450D01*
X72389793Y-39728710D01*
X72504450Y-39667425D01*
X72604948Y-39584948D01*
X72687425Y-39484450D01*
X72748710Y-39369793D01*
X72786450Y-39245383D01*
X72799193Y-39116000D01*
X72796000Y-39083581D01*
X72796000Y-31782419D01*
X72799193Y-31750000D01*
X72786450Y-31620617D01*
X72748710Y-31496207D01*
X72687425Y-31381550D01*
X72604948Y-31281052D01*
X72504450Y-31198575D01*
X72389793Y-31137290D01*
X72265383Y-31099550D01*
X72168419Y-31090000D01*
X72136000Y-31086807D01*
X72103581Y-31090000D01*
X64548419Y-31090000D01*
X64516000Y-31086807D01*
X64483581Y-31090000D01*
X64386617Y-31099550D01*
X64262207Y-31137290D01*
X64147550Y-31198575D01*
X64047052Y-31281052D01*
X63964575Y-31381550D01*
X63903290Y-31496207D01*
X63865550Y-31620617D01*
X63852807Y-31750000D01*
X63856000Y-31782419D01*
X63856001Y-39083571D01*
X63852807Y-39116000D01*
X63865550Y-39245383D01*
X63903290Y-39369793D01*
X63964575Y-39484450D01*
X64047052Y-39584948D01*
X64147550Y-39667425D01*
X64150292Y-39668891D01*
X64027688Y-39791495D01*
X63859701Y-40042905D01*
X63743989Y-40322257D01*
X63685000Y-40618816D01*
X60540000Y-40618816D01*
X60540000Y-40493740D01*
X60482932Y-40206842D01*
X60370990Y-39936589D01*
X60208475Y-39693368D01*
X60001632Y-39486525D01*
X59758411Y-39324010D01*
X59488158Y-39212068D01*
X59201260Y-39155000D01*
X58908740Y-39155000D01*
X58621842Y-39212068D01*
X58351589Y-39324010D01*
X58108368Y-39486525D01*
X57901525Y-39693368D01*
X57739010Y-39936589D01*
X57627068Y-40206842D01*
X57570000Y-40493740D01*
X57570000Y-40786260D01*
X57627068Y-41073158D01*
X57739010Y-41343411D01*
X57901525Y-41586632D01*
X58108368Y-41793475D01*
X58282760Y-41910000D01*
X58108368Y-42026525D01*
X57901525Y-42233368D01*
X57739010Y-42476589D01*
X57627068Y-42746842D01*
X57570000Y-43033740D01*
X57570000Y-43326260D01*
X57627068Y-43613158D01*
X57739010Y-43883411D01*
X57901525Y-44126632D01*
X58033380Y-44258487D01*
X57960820Y-44280498D01*
X57850506Y-44339463D01*
X57753815Y-44418815D01*
X57674463Y-44515506D01*
X57615498Y-44625820D01*
X57579188Y-44745518D01*
X57566928Y-44870000D01*
X53713000Y-44870000D01*
X53713000Y-41364131D01*
X57725059Y-37352072D01*
X58558000Y-37352072D01*
X58682482Y-37339812D01*
X58802180Y-37303502D01*
X58912494Y-37244537D01*
X59009185Y-37165185D01*
X59088537Y-37068494D01*
X59147502Y-36958180D01*
X59183812Y-36838482D01*
X59196072Y-36714000D01*
X59196072Y-35881060D01*
X64224132Y-30853000D01*
X76946389Y-30853000D01*
X76880815Y-30906815D01*
X76801463Y-31003506D01*
X76742498Y-31113820D01*
X76706188Y-31233518D01*
X76693928Y-31358000D01*
X76693928Y-32190940D01*
X73404860Y-35480009D01*
X73361552Y-35515551D01*
X73219717Y-35688377D01*
X73163384Y-35793770D01*
X73114324Y-35885554D01*
X73049423Y-36099502D01*
X73027509Y-36322000D01*
X73033001Y-36377761D01*
X73033000Y-42108248D01*
X73027509Y-42164000D01*
X73033000Y-42219751D01*
X73049423Y-42386498D01*
X73114324Y-42600446D01*
X73219716Y-42797623D01*
X73361551Y-42970449D01*
X73404864Y-43005996D01*
X74342008Y-43943140D01*
X74377551Y-43986449D01*
X74550377Y-44128284D01*
X74744283Y-44231928D01*
X74747553Y-44233676D01*
X74961501Y-44298577D01*
X75184000Y-44320491D01*
X75239751Y-44315000D01*
X75676272Y-44315000D01*
X75630506Y-44339463D01*
X75533815Y-44418815D01*
X75454463Y-44515506D01*
X75395498Y-44625820D01*
X75359188Y-44745518D01*
X75346928Y-44870000D01*
X75350000Y-45434250D01*
X75508750Y-45593000D01*
X76708000Y-45593000D01*
X76708000Y-45573000D01*
X76962000Y-45573000D01*
X76962000Y-45593000D01*
X78161250Y-45593000D01*
X78320000Y-45434250D01*
X78323072Y-44870000D01*
X78310812Y-44745518D01*
X78274502Y-44625820D01*
X78215537Y-44515506D01*
X78136185Y-44418815D01*
X78039494Y-44339463D01*
X77929180Y-44280498D01*
X77856620Y-44258487D01*
X77988475Y-44126632D01*
X78150990Y-43883411D01*
X78262932Y-43613158D01*
X78320000Y-43326260D01*
X78320000Y-43033740D01*
X78262932Y-42746842D01*
X78150990Y-42476589D01*
X77988475Y-42233368D01*
X77781632Y-42026525D01*
X77607240Y-41910000D01*
X77781632Y-41793475D01*
X77988475Y-41586632D01*
X78150990Y-41343411D01*
X78262932Y-41073158D01*
X78320000Y-40786260D01*
X78320000Y-40493740D01*
X78262932Y-40206842D01*
X78150990Y-39936589D01*
X77988475Y-39693368D01*
X77781632Y-39486525D01*
X77538411Y-39324010D01*
X77268158Y-39212068D01*
X76981260Y-39155000D01*
X76688740Y-39155000D01*
X76401842Y-39212068D01*
X76131589Y-39324010D01*
X75888368Y-39486525D01*
X75681525Y-39693368D01*
X75519010Y-39936589D01*
X75407068Y-40206842D01*
X75350000Y-40493740D01*
X75350000Y-40786260D01*
X75407068Y-41073158D01*
X75519010Y-41343411D01*
X75681525Y-41586632D01*
X75888368Y-41793475D01*
X76062760Y-41910000D01*
X75888368Y-42026525D01*
X75869893Y-42045000D01*
X75654132Y-42045000D01*
X75303000Y-41693869D01*
X75303000Y-36792131D01*
X78299060Y-33796072D01*
X79132000Y-33796072D01*
X79256482Y-33783812D01*
X79376180Y-33747502D01*
X79486494Y-33688537D01*
X79583185Y-33609185D01*
X79662537Y-33512494D01*
X79721502Y-33402180D01*
X79757812Y-33282482D01*
X79770072Y-33158000D01*
X79770072Y-31358000D01*
X79757812Y-31233518D01*
X79721502Y-31113820D01*
X79662537Y-31003506D01*
X79583185Y-30906815D01*
X79517611Y-30853000D01*
X82079868Y-30853000D01*
X82431001Y-31204133D01*
X82431000Y-45918248D01*
X82431000Y-45918249D01*
X82431001Y-60396239D01*
X82425509Y-60452000D01*
X82447423Y-60674498D01*
X82512324Y-60888446D01*
X82561384Y-60980230D01*
X82617717Y-61085623D01*
X82759552Y-61258449D01*
X82802860Y-61293991D01*
X84209000Y-62700133D01*
X84209000Y-62936249D01*
X84209001Y-67508239D01*
X84209000Y-67508249D01*
X84209001Y-75382239D01*
X84209000Y-75382249D01*
X84209000Y-76144248D01*
X84203509Y-76200000D01*
X84209000Y-76255751D01*
X84209001Y-86050239D01*
X84209000Y-86050249D01*
X84209000Y-87066249D01*
X84203509Y-87122000D01*
X84209000Y-87177751D01*
X84209000Y-87177752D01*
X84225423Y-87344499D01*
X84290324Y-87558447D01*
X84395717Y-87755623D01*
X84537552Y-87928449D01*
X84580860Y-87963991D01*
X85606859Y-88989991D01*
X85642402Y-89033300D01*
X85815228Y-89175135D01*
X86012404Y-89280527D01*
X86226352Y-89345428D01*
X86393099Y-89361851D01*
X86393108Y-89361851D01*
X86448850Y-89367341D01*
X86504592Y-89361851D01*
X88340383Y-89361851D01*
X88395342Y-89350919D01*
X88451094Y-89345428D01*
X88504701Y-89329166D01*
X88559662Y-89318234D01*
X88611437Y-89296788D01*
X88665042Y-89280527D01*
X88714446Y-89254120D01*
X88766219Y-89232675D01*
X88812809Y-89201544D01*
X88862218Y-89175135D01*
X88905527Y-89139592D01*
X88952115Y-89108463D01*
X88991736Y-89068842D01*
X89035044Y-89033300D01*
X89070586Y-88989992D01*
X89110207Y-88950371D01*
X89141336Y-88903783D01*
X89176879Y-88860474D01*
X89203288Y-88811065D01*
X89234419Y-88764475D01*
X89255864Y-88712702D01*
X89282271Y-88663298D01*
X89298532Y-88609693D01*
X89319978Y-88557918D01*
X89330910Y-88502957D01*
X89347172Y-88449350D01*
X89352663Y-88393598D01*
X89363595Y-88338639D01*
X89363595Y-88282603D01*
X89369086Y-88226851D01*
X89363595Y-88171099D01*
X89363595Y-88115063D01*
X89352663Y-88060104D01*
X89347172Y-88004352D01*
X89330910Y-87950745D01*
X89319978Y-87895784D01*
X89298532Y-87844009D01*
X89282271Y-87790404D01*
X89255864Y-87741000D01*
X89234419Y-87689227D01*
X89203288Y-87642637D01*
X89176879Y-87593228D01*
X89141336Y-87549919D01*
X89110207Y-87503331D01*
X89070586Y-87463710D01*
X89035044Y-87420402D01*
X88991736Y-87384860D01*
X88952115Y-87345239D01*
X88905527Y-87314110D01*
X88862218Y-87278567D01*
X88812809Y-87252158D01*
X88766219Y-87221027D01*
X88714446Y-87199582D01*
X88665042Y-87173175D01*
X88611437Y-87156914D01*
X88559662Y-87135468D01*
X88504701Y-87124536D01*
X88451094Y-87108274D01*
X88395342Y-87102783D01*
X88340383Y-87091851D01*
X86918983Y-87091851D01*
X86479000Y-86651869D01*
X86479000Y-80518000D01*
X97910743Y-80518000D01*
X97939705Y-80812051D01*
X98025476Y-81094802D01*
X98164762Y-81355387D01*
X98352208Y-81583792D01*
X98580613Y-81771238D01*
X98611972Y-81788000D01*
X98580613Y-81804762D01*
X98352208Y-81992208D01*
X98164762Y-82220613D01*
X98025476Y-82481198D01*
X97939705Y-82763949D01*
X97910743Y-83058000D01*
X97939705Y-83352051D01*
X98025476Y-83634802D01*
X98164762Y-83895387D01*
X98352208Y-84123792D01*
X98580613Y-84311238D01*
X98611972Y-84328000D01*
X98580613Y-84344762D01*
X98352208Y-84532208D01*
X98164762Y-84760613D01*
X98025476Y-85021198D01*
X97939705Y-85303949D01*
X97910743Y-85598000D01*
X97939705Y-85892051D01*
X98025476Y-86174802D01*
X98164762Y-86435387D01*
X98352208Y-86663792D01*
X98580613Y-86851238D01*
X98841198Y-86990524D01*
X99123949Y-87076295D01*
X99344320Y-87098000D01*
X99791680Y-87098000D01*
X100012051Y-87076295D01*
X100294802Y-86990524D01*
X100555387Y-86851238D01*
X100783792Y-86663792D01*
X100971238Y-86435387D01*
X101110524Y-86174802D01*
X101196295Y-85892051D01*
X101225257Y-85598000D01*
X101196295Y-85303949D01*
X101110524Y-85021198D01*
X100971238Y-84760613D01*
X100783792Y-84532208D01*
X100555387Y-84344762D01*
X100524028Y-84328000D01*
X100555387Y-84311238D01*
X100783792Y-84123792D01*
X100934414Y-83940258D01*
X100972606Y-83978450D01*
X101166692Y-84108134D01*
X101382348Y-84197461D01*
X101611288Y-84243000D01*
X101844712Y-84243000D01*
X102073652Y-84197461D01*
X102289308Y-84108134D01*
X102483394Y-83978450D01*
X102648450Y-83813394D01*
X102778134Y-83619308D01*
X102867461Y-83403652D01*
X102913000Y-83174712D01*
X102913000Y-82941288D01*
X102867461Y-82712348D01*
X102778134Y-82496692D01*
X102648450Y-82302606D01*
X102483394Y-82137550D01*
X102289308Y-82007866D01*
X102073652Y-81918539D01*
X101844712Y-81873000D01*
X101611288Y-81873000D01*
X101382348Y-81918539D01*
X101166692Y-82007866D01*
X100972606Y-82137550D01*
X100934414Y-82175742D01*
X100783792Y-81992208D01*
X100555387Y-81804762D01*
X100524028Y-81788000D01*
X100555387Y-81771238D01*
X100783792Y-81583792D01*
X100971238Y-81355387D01*
X101110524Y-81094802D01*
X101196295Y-80812051D01*
X101225257Y-80518000D01*
X101196295Y-80223949D01*
X101110524Y-79941198D01*
X100971238Y-79680613D01*
X100783792Y-79452208D01*
X100777970Y-79447430D01*
X100827180Y-79432502D01*
X100937494Y-79373537D01*
X101034185Y-79294185D01*
X101113537Y-79197494D01*
X101172502Y-79087180D01*
X101208812Y-78967482D01*
X101221072Y-78843000D01*
X101218000Y-78263750D01*
X101059250Y-78105000D01*
X99695000Y-78105000D01*
X99695000Y-78125000D01*
X99441000Y-78125000D01*
X99441000Y-78105000D01*
X98076750Y-78105000D01*
X97918000Y-78263750D01*
X97914928Y-78843000D01*
X97927188Y-78967482D01*
X97963498Y-79087180D01*
X98022463Y-79197494D01*
X98101815Y-79294185D01*
X98198506Y-79373537D01*
X98308820Y-79432502D01*
X98358030Y-79447430D01*
X98352208Y-79452208D01*
X98164762Y-79680613D01*
X98025476Y-79941198D01*
X97939705Y-80223949D01*
X97910743Y-80518000D01*
X86479000Y-80518000D01*
X86479000Y-78918589D01*
X86488377Y-78926284D01*
X86685553Y-79031676D01*
X86899501Y-79096577D01*
X87122000Y-79118491D01*
X87177752Y-79113000D01*
X88249788Y-79113000D01*
X88304747Y-79102068D01*
X88360499Y-79096577D01*
X88414106Y-79080315D01*
X88469067Y-79069383D01*
X88520842Y-79047937D01*
X88574447Y-79031676D01*
X88623851Y-79005269D01*
X88675624Y-78983824D01*
X88722214Y-78952693D01*
X88771623Y-78926284D01*
X88814932Y-78890741D01*
X88861520Y-78859612D01*
X88901143Y-78819989D01*
X88944449Y-78784449D01*
X88979991Y-78741141D01*
X89019612Y-78701520D01*
X89050741Y-78654932D01*
X89086284Y-78611623D01*
X89112693Y-78562214D01*
X89143824Y-78515624D01*
X89165269Y-78463851D01*
X89191676Y-78414447D01*
X89207937Y-78360842D01*
X89229383Y-78309067D01*
X89240315Y-78254106D01*
X89256577Y-78200499D01*
X89262068Y-78144747D01*
X89273000Y-78089788D01*
X89273000Y-78033752D01*
X89278491Y-77978000D01*
X89273000Y-77922248D01*
X89273000Y-77866212D01*
X89262068Y-77811253D01*
X89256577Y-77755501D01*
X89240315Y-77701894D01*
X89229383Y-77646933D01*
X89207937Y-77595158D01*
X89191676Y-77541553D01*
X89165269Y-77492149D01*
X89143824Y-77440376D01*
X89112693Y-77393786D01*
X89086284Y-77344377D01*
X89050741Y-77301068D01*
X89019612Y-77254480D01*
X88979991Y-77214859D01*
X88944449Y-77171551D01*
X88901141Y-77136009D01*
X88878132Y-77113000D01*
X97914928Y-77113000D01*
X97918000Y-77692250D01*
X98076750Y-77851000D01*
X99441000Y-77851000D01*
X99441000Y-76636750D01*
X99695000Y-76636750D01*
X99695000Y-77851000D01*
X101059250Y-77851000D01*
X101218000Y-77692250D01*
X101221072Y-77113000D01*
X101208812Y-76988518D01*
X101172502Y-76868820D01*
X101113537Y-76758506D01*
X101034185Y-76661815D01*
X100937494Y-76582463D01*
X100827180Y-76523498D01*
X100707482Y-76487188D01*
X100583000Y-76474928D01*
X99853750Y-76478000D01*
X99695000Y-76636750D01*
X99441000Y-76636750D01*
X99282250Y-76478000D01*
X98553000Y-76474928D01*
X98428518Y-76487188D01*
X98308820Y-76523498D01*
X98198506Y-76582463D01*
X98101815Y-76661815D01*
X98022463Y-76758506D01*
X97963498Y-76868820D01*
X97927188Y-76988518D01*
X97914928Y-77113000D01*
X88878132Y-77113000D01*
X88861520Y-77096388D01*
X88814932Y-77065259D01*
X88771623Y-77029716D01*
X88722214Y-77003307D01*
X88675624Y-76972176D01*
X88623851Y-76950731D01*
X88574447Y-76924324D01*
X88520842Y-76908063D01*
X88469067Y-76886617D01*
X88414106Y-76875685D01*
X88360499Y-76859423D01*
X88304747Y-76853932D01*
X88249788Y-76843000D01*
X87592133Y-76843000D01*
X86479000Y-75729869D01*
X86479000Y-68072000D01*
X97910743Y-68072000D01*
X97939705Y-68366051D01*
X98025476Y-68648802D01*
X98164762Y-68909387D01*
X98352208Y-69137792D01*
X98580613Y-69325238D01*
X98611972Y-69342000D01*
X98580613Y-69358762D01*
X98352208Y-69546208D01*
X98164762Y-69774613D01*
X98025476Y-70035198D01*
X97939705Y-70317949D01*
X97910743Y-70612000D01*
X97939705Y-70906051D01*
X98025476Y-71188802D01*
X98164762Y-71449387D01*
X98352208Y-71677792D01*
X98580613Y-71865238D01*
X98611972Y-71882000D01*
X98580613Y-71898762D01*
X98352208Y-72086208D01*
X98164762Y-72314613D01*
X98025476Y-72575198D01*
X97939705Y-72857949D01*
X97910743Y-73152000D01*
X97939705Y-73446051D01*
X98025476Y-73728802D01*
X98164762Y-73989387D01*
X98352208Y-74217792D01*
X98580613Y-74405238D01*
X98841198Y-74544524D01*
X99123949Y-74630295D01*
X99344320Y-74652000D01*
X99791680Y-74652000D01*
X100012051Y-74630295D01*
X100294802Y-74544524D01*
X100555387Y-74405238D01*
X100783792Y-74217792D01*
X100971238Y-73989387D01*
X101110524Y-73728802D01*
X101196295Y-73446051D01*
X101225257Y-73152000D01*
X101196295Y-72857949D01*
X101110524Y-72575198D01*
X100971238Y-72314613D01*
X100783792Y-72086208D01*
X100555387Y-71898762D01*
X100524028Y-71882000D01*
X100555387Y-71865238D01*
X100783792Y-71677792D01*
X100934414Y-71494258D01*
X100972606Y-71532450D01*
X101166692Y-71662134D01*
X101382348Y-71751461D01*
X101611288Y-71797000D01*
X101844712Y-71797000D01*
X102073652Y-71751461D01*
X102289308Y-71662134D01*
X102483394Y-71532450D01*
X102648450Y-71367394D01*
X102778134Y-71173308D01*
X102867461Y-70957652D01*
X102913000Y-70728712D01*
X102913000Y-70495288D01*
X102867461Y-70266348D01*
X102778134Y-70050692D01*
X102648450Y-69856606D01*
X102483394Y-69691550D01*
X102289308Y-69561866D01*
X102073652Y-69472539D01*
X101844712Y-69427000D01*
X101611288Y-69427000D01*
X101382348Y-69472539D01*
X101166692Y-69561866D01*
X100972606Y-69691550D01*
X100934414Y-69729742D01*
X100783792Y-69546208D01*
X100555387Y-69358762D01*
X100524028Y-69342000D01*
X100555387Y-69325238D01*
X100783792Y-69137792D01*
X100971238Y-68909387D01*
X101110524Y-68648802D01*
X101196295Y-68366051D01*
X101225257Y-68072000D01*
X101196295Y-67777949D01*
X101110524Y-67495198D01*
X100971238Y-67234613D01*
X100783792Y-67006208D01*
X100777970Y-67001430D01*
X100827180Y-66986502D01*
X100937494Y-66927537D01*
X101034185Y-66848185D01*
X101113537Y-66751494D01*
X101172502Y-66641180D01*
X101208812Y-66521482D01*
X101221072Y-66397000D01*
X101218000Y-65817750D01*
X101059250Y-65659000D01*
X99695000Y-65659000D01*
X99695000Y-65679000D01*
X99441000Y-65679000D01*
X99441000Y-65659000D01*
X98076750Y-65659000D01*
X97918000Y-65817750D01*
X97914928Y-66397000D01*
X97927188Y-66521482D01*
X97963498Y-66641180D01*
X98022463Y-66751494D01*
X98101815Y-66848185D01*
X98198506Y-66927537D01*
X98308820Y-66986502D01*
X98358030Y-67001430D01*
X98352208Y-67006208D01*
X98164762Y-67234613D01*
X98025476Y-67495198D01*
X97939705Y-67777949D01*
X97910743Y-68072000D01*
X86479000Y-68072000D01*
X86479000Y-64974097D01*
X86630628Y-65098535D01*
X86827804Y-65203927D01*
X86967323Y-65246250D01*
X87041752Y-65268828D01*
X87264251Y-65290742D01*
X87320003Y-65285251D01*
X88900657Y-65285251D01*
X88955616Y-65274319D01*
X89011368Y-65268828D01*
X89064975Y-65252566D01*
X89119936Y-65241634D01*
X89171711Y-65220188D01*
X89225316Y-65203927D01*
X89274720Y-65177520D01*
X89326493Y-65156075D01*
X89373083Y-65124944D01*
X89422492Y-65098535D01*
X89465801Y-65062992D01*
X89512389Y-65031863D01*
X89552012Y-64992240D01*
X89595318Y-64956700D01*
X89630860Y-64913392D01*
X89670481Y-64873771D01*
X89701610Y-64827183D01*
X89737153Y-64783874D01*
X89763562Y-64734465D01*
X89794693Y-64687875D01*
X89803339Y-64667000D01*
X97914928Y-64667000D01*
X97918000Y-65246250D01*
X98076750Y-65405000D01*
X99441000Y-65405000D01*
X99441000Y-64190750D01*
X99695000Y-64190750D01*
X99695000Y-65405000D01*
X101059250Y-65405000D01*
X101218000Y-65246250D01*
X101221072Y-64667000D01*
X101208812Y-64542518D01*
X101172502Y-64422820D01*
X101113537Y-64312506D01*
X101034185Y-64215815D01*
X100937494Y-64136463D01*
X100827180Y-64077498D01*
X100707482Y-64041188D01*
X100583000Y-64028928D01*
X99853750Y-64032000D01*
X99695000Y-64190750D01*
X99441000Y-64190750D01*
X99282250Y-64032000D01*
X98553000Y-64028928D01*
X98428518Y-64041188D01*
X98308820Y-64077498D01*
X98198506Y-64136463D01*
X98101815Y-64215815D01*
X98022463Y-64312506D01*
X97963498Y-64422820D01*
X97927188Y-64542518D01*
X97914928Y-64667000D01*
X89803339Y-64667000D01*
X89816138Y-64636102D01*
X89842545Y-64586698D01*
X89858806Y-64533093D01*
X89880252Y-64481318D01*
X89891184Y-64426357D01*
X89907446Y-64372750D01*
X89912937Y-64316998D01*
X89923869Y-64262039D01*
X89923869Y-64206003D01*
X89929360Y-64150251D01*
X89923869Y-64094499D01*
X89923869Y-64038463D01*
X89912937Y-63983504D01*
X89907446Y-63927752D01*
X89891184Y-63874145D01*
X89880252Y-63819184D01*
X89858806Y-63767409D01*
X89842545Y-63713804D01*
X89816138Y-63664400D01*
X89794693Y-63612627D01*
X89763562Y-63566037D01*
X89737153Y-63516628D01*
X89701610Y-63473319D01*
X89670481Y-63426731D01*
X89630858Y-63387108D01*
X89595318Y-63343802D01*
X89552010Y-63308260D01*
X89512389Y-63268639D01*
X89465801Y-63237510D01*
X89422492Y-63201967D01*
X89373083Y-63175558D01*
X89326493Y-63144427D01*
X89274720Y-63122982D01*
X89225316Y-63096575D01*
X89171711Y-63080314D01*
X89119936Y-63058868D01*
X89064975Y-63047936D01*
X89011368Y-63031674D01*
X88955616Y-63026183D01*
X88900657Y-63015251D01*
X87734382Y-63015251D01*
X87709992Y-62990861D01*
X87709988Y-62990856D01*
X86185998Y-61466867D01*
X86185989Y-61466856D01*
X86185987Y-61466854D01*
X86150449Y-61423551D01*
X86107145Y-61388012D01*
X84701000Y-59981869D01*
X84701000Y-55372000D01*
X97910743Y-55372000D01*
X97939705Y-55666051D01*
X98025476Y-55948802D01*
X98164762Y-56209387D01*
X98352208Y-56437792D01*
X98580613Y-56625238D01*
X98611972Y-56642000D01*
X98580613Y-56658762D01*
X98352208Y-56846208D01*
X98164762Y-57074613D01*
X98025476Y-57335198D01*
X97939705Y-57617949D01*
X97910743Y-57912000D01*
X97939705Y-58206051D01*
X98025476Y-58488802D01*
X98164762Y-58749387D01*
X98352208Y-58977792D01*
X98580613Y-59165238D01*
X98611972Y-59182000D01*
X98580613Y-59198762D01*
X98352208Y-59386208D01*
X98164762Y-59614613D01*
X98025476Y-59875198D01*
X97939705Y-60157949D01*
X97910743Y-60452000D01*
X97939705Y-60746051D01*
X98025476Y-61028802D01*
X98164762Y-61289387D01*
X98352208Y-61517792D01*
X98580613Y-61705238D01*
X98841198Y-61844524D01*
X99123949Y-61930295D01*
X99344320Y-61952000D01*
X99791680Y-61952000D01*
X100012051Y-61930295D01*
X100294802Y-61844524D01*
X100555387Y-61705238D01*
X100783792Y-61517792D01*
X100971238Y-61289387D01*
X101110524Y-61028802D01*
X101196295Y-60746051D01*
X101225257Y-60452000D01*
X101196295Y-60157949D01*
X101110524Y-59875198D01*
X100971238Y-59614613D01*
X100783792Y-59386208D01*
X100555387Y-59198762D01*
X100524028Y-59182000D01*
X100555387Y-59165238D01*
X100783792Y-58977792D01*
X100934414Y-58794258D01*
X100972606Y-58832450D01*
X101166692Y-58962134D01*
X101382348Y-59051461D01*
X101611288Y-59097000D01*
X101844712Y-59097000D01*
X102073652Y-59051461D01*
X102289308Y-58962134D01*
X102483394Y-58832450D01*
X102648450Y-58667394D01*
X102778134Y-58473308D01*
X102867461Y-58257652D01*
X102913000Y-58028712D01*
X102913000Y-57795288D01*
X102867461Y-57566348D01*
X102778134Y-57350692D01*
X102648450Y-57156606D01*
X102483394Y-56991550D01*
X102289308Y-56861866D01*
X102073652Y-56772539D01*
X101844712Y-56727000D01*
X101611288Y-56727000D01*
X101382348Y-56772539D01*
X101166692Y-56861866D01*
X100972606Y-56991550D01*
X100934414Y-57029742D01*
X100783792Y-56846208D01*
X100555387Y-56658762D01*
X100524028Y-56642000D01*
X100555387Y-56625238D01*
X100783792Y-56437792D01*
X100971238Y-56209387D01*
X101110524Y-55948802D01*
X101196295Y-55666051D01*
X101225257Y-55372000D01*
X101196295Y-55077949D01*
X101110524Y-54795198D01*
X100971238Y-54534613D01*
X100783792Y-54306208D01*
X100777970Y-54301430D01*
X100827180Y-54286502D01*
X100937494Y-54227537D01*
X101034185Y-54148185D01*
X101113537Y-54051494D01*
X101172502Y-53941180D01*
X101208812Y-53821482D01*
X101221072Y-53697000D01*
X101218000Y-53117750D01*
X101059250Y-52959000D01*
X99695000Y-52959000D01*
X99695000Y-52979000D01*
X99441000Y-52979000D01*
X99441000Y-52959000D01*
X98076750Y-52959000D01*
X97918000Y-53117750D01*
X97914928Y-53697000D01*
X97927188Y-53821482D01*
X97963498Y-53941180D01*
X98022463Y-54051494D01*
X98101815Y-54148185D01*
X98198506Y-54227537D01*
X98308820Y-54286502D01*
X98358030Y-54301430D01*
X98352208Y-54306208D01*
X98164762Y-54534613D01*
X98025476Y-54795198D01*
X97939705Y-55077949D01*
X97910743Y-55372000D01*
X84701000Y-55372000D01*
X84701000Y-51967000D01*
X97914928Y-51967000D01*
X97918000Y-52546250D01*
X98076750Y-52705000D01*
X99441000Y-52705000D01*
X99441000Y-51490750D01*
X99695000Y-51490750D01*
X99695000Y-52705000D01*
X101059250Y-52705000D01*
X101218000Y-52546250D01*
X101221072Y-51967000D01*
X101208812Y-51842518D01*
X101172502Y-51722820D01*
X101113537Y-51612506D01*
X101034185Y-51515815D01*
X100937494Y-51436463D01*
X100827180Y-51377498D01*
X100707482Y-51341188D01*
X100583000Y-51328928D01*
X99853750Y-51332000D01*
X99695000Y-51490750D01*
X99441000Y-51490750D01*
X99282250Y-51332000D01*
X98553000Y-51328928D01*
X98428518Y-51341188D01*
X98308820Y-51377498D01*
X98198506Y-51436463D01*
X98101815Y-51515815D01*
X98022463Y-51612506D01*
X97963498Y-51722820D01*
X97927188Y-51842518D01*
X97914928Y-51967000D01*
X84701000Y-51967000D01*
X84701000Y-41245000D01*
X95564928Y-41245000D01*
X95564928Y-43845000D01*
X95577188Y-43969482D01*
X95613498Y-44089180D01*
X95672463Y-44199494D01*
X95751815Y-44296185D01*
X95848506Y-44375537D01*
X95958820Y-44434502D01*
X96078518Y-44470812D01*
X96203000Y-44483072D01*
X98203000Y-44483072D01*
X98327482Y-44470812D01*
X98447180Y-44434502D01*
X98557494Y-44375537D01*
X98654185Y-44296185D01*
X98733537Y-44199494D01*
X98792502Y-44089180D01*
X98828812Y-43969482D01*
X98841072Y-43845000D01*
X98841072Y-41245000D01*
X101564928Y-41245000D01*
X101564928Y-43845000D01*
X101577188Y-43969482D01*
X101613498Y-44089180D01*
X101672463Y-44199494D01*
X101751815Y-44296185D01*
X101848506Y-44375537D01*
X101958820Y-44434502D01*
X102078518Y-44470812D01*
X102203000Y-44483072D01*
X104203000Y-44483072D01*
X104327482Y-44470812D01*
X104447180Y-44434502D01*
X104557494Y-44375537D01*
X104654185Y-44296185D01*
X104733537Y-44199494D01*
X104792502Y-44089180D01*
X104828812Y-43969482D01*
X104841072Y-43845000D01*
X104841072Y-41245000D01*
X104828812Y-41120518D01*
X104792502Y-41000820D01*
X104733537Y-40890506D01*
X104654185Y-40793815D01*
X104557494Y-40714463D01*
X104447180Y-40655498D01*
X104327482Y-40619188D01*
X104203000Y-40606928D01*
X102203000Y-40606928D01*
X102078518Y-40619188D01*
X101958820Y-40655498D01*
X101848506Y-40714463D01*
X101751815Y-40793815D01*
X101672463Y-40890506D01*
X101613498Y-41000820D01*
X101577188Y-41120518D01*
X101564928Y-41245000D01*
X98841072Y-41245000D01*
X98828812Y-41120518D01*
X98792502Y-41000820D01*
X98733537Y-40890506D01*
X98654185Y-40793815D01*
X98557494Y-40714463D01*
X98447180Y-40655498D01*
X98327482Y-40619188D01*
X98203000Y-40606928D01*
X96203000Y-40606928D01*
X96078518Y-40619188D01*
X95958820Y-40655498D01*
X95848506Y-40714463D01*
X95751815Y-40793815D01*
X95672463Y-40890506D01*
X95613498Y-41000820D01*
X95577188Y-41120518D01*
X95564928Y-41245000D01*
X84701000Y-41245000D01*
X84701000Y-36845000D01*
X98264928Y-36845000D01*
X98264928Y-38845000D01*
X98277188Y-38969482D01*
X98313498Y-39089180D01*
X98372463Y-39199494D01*
X98451815Y-39296185D01*
X98548506Y-39375537D01*
X98658820Y-39434502D01*
X98778518Y-39470812D01*
X98903000Y-39483072D01*
X101503000Y-39483072D01*
X101627482Y-39470812D01*
X101747180Y-39434502D01*
X101857494Y-39375537D01*
X101954185Y-39296185D01*
X102033537Y-39199494D01*
X102092502Y-39089180D01*
X102128812Y-38969482D01*
X102141072Y-38845000D01*
X102141072Y-36845000D01*
X102128812Y-36720518D01*
X102092502Y-36600820D01*
X102033537Y-36490506D01*
X101954185Y-36393815D01*
X101857494Y-36314463D01*
X101747180Y-36255498D01*
X101627482Y-36219188D01*
X101503000Y-36206928D01*
X98903000Y-36206928D01*
X98778518Y-36219188D01*
X98658820Y-36255498D01*
X98548506Y-36314463D01*
X98451815Y-36393815D01*
X98372463Y-36490506D01*
X98313498Y-36600820D01*
X98277188Y-36720518D01*
X98264928Y-36845000D01*
X84701000Y-36845000D01*
X84701000Y-34527740D01*
X99219964Y-34527740D01*
X99268606Y-34688107D01*
X99398764Y-34959414D01*
X99579351Y-35200116D01*
X99803427Y-35400962D01*
X100062380Y-35554234D01*
X100346259Y-35654041D01*
X100584000Y-35533992D01*
X100584000Y-34290000D01*
X99340622Y-34290000D01*
X99219964Y-34527740D01*
X84701000Y-34527740D01*
X84701000Y-33798260D01*
X99219964Y-33798260D01*
X99340622Y-34036000D01*
X100584000Y-34036000D01*
X100584000Y-32792008D01*
X100838000Y-32792008D01*
X100838000Y-34036000D01*
X100858000Y-34036000D01*
X100858000Y-34290000D01*
X100838000Y-34290000D01*
X100838000Y-35533992D01*
X101075741Y-35654041D01*
X101359620Y-35554234D01*
X101618573Y-35400962D01*
X101753311Y-35280192D01*
X101761498Y-35307180D01*
X101820463Y-35417494D01*
X101899815Y-35514185D01*
X101996506Y-35593537D01*
X102106820Y-35652502D01*
X102226518Y-35688812D01*
X102351000Y-35701072D01*
X104151000Y-35701072D01*
X104275482Y-35688812D01*
X104395180Y-35652502D01*
X104505494Y-35593537D01*
X104602185Y-35514185D01*
X104681537Y-35417494D01*
X104740502Y-35307180D01*
X104776812Y-35187482D01*
X104789072Y-35063000D01*
X104789072Y-33263000D01*
X104776812Y-33138518D01*
X104740502Y-33018820D01*
X104681537Y-32908506D01*
X104602185Y-32811815D01*
X104505494Y-32732463D01*
X104395180Y-32673498D01*
X104275482Y-32637188D01*
X104151000Y-32624928D01*
X102351000Y-32624928D01*
X102226518Y-32637188D01*
X102106820Y-32673498D01*
X101996506Y-32732463D01*
X101899815Y-32811815D01*
X101820463Y-32908506D01*
X101761498Y-33018820D01*
X101753311Y-33045808D01*
X101618573Y-32925038D01*
X101359620Y-32771766D01*
X101075741Y-32671959D01*
X100838000Y-32792008D01*
X100584000Y-32792008D01*
X100346259Y-32671959D01*
X100062380Y-32771766D01*
X99803427Y-32925038D01*
X99579351Y-33125884D01*
X99398764Y-33366586D01*
X99268606Y-33637893D01*
X99219964Y-33798260D01*
X84701000Y-33798260D01*
X84701000Y-31109131D01*
X84839647Y-30970485D01*
X85021490Y-30934314D01*
X85275727Y-30829005D01*
X85504535Y-30676120D01*
X85624090Y-30556565D01*
X85828040Y-30556565D01*
X85895020Y-30796656D01*
X86144048Y-30913756D01*
X86411135Y-30980023D01*
X86686017Y-30992910D01*
X86958133Y-30951922D01*
X87217023Y-30858636D01*
X87332980Y-30796656D01*
X87399960Y-30556565D01*
X86614000Y-29770605D01*
X85828040Y-30556565D01*
X85624090Y-30556565D01*
X85699120Y-30481535D01*
X85852005Y-30252727D01*
X85908105Y-30117290D01*
X86434395Y-29591000D01*
X86793605Y-29591000D01*
X87319895Y-30117290D01*
X87375995Y-30252727D01*
X87528880Y-30481535D01*
X87723465Y-30676120D01*
X87952273Y-30829005D01*
X88206510Y-30934314D01*
X88476408Y-30988000D01*
X88751592Y-30988000D01*
X89021490Y-30934314D01*
X89275727Y-30829005D01*
X89369670Y-30766234D01*
X89400815Y-30804185D01*
X89497506Y-30883537D01*
X89607820Y-30942502D01*
X89727518Y-30978812D01*
X89852000Y-30991072D01*
X91376000Y-30991072D01*
X91500482Y-30978812D01*
X91620180Y-30942502D01*
X91730494Y-30883537D01*
X91827185Y-30804185D01*
X91906537Y-30707494D01*
X91965502Y-30597180D01*
X91999992Y-30483481D01*
X100379124Y-30483481D01*
X100691308Y-30932177D01*
X101287259Y-31252612D01*
X101934273Y-31450626D01*
X102607484Y-31518610D01*
X103281023Y-31453949D01*
X103929006Y-31259130D01*
X104526530Y-30941639D01*
X104540692Y-30932177D01*
X104852876Y-30483481D01*
X102616000Y-28246605D01*
X100379124Y-30483481D01*
X91999992Y-30483481D01*
X92001812Y-30477482D01*
X92014072Y-30353000D01*
X92014072Y-28829000D01*
X92001812Y-28704518D01*
X91965502Y-28584820D01*
X91906537Y-28474506D01*
X91827185Y-28377815D01*
X91730494Y-28298463D01*
X91620180Y-28239498D01*
X91500482Y-28203188D01*
X91376000Y-28190928D01*
X89852000Y-28190928D01*
X89727518Y-28203188D01*
X89607820Y-28239498D01*
X89497506Y-28298463D01*
X89400815Y-28377815D01*
X89369670Y-28415766D01*
X89275727Y-28352995D01*
X89021490Y-28247686D01*
X88751592Y-28194000D01*
X88476408Y-28194000D01*
X88206510Y-28247686D01*
X87952273Y-28352995D01*
X87723465Y-28505880D01*
X87528880Y-28700465D01*
X87375995Y-28929273D01*
X87319895Y-29064710D01*
X86793605Y-29591000D01*
X86434395Y-29591000D01*
X85908105Y-29064710D01*
X85852005Y-28929273D01*
X85699120Y-28700465D01*
X85624090Y-28625435D01*
X85828040Y-28625435D01*
X86614000Y-29411395D01*
X87399960Y-28625435D01*
X87332980Y-28385344D01*
X87083952Y-28268244D01*
X86816865Y-28201977D01*
X86541983Y-28189090D01*
X86269867Y-28230078D01*
X86010977Y-28323364D01*
X85895020Y-28385344D01*
X85828040Y-28625435D01*
X85624090Y-28625435D01*
X85504535Y-28505880D01*
X85275727Y-28352995D01*
X85021490Y-28247686D01*
X84751592Y-28194000D01*
X84476408Y-28194000D01*
X84206510Y-28247686D01*
X83952273Y-28352995D01*
X83723465Y-28505880D01*
X83646345Y-28583000D01*
X82605751Y-28583000D01*
X82550000Y-28577509D01*
X82494249Y-28583000D01*
X79267817Y-28583000D01*
X79210505Y-28525688D01*
X78959095Y-28357701D01*
X78679743Y-28241989D01*
X78383184Y-28183000D01*
X78080816Y-28183000D01*
X77784257Y-28241989D01*
X77504905Y-28357701D01*
X77253495Y-28525688D01*
X77196183Y-28583000D01*
X63809752Y-28583000D01*
X63754000Y-28577509D01*
X63698248Y-28583000D01*
X63531501Y-28599423D01*
X63317553Y-28664324D01*
X63120377Y-28769716D01*
X62947551Y-28911551D01*
X62912011Y-28954857D01*
X59106655Y-32760214D01*
X59018299Y-32546905D01*
X58850312Y-32295495D01*
X58636505Y-32081688D01*
X58385095Y-31913701D01*
X58105743Y-31797989D01*
X57809184Y-31739000D01*
X57506816Y-31739000D01*
X57210257Y-31797989D01*
X56930905Y-31913701D01*
X56679495Y-32081688D01*
X56465688Y-32295495D01*
X56297701Y-32546905D01*
X56181989Y-32826257D01*
X56123000Y-33122816D01*
X56123000Y-33425184D01*
X56181989Y-33721743D01*
X56297701Y-34001095D01*
X56465688Y-34252505D01*
X56532127Y-34318944D01*
X56513820Y-34324498D01*
X56403506Y-34383463D01*
X56306815Y-34462815D01*
X56227463Y-34559506D01*
X56168498Y-34669820D01*
X56132188Y-34789518D01*
X56119928Y-34914000D01*
X56119928Y-35746941D01*
X51814865Y-40052004D01*
X51771551Y-40087551D01*
X51629716Y-40260377D01*
X51528362Y-40450000D01*
X51524324Y-40457554D01*
X51459423Y-40671502D01*
X51437509Y-40894000D01*
X51443000Y-40949752D01*
X51443001Y-45950000D01*
X39779608Y-45950000D01*
X39700567Y-45870959D01*
X39940656Y-45803980D01*
X40057756Y-45554952D01*
X40124023Y-45287865D01*
X40136910Y-45012983D01*
X40095922Y-44740867D01*
X40002636Y-44481977D01*
X39940656Y-44366020D01*
X39700565Y-44299040D01*
X38914605Y-45085000D01*
X38928748Y-45099143D01*
X38749143Y-45278748D01*
X38735000Y-45264605D01*
X38208710Y-45790895D01*
X38073273Y-45846995D01*
X37844465Y-45999880D01*
X37649880Y-46194465D01*
X37496995Y-46423273D01*
X37391686Y-46677510D01*
X37338000Y-46947408D01*
X31146119Y-46947408D01*
X31146341Y-45157017D01*
X37333090Y-45157017D01*
X37374078Y-45429133D01*
X37467364Y-45688023D01*
X37529344Y-45803980D01*
X37769435Y-45870960D01*
X38555395Y-45085000D01*
X37769435Y-44299040D01*
X37529344Y-44366020D01*
X37412244Y-44615048D01*
X37345977Y-44882135D01*
X37333090Y-45157017D01*
X31146341Y-45157017D01*
X31146938Y-40323000D01*
X37334928Y-40323000D01*
X37334928Y-41847000D01*
X37347188Y-41971482D01*
X37383498Y-42091180D01*
X37442463Y-42201494D01*
X37521815Y-42298185D01*
X37559766Y-42329330D01*
X37496995Y-42423273D01*
X37391686Y-42677510D01*
X37338000Y-42947408D01*
X37338000Y-43222592D01*
X37391686Y-43492490D01*
X37496995Y-43746727D01*
X37649880Y-43975535D01*
X37844465Y-44170120D01*
X38073273Y-44323005D01*
X38208710Y-44379105D01*
X38735000Y-44905395D01*
X39261290Y-44379105D01*
X39396727Y-44323005D01*
X39625535Y-44170120D01*
X39820120Y-43975535D01*
X39973005Y-43746727D01*
X40078314Y-43492490D01*
X40132000Y-43222592D01*
X40132000Y-42947408D01*
X40078314Y-42677510D01*
X39973005Y-42423273D01*
X39910234Y-42329330D01*
X39948185Y-42298185D01*
X40027537Y-42201494D01*
X40086502Y-42091180D01*
X40122812Y-41971482D01*
X40135072Y-41847000D01*
X40135072Y-40323000D01*
X40122812Y-40198518D01*
X40086502Y-40078820D01*
X40027537Y-39968506D01*
X39948185Y-39871815D01*
X39851494Y-39792463D01*
X39741180Y-39733498D01*
X39621482Y-39697188D01*
X39497000Y-39684928D01*
X37973000Y-39684928D01*
X37848518Y-39697188D01*
X37728820Y-39733498D01*
X37618506Y-39792463D01*
X37521815Y-39871815D01*
X37442463Y-39968506D01*
X37383498Y-40078820D01*
X37347188Y-40198518D01*
X37334928Y-40323000D01*
X31146938Y-40323000D01*
X31147708Y-34091764D01*
X39207841Y-34091764D01*
X39255148Y-34315348D01*
X39476516Y-34416237D01*
X39713313Y-34472000D01*
X39956438Y-34480495D01*
X40196549Y-34441395D01*
X40424418Y-34356202D01*
X40500852Y-34315348D01*
X40548159Y-34091764D01*
X39878000Y-33421605D01*
X39207841Y-34091764D01*
X31147708Y-34091764D01*
X31147804Y-33320438D01*
X38639505Y-33320438D01*
X38678605Y-33560549D01*
X38763798Y-33788418D01*
X38804652Y-33864852D01*
X39028236Y-33912159D01*
X39698395Y-33242000D01*
X39684253Y-33227858D01*
X39863858Y-33048253D01*
X39878000Y-33062395D01*
X39892143Y-33048253D01*
X40071748Y-33227858D01*
X40057605Y-33242000D01*
X40727764Y-33912159D01*
X40951348Y-33864852D01*
X41052237Y-33643484D01*
X41108000Y-33406687D01*
X41116495Y-33163562D01*
X41077395Y-32923451D01*
X40992202Y-32695582D01*
X40951348Y-32619148D01*
X40727766Y-32571842D01*
X40844872Y-32454736D01*
X40786994Y-32396858D01*
X40832494Y-32372537D01*
X40929185Y-32293185D01*
X41008537Y-32196494D01*
X41067502Y-32086180D01*
X41103812Y-31966482D01*
X41116072Y-31842000D01*
X41116072Y-30642000D01*
X41103812Y-30517518D01*
X41067502Y-30397820D01*
X41008537Y-30287506D01*
X40971192Y-30242000D01*
X45351928Y-30242000D01*
X45351928Y-32242000D01*
X45364188Y-32366482D01*
X45400498Y-32486180D01*
X45459463Y-32596494D01*
X45538815Y-32693185D01*
X45635506Y-32772537D01*
X45745820Y-32831502D01*
X45865518Y-32867812D01*
X45990000Y-32880072D01*
X47990000Y-32880072D01*
X48114482Y-32867812D01*
X48234180Y-32831502D01*
X48344494Y-32772537D01*
X48441185Y-32693185D01*
X48520537Y-32596494D01*
X48579502Y-32486180D01*
X48595037Y-32434967D01*
X48669956Y-32641814D01*
X48959571Y-32782704D01*
X49271108Y-32864384D01*
X49592595Y-32883718D01*
X49911675Y-32839961D01*
X50216088Y-32734795D01*
X50390044Y-32641814D01*
X50485808Y-32377413D01*
X49530000Y-31421605D01*
X49515858Y-31435748D01*
X49336253Y-31256143D01*
X49350395Y-31242000D01*
X49709605Y-31242000D01*
X50665413Y-32197808D01*
X50727280Y-32175400D01*
X50800013Y-32284252D01*
X51027748Y-32511987D01*
X51295537Y-32690918D01*
X51593088Y-32814168D01*
X51908967Y-32877000D01*
X52231033Y-32877000D01*
X52546912Y-32814168D01*
X52844463Y-32690918D01*
X53112252Y-32511987D01*
X53339987Y-32284252D01*
X53518918Y-32016463D01*
X53642168Y-31718912D01*
X53705000Y-31403033D01*
X53705000Y-31080967D01*
X53642168Y-30765088D01*
X53518918Y-30467537D01*
X53339987Y-30199748D01*
X53112252Y-29972013D01*
X52844463Y-29793082D01*
X52546912Y-29669832D01*
X52231033Y-29607000D01*
X51908967Y-29607000D01*
X51593088Y-29669832D01*
X51295537Y-29793082D01*
X51027748Y-29972013D01*
X50800013Y-30199748D01*
X50727280Y-30308600D01*
X50665413Y-30286192D01*
X49709605Y-31242000D01*
X49350395Y-31242000D01*
X49336253Y-31227858D01*
X49515858Y-31048253D01*
X49530000Y-31062395D01*
X50485808Y-30106587D01*
X50390044Y-29842186D01*
X50100429Y-29701296D01*
X49788892Y-29619616D01*
X49467405Y-29600282D01*
X49148325Y-29644039D01*
X48843912Y-29749205D01*
X48669956Y-29842186D01*
X48595037Y-30049033D01*
X48579502Y-29997820D01*
X48520537Y-29887506D01*
X48441185Y-29790815D01*
X48344494Y-29711463D01*
X48234180Y-29652498D01*
X48114482Y-29616188D01*
X47990000Y-29603928D01*
X45990000Y-29603928D01*
X45865518Y-29616188D01*
X45745820Y-29652498D01*
X45635506Y-29711463D01*
X45538815Y-29790815D01*
X45459463Y-29887506D01*
X45400498Y-29997820D01*
X45364188Y-30117518D01*
X45351928Y-30242000D01*
X40971192Y-30242000D01*
X40929185Y-30190815D01*
X40832494Y-30111463D01*
X40722180Y-30052498D01*
X40602482Y-30016188D01*
X40478000Y-30003928D01*
X39278000Y-30003928D01*
X39153518Y-30016188D01*
X39033820Y-30052498D01*
X38923506Y-30111463D01*
X38826815Y-30190815D01*
X38747463Y-30287506D01*
X38688498Y-30397820D01*
X38652188Y-30517518D01*
X38639928Y-30642000D01*
X38639928Y-31842000D01*
X38652188Y-31966482D01*
X38688498Y-32086180D01*
X38747463Y-32196494D01*
X38826815Y-32293185D01*
X38923506Y-32372537D01*
X38969006Y-32396858D01*
X38911128Y-32454736D01*
X39028234Y-32571842D01*
X38804652Y-32619148D01*
X38703763Y-32840516D01*
X38648000Y-33077313D01*
X38639505Y-33320438D01*
X31147804Y-33320438D01*
X31148171Y-30356481D01*
X32180124Y-30356481D01*
X32492308Y-30805177D01*
X33088259Y-31125612D01*
X33735273Y-31323626D01*
X34408484Y-31391610D01*
X35082023Y-31326949D01*
X35730006Y-31132130D01*
X36327530Y-30814639D01*
X36341692Y-30805177D01*
X36653876Y-30356481D01*
X34417000Y-28119605D01*
X32180124Y-30356481D01*
X31148171Y-30356481D01*
X31148339Y-28998457D01*
X31224870Y-29253006D01*
X31542361Y-29850530D01*
X31551823Y-29864692D01*
X32000519Y-30176876D01*
X34237395Y-27940000D01*
X34596605Y-27940000D01*
X36833481Y-30176876D01*
X37282177Y-29864692D01*
X37602612Y-29268741D01*
X37800626Y-28621727D01*
X37857504Y-28058484D01*
X99164390Y-28058484D01*
X99229051Y-28732023D01*
X99423870Y-29380006D01*
X99741361Y-29977530D01*
X99750823Y-29991692D01*
X100199519Y-30303876D01*
X102436395Y-28067000D01*
X100199519Y-25830124D01*
X99750823Y-26142308D01*
X99430388Y-26738259D01*
X99232374Y-27385273D01*
X99164390Y-28058484D01*
X37857504Y-28058484D01*
X37868610Y-27948516D01*
X37803949Y-27274977D01*
X37609130Y-26626994D01*
X37291639Y-26029470D01*
X37282177Y-26015308D01*
X36833481Y-25703124D01*
X34596605Y-27940000D01*
X34237395Y-27940000D01*
X34223253Y-27925858D01*
X34402858Y-27746253D01*
X34417000Y-27760395D01*
X36653876Y-25523519D01*
X36341692Y-25074823D01*
X35811973Y-24790000D01*
X101585278Y-24790000D01*
X101302994Y-24874870D01*
G04 #@! TA.AperFunction,Conductor*
D30*
G36*
X101302994Y-24874870D02*
G01*
X100705470Y-25192361D01*
X100691308Y-25201823D01*
X100379124Y-25650519D01*
X102616000Y-27887395D01*
X102630143Y-27873253D01*
X102809748Y-28052858D01*
X102795605Y-28067000D01*
X105032481Y-30303876D01*
X105481177Y-29991692D01*
X105801612Y-29395741D01*
X105999626Y-28748727D01*
X106020076Y-28546224D01*
X106028318Y-95389943D01*
X105935130Y-95079994D01*
X105617639Y-94482470D01*
X105608177Y-94468308D01*
X105159481Y-94156124D01*
X102922605Y-96393000D01*
X102936748Y-96407143D01*
X102757143Y-96586748D01*
X102743000Y-96572605D01*
X100506124Y-98809481D01*
X100818308Y-99258177D01*
X101414259Y-99578612D01*
X101712868Y-99669999D01*
X35574719Y-99670001D01*
X35857006Y-99585130D01*
X36454530Y-99267639D01*
X36468692Y-99258177D01*
X36780876Y-98809481D01*
X34544000Y-96572605D01*
X34529858Y-96586748D01*
X34350253Y-96407143D01*
X34364395Y-96393000D01*
X34723605Y-96393000D01*
X36960481Y-98629876D01*
X37409177Y-98317692D01*
X37729612Y-97721741D01*
X37927626Y-97074727D01*
X37995610Y-96401516D01*
X37993975Y-96384484D01*
X99291390Y-96384484D01*
X99356051Y-97058023D01*
X99550870Y-97706006D01*
X99868361Y-98303530D01*
X99877823Y-98317692D01*
X100326519Y-98629876D01*
X102563395Y-96393000D01*
X100326519Y-94156124D01*
X99877823Y-94468308D01*
X99557388Y-95064259D01*
X99359374Y-95711273D01*
X99291390Y-96384484D01*
X37993975Y-96384484D01*
X37930949Y-95727977D01*
X37736130Y-95079994D01*
X37418639Y-94482470D01*
X37409177Y-94468308D01*
X36960481Y-94156124D01*
X34723605Y-96393000D01*
X34364395Y-96393000D01*
X32127519Y-94156124D01*
X31678823Y-94468308D01*
X31358388Y-95064259D01*
X31160374Y-95711273D01*
X31140074Y-95912293D01*
X31140313Y-93976519D01*
X32307124Y-93976519D01*
X34544000Y-96213395D01*
X36780876Y-93976519D01*
X100506124Y-93976519D01*
X102743000Y-96213395D01*
X104979876Y-93976519D01*
X104667692Y-93527823D01*
X104071741Y-93207388D01*
X103424727Y-93009374D01*
X102751516Y-92941390D01*
X102077977Y-93006051D01*
X101429994Y-93200870D01*
X100832470Y-93518361D01*
X100818308Y-93527823D01*
X100506124Y-93976519D01*
X36780876Y-93976519D01*
X36468692Y-93527823D01*
X35872741Y-93207388D01*
X35225727Y-93009374D01*
X34552516Y-92941390D01*
X33878977Y-93006051D01*
X33230994Y-93200870D01*
X32633470Y-93518361D01*
X32619308Y-93527823D01*
X32307124Y-93976519D01*
X31140313Y-93976519D01*
X31141959Y-80645000D01*
X37077743Y-80645000D01*
X37106705Y-80939051D01*
X37192476Y-81221802D01*
X37331762Y-81482387D01*
X37519208Y-81710792D01*
X37747613Y-81898238D01*
X37778972Y-81915000D01*
X37747613Y-81931762D01*
X37519208Y-82119208D01*
X37331762Y-82347613D01*
X37192476Y-82608198D01*
X37106705Y-82890949D01*
X37077743Y-83185000D01*
X37106705Y-83479051D01*
X37192476Y-83761802D01*
X37331762Y-84022387D01*
X37519208Y-84250792D01*
X37747613Y-84438238D01*
X37778972Y-84455000D01*
X37747613Y-84471762D01*
X37519208Y-84659208D01*
X37331762Y-84887613D01*
X37192476Y-85148198D01*
X37106705Y-85430949D01*
X37077743Y-85725000D01*
X37106705Y-86019051D01*
X37192476Y-86301802D01*
X37331762Y-86562387D01*
X37519208Y-86790792D01*
X37747613Y-86978238D01*
X38008198Y-87117524D01*
X38290949Y-87203295D01*
X38511320Y-87225000D01*
X38958680Y-87225000D01*
X39179051Y-87203295D01*
X39461802Y-87117524D01*
X39722387Y-86978238D01*
X39866461Y-86860000D01*
X43251249Y-86860000D01*
X43307000Y-86865491D01*
X43362751Y-86860000D01*
X43362752Y-86860000D01*
X43529499Y-86843577D01*
X43743447Y-86778676D01*
X43940623Y-86673284D01*
X44113449Y-86531449D01*
X44148995Y-86488136D01*
X45037988Y-85599144D01*
X45077612Y-85559520D01*
X45108742Y-85512930D01*
X45144284Y-85469623D01*
X45170693Y-85420214D01*
X45201824Y-85373624D01*
X45223269Y-85321851D01*
X45249676Y-85272447D01*
X45265937Y-85218842D01*
X45287383Y-85167067D01*
X45298315Y-85112106D01*
X45314577Y-85058499D01*
X45320068Y-85002747D01*
X45331000Y-84947788D01*
X45331000Y-84891752D01*
X45336491Y-84836000D01*
X45331000Y-84780248D01*
X45331000Y-84724212D01*
X45320068Y-84669253D01*
X45314577Y-84613501D01*
X45298315Y-84559895D01*
X45287383Y-84504933D01*
X45265936Y-84453156D01*
X45249676Y-84399554D01*
X45223271Y-84350153D01*
X45201824Y-84298376D01*
X45170691Y-84251782D01*
X45144284Y-84202378D01*
X45108744Y-84159072D01*
X45077612Y-84112480D01*
X45037990Y-84072858D01*
X45002449Y-84029551D01*
X44959142Y-83994010D01*
X44919520Y-83954388D01*
X44872928Y-83923256D01*
X44829622Y-83887716D01*
X44780218Y-83861309D01*
X44733624Y-83830176D01*
X44681847Y-83808729D01*
X44632446Y-83782324D01*
X44578844Y-83766064D01*
X44527067Y-83744617D01*
X44472105Y-83733685D01*
X44418499Y-83717423D01*
X44362747Y-83711932D01*
X44307788Y-83701000D01*
X44251752Y-83701000D01*
X44196000Y-83695509D01*
X44140248Y-83701000D01*
X44084212Y-83701000D01*
X44029253Y-83711932D01*
X43973501Y-83717423D01*
X43919894Y-83733685D01*
X43864933Y-83744617D01*
X43813158Y-83766063D01*
X43759553Y-83782324D01*
X43710149Y-83808731D01*
X43658376Y-83830176D01*
X43611786Y-83861307D01*
X43562377Y-83887716D01*
X43519070Y-83923258D01*
X43472480Y-83954388D01*
X43432856Y-83994012D01*
X42836869Y-84590000D01*
X39866461Y-84590000D01*
X39722387Y-84471762D01*
X39691028Y-84455000D01*
X39722387Y-84438238D01*
X39950792Y-84250792D01*
X40101414Y-84067258D01*
X40139606Y-84105450D01*
X40333692Y-84235134D01*
X40549348Y-84324461D01*
X40778288Y-84370000D01*
X41011712Y-84370000D01*
X41240652Y-84324461D01*
X41456308Y-84235134D01*
X41650394Y-84105450D01*
X41815450Y-83940394D01*
X41945134Y-83746308D01*
X42034461Y-83530652D01*
X42080000Y-83301712D01*
X42080000Y-83068288D01*
X42034461Y-82839348D01*
X41945134Y-82623692D01*
X41815450Y-82429606D01*
X41650394Y-82264550D01*
X41456308Y-82134866D01*
X41240652Y-82045539D01*
X41011712Y-82000000D01*
X40778288Y-82000000D01*
X40549348Y-82045539D01*
X40333692Y-82134866D01*
X40139606Y-82264550D01*
X40101414Y-82302742D01*
X39950792Y-82119208D01*
X39722387Y-81931762D01*
X39691028Y-81915000D01*
X39722387Y-81898238D01*
X39950792Y-81710792D01*
X40138238Y-81482387D01*
X40277524Y-81221802D01*
X40363295Y-80939051D01*
X40392257Y-80645000D01*
X40363295Y-80350949D01*
X40277524Y-80068198D01*
X40138238Y-79807613D01*
X39950792Y-79579208D01*
X39944970Y-79574430D01*
X39994180Y-79559502D01*
X40104494Y-79500537D01*
X40201185Y-79421185D01*
X40280537Y-79324494D01*
X40339502Y-79214180D01*
X40375812Y-79094482D01*
X40388072Y-78970000D01*
X40385000Y-78390750D01*
X40226250Y-78232000D01*
X38862000Y-78232000D01*
X38862000Y-78252000D01*
X38608000Y-78252000D01*
X38608000Y-78232000D01*
X37243750Y-78232000D01*
X37085000Y-78390750D01*
X37081928Y-78970000D01*
X37094188Y-79094482D01*
X37130498Y-79214180D01*
X37189463Y-79324494D01*
X37268815Y-79421185D01*
X37365506Y-79500537D01*
X37475820Y-79559502D01*
X37525030Y-79574430D01*
X37519208Y-79579208D01*
X37331762Y-79807613D01*
X37192476Y-80068198D01*
X37106705Y-80350949D01*
X37077743Y-80645000D01*
X31141959Y-80645000D01*
X31142379Y-77240000D01*
X37081928Y-77240000D01*
X37085000Y-77819250D01*
X37243750Y-77978000D01*
X38608000Y-77978000D01*
X38608000Y-76763750D01*
X38862000Y-76763750D01*
X38862000Y-77978000D01*
X40226250Y-77978000D01*
X40385000Y-77819250D01*
X40388072Y-77240000D01*
X40375812Y-77115518D01*
X40339502Y-76995820D01*
X40280537Y-76885506D01*
X40201185Y-76788815D01*
X40104494Y-76709463D01*
X39994180Y-76650498D01*
X39874482Y-76614188D01*
X39750000Y-76601928D01*
X39020750Y-76605000D01*
X38862000Y-76763750D01*
X38608000Y-76763750D01*
X38449250Y-76605000D01*
X37720000Y-76601928D01*
X37595518Y-76614188D01*
X37475820Y-76650498D01*
X37365506Y-76709463D01*
X37268815Y-76788815D01*
X37189463Y-76885506D01*
X37130498Y-76995820D01*
X37094188Y-77115518D01*
X37081928Y-77240000D01*
X31142379Y-77240000D01*
X31143527Y-67945000D01*
X37077743Y-67945000D01*
X37106705Y-68239051D01*
X37192476Y-68521802D01*
X37331762Y-68782387D01*
X37519208Y-69010792D01*
X37747613Y-69198238D01*
X37778972Y-69215000D01*
X37747613Y-69231762D01*
X37519208Y-69419208D01*
X37331762Y-69647613D01*
X37192476Y-69908198D01*
X37106705Y-70190949D01*
X37077743Y-70485000D01*
X37106705Y-70779051D01*
X37192476Y-71061802D01*
X37331762Y-71322387D01*
X37519208Y-71550792D01*
X37747613Y-71738238D01*
X37778972Y-71755000D01*
X37747613Y-71771762D01*
X37519208Y-71959208D01*
X37331762Y-72187613D01*
X37192476Y-72448198D01*
X37106705Y-72730949D01*
X37077743Y-73025000D01*
X37106705Y-73319051D01*
X37192476Y-73601802D01*
X37331762Y-73862387D01*
X37519208Y-74090792D01*
X37747613Y-74278238D01*
X38008198Y-74417524D01*
X38290949Y-74503295D01*
X38511320Y-74525000D01*
X38958680Y-74525000D01*
X39179051Y-74503295D01*
X39461802Y-74417524D01*
X39722387Y-74278238D01*
X39866461Y-74160000D01*
X45791249Y-74160000D01*
X45847000Y-74165491D01*
X45902751Y-74160000D01*
X45902752Y-74160000D01*
X46069499Y-74143577D01*
X46283447Y-74078676D01*
X46480623Y-73973284D01*
X46653449Y-73831449D01*
X46688995Y-73788136D01*
X47323989Y-73153143D01*
X47363612Y-73113520D01*
X47394742Y-73066931D01*
X47430284Y-73023623D01*
X47456693Y-72974214D01*
X47487824Y-72927624D01*
X47509269Y-72875851D01*
X47535676Y-72826447D01*
X47551937Y-72772842D01*
X47573383Y-72721067D01*
X47584315Y-72666106D01*
X47600577Y-72612499D01*
X47606068Y-72556747D01*
X47617000Y-72501788D01*
X47617000Y-72445752D01*
X47622491Y-72390000D01*
X47617000Y-72334248D01*
X47617000Y-72278212D01*
X47606068Y-72223253D01*
X47600577Y-72167501D01*
X47584315Y-72113894D01*
X47573383Y-72058933D01*
X47551937Y-72007158D01*
X47535676Y-71953553D01*
X47509269Y-71904149D01*
X47487824Y-71852376D01*
X47456693Y-71805786D01*
X47430284Y-71756377D01*
X47394741Y-71713068D01*
X47363612Y-71666480D01*
X47323991Y-71626859D01*
X47288449Y-71583551D01*
X47245141Y-71548009D01*
X47205520Y-71508388D01*
X47158932Y-71477259D01*
X47115623Y-71441716D01*
X47066214Y-71415307D01*
X47019624Y-71384176D01*
X46967851Y-71362731D01*
X46918447Y-71336324D01*
X46864842Y-71320063D01*
X46813067Y-71298617D01*
X46758106Y-71287685D01*
X46704499Y-71271423D01*
X46648747Y-71265932D01*
X46593788Y-71255000D01*
X46537752Y-71255000D01*
X46482000Y-71249509D01*
X46426248Y-71255000D01*
X46370212Y-71255000D01*
X46315253Y-71265932D01*
X46259501Y-71271423D01*
X46205894Y-71287685D01*
X46150933Y-71298617D01*
X46099158Y-71320063D01*
X46045553Y-71336324D01*
X45996149Y-71362731D01*
X45944376Y-71384176D01*
X45897786Y-71415307D01*
X45848377Y-71441716D01*
X45805069Y-71477258D01*
X45758480Y-71508388D01*
X45376868Y-71890000D01*
X39866461Y-71890000D01*
X39722387Y-71771762D01*
X39691028Y-71755000D01*
X39722387Y-71738238D01*
X39950792Y-71550792D01*
X40101414Y-71367258D01*
X40139606Y-71405450D01*
X40333692Y-71535134D01*
X40549348Y-71624461D01*
X40778288Y-71670000D01*
X41011712Y-71670000D01*
X41240652Y-71624461D01*
X41456308Y-71535134D01*
X41650394Y-71405450D01*
X41815450Y-71240394D01*
X41945134Y-71046308D01*
X42034461Y-70830652D01*
X42080000Y-70601712D01*
X42080000Y-70368288D01*
X42034461Y-70139348D01*
X41945134Y-69923692D01*
X41815450Y-69729606D01*
X41650394Y-69564550D01*
X41456308Y-69434866D01*
X41240652Y-69345539D01*
X41011712Y-69300000D01*
X40778288Y-69300000D01*
X40549348Y-69345539D01*
X40333692Y-69434866D01*
X40139606Y-69564550D01*
X40101414Y-69602742D01*
X39950792Y-69419208D01*
X39722387Y-69231762D01*
X39691028Y-69215000D01*
X39722387Y-69198238D01*
X39950792Y-69010792D01*
X40138238Y-68782387D01*
X40277524Y-68521802D01*
X40363295Y-68239051D01*
X40392257Y-67945000D01*
X40363295Y-67650949D01*
X40277524Y-67368198D01*
X40138238Y-67107613D01*
X39950792Y-66879208D01*
X39944970Y-66874430D01*
X39994180Y-66859502D01*
X40104494Y-66800537D01*
X40201185Y-66721185D01*
X40280537Y-66624494D01*
X40339502Y-66514180D01*
X40375812Y-66394482D01*
X40388072Y-66270000D01*
X40385000Y-65690750D01*
X40226250Y-65532000D01*
X38862000Y-65532000D01*
X38862000Y-65552000D01*
X38608000Y-65552000D01*
X38608000Y-65532000D01*
X37243750Y-65532000D01*
X37085000Y-65690750D01*
X37081928Y-66270000D01*
X37094188Y-66394482D01*
X37130498Y-66514180D01*
X37189463Y-66624494D01*
X37268815Y-66721185D01*
X37365506Y-66800537D01*
X37475820Y-66859502D01*
X37525030Y-66874430D01*
X37519208Y-66879208D01*
X37331762Y-67107613D01*
X37192476Y-67368198D01*
X37106705Y-67650949D01*
X37077743Y-67945000D01*
X31143527Y-67945000D01*
X31143947Y-64540000D01*
X37081928Y-64540000D01*
X37085000Y-65119250D01*
X37243750Y-65278000D01*
X38608000Y-65278000D01*
X38608000Y-64063750D01*
X38862000Y-64063750D01*
X38862000Y-65278000D01*
X40226250Y-65278000D01*
X40385000Y-65119250D01*
X40388072Y-64540000D01*
X40375812Y-64415518D01*
X40339502Y-64295820D01*
X40280537Y-64185506D01*
X40201185Y-64088815D01*
X40104494Y-64009463D01*
X39994180Y-63950498D01*
X39874482Y-63914188D01*
X39750000Y-63901928D01*
X39020750Y-63905000D01*
X38862000Y-64063750D01*
X38608000Y-64063750D01*
X38449250Y-63905000D01*
X37720000Y-63901928D01*
X37595518Y-63914188D01*
X37475820Y-63950498D01*
X37365506Y-64009463D01*
X37268815Y-64088815D01*
X37189463Y-64185506D01*
X37130498Y-64295820D01*
X37094188Y-64415518D01*
X37081928Y-64540000D01*
X31143947Y-64540000D01*
X31145096Y-55245000D01*
X37077743Y-55245000D01*
X37106705Y-55539051D01*
X37192476Y-55821802D01*
X37331762Y-56082387D01*
X37519208Y-56310792D01*
X37747613Y-56498238D01*
X37778972Y-56515000D01*
X37747613Y-56531762D01*
X37519208Y-56719208D01*
X37331762Y-56947613D01*
X37192476Y-57208198D01*
X37106705Y-57490949D01*
X37077743Y-57785000D01*
X37106705Y-58079051D01*
X37192476Y-58361802D01*
X37331762Y-58622387D01*
X37519208Y-58850792D01*
X37747613Y-59038238D01*
X37778972Y-59055000D01*
X37747613Y-59071762D01*
X37519208Y-59259208D01*
X37331762Y-59487613D01*
X37192476Y-59748198D01*
X37106705Y-60030949D01*
X37077743Y-60325000D01*
X37106705Y-60619051D01*
X37192476Y-60901802D01*
X37331762Y-61162387D01*
X37519208Y-61390792D01*
X37747613Y-61578238D01*
X38008198Y-61717524D01*
X38290949Y-61803295D01*
X38511320Y-61825000D01*
X38958680Y-61825000D01*
X39179051Y-61803295D01*
X39461802Y-61717524D01*
X39722387Y-61578238D01*
X39866461Y-61460000D01*
X45029249Y-61460000D01*
X45085000Y-61465491D01*
X45140751Y-61460000D01*
X45140752Y-61460000D01*
X45307499Y-61443577D01*
X45521447Y-61378676D01*
X45718623Y-61273284D01*
X45891449Y-61131449D01*
X45926995Y-61088136D01*
X46561989Y-60453143D01*
X46601612Y-60413520D01*
X46632742Y-60366931D01*
X46668284Y-60323623D01*
X46694693Y-60274214D01*
X46725824Y-60227624D01*
X46747269Y-60175851D01*
X46773676Y-60126447D01*
X46789937Y-60072842D01*
X46811383Y-60021067D01*
X46822315Y-59966106D01*
X46838577Y-59912499D01*
X46844068Y-59856747D01*
X46855000Y-59801788D01*
X46855000Y-59745752D01*
X46860491Y-59690000D01*
X46855000Y-59634248D01*
X46855000Y-59578212D01*
X46844068Y-59523253D01*
X46838577Y-59467501D01*
X46822315Y-59413894D01*
X46811383Y-59358933D01*
X46789937Y-59307158D01*
X46773676Y-59253553D01*
X46747269Y-59204149D01*
X46725824Y-59152376D01*
X46694693Y-59105786D01*
X46668284Y-59056377D01*
X46632741Y-59013068D01*
X46601612Y-58966480D01*
X46561991Y-58926859D01*
X46526449Y-58883551D01*
X46483141Y-58848009D01*
X46443520Y-58808388D01*
X46396932Y-58777259D01*
X46353623Y-58741716D01*
X46304214Y-58715307D01*
X46257624Y-58684176D01*
X46205851Y-58662731D01*
X46156447Y-58636324D01*
X46102842Y-58620063D01*
X46051067Y-58598617D01*
X45996106Y-58587685D01*
X45942499Y-58571423D01*
X45886747Y-58565932D01*
X45831788Y-58555000D01*
X45775752Y-58555000D01*
X45720000Y-58549509D01*
X45664248Y-58555000D01*
X45608212Y-58555000D01*
X45553253Y-58565932D01*
X45497501Y-58571423D01*
X45443894Y-58587685D01*
X45388933Y-58598617D01*
X45337158Y-58620063D01*
X45283553Y-58636324D01*
X45234149Y-58662731D01*
X45182376Y-58684176D01*
X45135786Y-58715307D01*
X45086377Y-58741716D01*
X45043069Y-58777258D01*
X44996480Y-58808388D01*
X44614868Y-59190000D01*
X39866461Y-59190000D01*
X39722387Y-59071762D01*
X39691028Y-59055000D01*
X39722387Y-59038238D01*
X39950792Y-58850792D01*
X40101414Y-58667258D01*
X40139606Y-58705450D01*
X40333692Y-58835134D01*
X40549348Y-58924461D01*
X40778288Y-58970000D01*
X41011712Y-58970000D01*
X41240652Y-58924461D01*
X41456308Y-58835134D01*
X41650394Y-58705450D01*
X41815450Y-58540394D01*
X41945134Y-58346308D01*
X42034461Y-58130652D01*
X42080000Y-57901712D01*
X42080000Y-57668288D01*
X42034461Y-57439348D01*
X41945134Y-57223692D01*
X41815450Y-57029606D01*
X41650394Y-56864550D01*
X41456308Y-56734866D01*
X41240652Y-56645539D01*
X41011712Y-56600000D01*
X40778288Y-56600000D01*
X40549348Y-56645539D01*
X40333692Y-56734866D01*
X40139606Y-56864550D01*
X40101414Y-56902742D01*
X39950792Y-56719208D01*
X39722387Y-56531762D01*
X39691028Y-56515000D01*
X39722387Y-56498238D01*
X39950792Y-56310792D01*
X40138238Y-56082387D01*
X40277524Y-55821802D01*
X40363295Y-55539051D01*
X40392257Y-55245000D01*
X40363295Y-54950949D01*
X40277524Y-54668198D01*
X40138238Y-54407613D01*
X39950792Y-54179208D01*
X39944970Y-54174430D01*
X39994180Y-54159502D01*
X40104494Y-54100537D01*
X40201185Y-54021185D01*
X40280537Y-53924494D01*
X40339502Y-53814180D01*
X40375812Y-53694482D01*
X40388072Y-53570000D01*
X40385000Y-52990750D01*
X40226250Y-52832000D01*
X38862000Y-52832000D01*
X38862000Y-52852000D01*
X38608000Y-52852000D01*
X38608000Y-52832000D01*
X37243750Y-52832000D01*
X37085000Y-52990750D01*
X37081928Y-53570000D01*
X37094188Y-53694482D01*
X37130498Y-53814180D01*
X37189463Y-53924494D01*
X37268815Y-54021185D01*
X37365506Y-54100537D01*
X37475820Y-54159502D01*
X37525030Y-54174430D01*
X37519208Y-54179208D01*
X37331762Y-54407613D01*
X37192476Y-54668198D01*
X37106705Y-54950949D01*
X37077743Y-55245000D01*
X31145096Y-55245000D01*
X31145516Y-51840000D01*
X37081928Y-51840000D01*
X37085000Y-52419250D01*
X37243750Y-52578000D01*
X38608000Y-52578000D01*
X38608000Y-51363750D01*
X38862000Y-51363750D01*
X38862000Y-52578000D01*
X40226250Y-52578000D01*
X40385000Y-52419250D01*
X40388072Y-51840000D01*
X40375812Y-51715518D01*
X40339502Y-51595820D01*
X40280537Y-51485506D01*
X40201185Y-51388815D01*
X40104494Y-51309463D01*
X39994180Y-51250498D01*
X39874482Y-51214188D01*
X39750000Y-51201928D01*
X39020750Y-51205000D01*
X38862000Y-51363750D01*
X38608000Y-51363750D01*
X38449250Y-51205000D01*
X37720000Y-51201928D01*
X37595518Y-51214188D01*
X37475820Y-51250498D01*
X37365506Y-51309463D01*
X37268815Y-51388815D01*
X37189463Y-51485506D01*
X37130498Y-51595820D01*
X37094188Y-51715518D01*
X37081928Y-51840000D01*
X31145516Y-51840000D01*
X31146119Y-46947408D01*
X37338000Y-46947408D01*
X37338000Y-47222592D01*
X37391686Y-47492490D01*
X37496995Y-47746727D01*
X37649880Y-47975535D01*
X37844465Y-48170120D01*
X38073273Y-48323005D01*
X38327510Y-48428314D01*
X38597408Y-48482000D01*
X38872592Y-48482000D01*
X39142490Y-48428314D01*
X39396727Y-48323005D01*
X39550884Y-48220000D01*
X51443000Y-48220000D01*
X51443001Y-53284239D01*
X51443000Y-53284249D01*
X51443001Y-57187867D01*
X50583869Y-58047000D01*
X49672212Y-58047000D01*
X49617253Y-58057932D01*
X49561501Y-58063423D01*
X49507894Y-58079685D01*
X49452933Y-58090617D01*
X49401158Y-58112063D01*
X49347553Y-58128324D01*
X49298149Y-58154731D01*
X49246376Y-58176176D01*
X49199786Y-58207307D01*
X49150377Y-58233716D01*
X49107068Y-58269259D01*
X49060480Y-58300388D01*
X49020859Y-58340009D01*
X48977551Y-58375551D01*
X48942011Y-58418857D01*
X48902388Y-58458480D01*
X48871259Y-58505068D01*
X48835716Y-58548377D01*
X48809307Y-58597786D01*
X48778176Y-58644376D01*
X48756731Y-58696149D01*
X48730324Y-58745553D01*
X48714063Y-58799158D01*
X48692617Y-58850933D01*
X48681685Y-58905894D01*
X48665423Y-58959501D01*
X48659932Y-59015253D01*
X48649000Y-59070212D01*
X48649000Y-59126248D01*
X48643509Y-59182000D01*
X48649000Y-59237752D01*
X48649000Y-59293788D01*
X48659932Y-59348747D01*
X48665423Y-59404499D01*
X48681685Y-59458106D01*
X48692617Y-59513067D01*
X48714063Y-59564842D01*
X48730324Y-59618447D01*
X48756731Y-59667851D01*
X48778176Y-59719624D01*
X48809307Y-59766214D01*
X48835716Y-59815623D01*
X48871259Y-59858932D01*
X48902388Y-59905520D01*
X48942009Y-59945141D01*
X48977551Y-59988449D01*
X49020859Y-60023991D01*
X49060480Y-60063612D01*
X49107068Y-60094741D01*
X49150377Y-60130284D01*
X49199786Y-60156693D01*
X49246376Y-60187824D01*
X49298149Y-60209269D01*
X49347553Y-60235676D01*
X49401158Y-60251937D01*
X49452933Y-60273383D01*
X49507894Y-60284315D01*
X49561501Y-60300577D01*
X49617253Y-60306068D01*
X49672212Y-60317000D01*
X50998249Y-60317000D01*
X51054000Y-60322491D01*
X51109751Y-60317000D01*
X51109752Y-60317000D01*
X51276499Y-60300577D01*
X51443000Y-60250069D01*
X51443001Y-65857239D01*
X51443000Y-65857249D01*
X51443001Y-70649867D01*
X50588758Y-71504111D01*
X49871540Y-71504111D01*
X49816581Y-71515043D01*
X49760829Y-71520534D01*
X49707222Y-71536796D01*
X49652261Y-71547728D01*
X49600486Y-71569174D01*
X49546881Y-71585435D01*
X49497477Y-71611842D01*
X49445704Y-71633287D01*
X49399114Y-71664418D01*
X49349705Y-71690827D01*
X49306396Y-71726370D01*
X49259808Y-71757499D01*
X49220187Y-71797120D01*
X49176879Y-71832662D01*
X49141339Y-71875968D01*
X49101716Y-71915591D01*
X49070587Y-71962179D01*
X49035044Y-72005488D01*
X49008635Y-72054897D01*
X48977504Y-72101487D01*
X48956059Y-72153260D01*
X48929652Y-72202664D01*
X48913391Y-72256269D01*
X48891945Y-72308044D01*
X48881013Y-72363005D01*
X48864751Y-72416612D01*
X48859260Y-72472364D01*
X48848328Y-72527323D01*
X48848328Y-72583359D01*
X48842837Y-72639111D01*
X48848328Y-72694863D01*
X48848328Y-72750899D01*
X48859260Y-72805858D01*
X48864751Y-72861610D01*
X48881013Y-72915217D01*
X48891945Y-72970178D01*
X48913391Y-73021953D01*
X48929652Y-73075558D01*
X48956059Y-73124962D01*
X48977504Y-73176735D01*
X49008635Y-73223325D01*
X49035044Y-73272734D01*
X49070587Y-73316043D01*
X49101716Y-73362631D01*
X49141337Y-73402252D01*
X49176879Y-73445560D01*
X49220187Y-73481102D01*
X49259808Y-73520723D01*
X49306396Y-73551852D01*
X49349705Y-73587395D01*
X49399114Y-73613804D01*
X49445704Y-73644935D01*
X49497477Y-73666380D01*
X49546881Y-73692787D01*
X49600486Y-73709048D01*
X49652261Y-73730494D01*
X49707222Y-73741426D01*
X49760829Y-73757688D01*
X49816581Y-73763179D01*
X49871540Y-73774111D01*
X51003138Y-73774111D01*
X51058889Y-73779602D01*
X51114640Y-73774111D01*
X51114641Y-73774111D01*
X51281388Y-73757688D01*
X51443000Y-73708663D01*
X51443001Y-80809867D01*
X49567869Y-82685000D01*
X48910212Y-82685000D01*
X48855253Y-82695932D01*
X48799501Y-82701423D01*
X48745894Y-82717685D01*
X48690933Y-82728617D01*
X48639158Y-82750063D01*
X48585553Y-82766324D01*
X48536149Y-82792731D01*
X48484376Y-82814176D01*
X48437786Y-82845307D01*
X48388377Y-82871716D01*
X48345068Y-82907259D01*
X48298480Y-82938388D01*
X48258859Y-82978009D01*
X48215551Y-83013551D01*
X48180011Y-83056857D01*
X48140388Y-83096480D01*
X48109259Y-83143068D01*
X48073716Y-83186377D01*
X48047307Y-83235786D01*
X48016176Y-83282376D01*
X47994731Y-83334149D01*
X47968324Y-83383553D01*
X47952063Y-83437158D01*
X47930617Y-83488933D01*
X47919685Y-83543894D01*
X47903423Y-83597501D01*
X47897932Y-83653253D01*
X47887000Y-83708212D01*
X47887000Y-83764248D01*
X47881509Y-83820000D01*
X47887000Y-83875752D01*
X47887000Y-83931788D01*
X47897932Y-83986747D01*
X47903423Y-84042499D01*
X47919685Y-84096106D01*
X47930617Y-84151067D01*
X47952063Y-84202842D01*
X47968324Y-84256447D01*
X47994731Y-84305851D01*
X48016176Y-84357624D01*
X48047307Y-84404214D01*
X48073716Y-84453623D01*
X48109259Y-84496932D01*
X48140388Y-84543520D01*
X48180009Y-84583141D01*
X48215551Y-84626449D01*
X48258859Y-84661991D01*
X48298480Y-84701612D01*
X48345068Y-84732741D01*
X48388377Y-84768284D01*
X48437786Y-84794693D01*
X48484376Y-84825824D01*
X48536149Y-84847269D01*
X48585553Y-84873676D01*
X48639158Y-84889937D01*
X48690933Y-84911383D01*
X48745894Y-84922315D01*
X48799501Y-84938577D01*
X48855253Y-84944068D01*
X48910212Y-84955000D01*
X49982249Y-84955000D01*
X50038000Y-84960491D01*
X50093751Y-84955000D01*
X50093752Y-84955000D01*
X50260499Y-84938577D01*
X50474447Y-84873676D01*
X50671623Y-84768284D01*
X50791382Y-84670000D01*
X57566928Y-84670000D01*
X57579188Y-84794482D01*
X57615498Y-84914180D01*
X57674463Y-85024494D01*
X57753815Y-85121185D01*
X57850506Y-85200537D01*
X57960820Y-85259502D01*
X58033380Y-85281513D01*
X57901525Y-85413368D01*
X57739010Y-85656589D01*
X57627068Y-85926842D01*
X57570000Y-86213740D01*
X57570000Y-86506260D01*
X57627068Y-86793158D01*
X57739010Y-87063411D01*
X57901525Y-87306632D01*
X58108368Y-87513475D01*
X58282760Y-87630000D01*
X58108368Y-87746525D01*
X57901525Y-87953368D01*
X57739010Y-88196589D01*
X57627068Y-88466842D01*
X57570000Y-88753740D01*
X57570000Y-89046260D01*
X57627068Y-89333158D01*
X57739010Y-89603411D01*
X57901525Y-89846632D01*
X58108368Y-90053475D01*
X58351589Y-90215990D01*
X58621842Y-90327932D01*
X58908740Y-90385000D01*
X59201260Y-90385000D01*
X59488158Y-90327932D01*
X59758411Y-90215990D01*
X60001632Y-90053475D01*
X60208475Y-89846632D01*
X60370990Y-89603411D01*
X60482932Y-89333158D01*
X60540000Y-89046260D01*
X60540000Y-88753740D01*
X60494250Y-88523740D01*
X63920000Y-88523740D01*
X63920000Y-88816260D01*
X63977068Y-89103158D01*
X64089010Y-89373411D01*
X64251525Y-89616632D01*
X64458368Y-89823475D01*
X64701589Y-89985990D01*
X64971842Y-90097932D01*
X65258740Y-90155000D01*
X65551260Y-90155000D01*
X65838158Y-90097932D01*
X66108411Y-89985990D01*
X66351632Y-89823475D01*
X66483487Y-89691620D01*
X66505498Y-89764180D01*
X66564463Y-89874494D01*
X66643815Y-89971185D01*
X66740506Y-90050537D01*
X66850820Y-90109502D01*
X66970518Y-90145812D01*
X67095000Y-90158072D01*
X67659250Y-90155000D01*
X67818000Y-89996250D01*
X67818000Y-88797000D01*
X67798000Y-88797000D01*
X67798000Y-88543000D01*
X67818000Y-88543000D01*
X67818000Y-87343750D01*
X68072000Y-87343750D01*
X68072000Y-88543000D01*
X68092000Y-88543000D01*
X68092000Y-88797000D01*
X68072000Y-88797000D01*
X68072000Y-89996250D01*
X68230750Y-90155000D01*
X68795000Y-90158072D01*
X68919482Y-90145812D01*
X69039180Y-90109502D01*
X69149494Y-90050537D01*
X69246185Y-89971185D01*
X69325537Y-89874494D01*
X69384502Y-89764180D01*
X69406513Y-89691620D01*
X69538368Y-89823475D01*
X69781589Y-89985990D01*
X70051842Y-90097932D01*
X70338740Y-90155000D01*
X70631260Y-90155000D01*
X70918158Y-90097932D01*
X71188411Y-89985990D01*
X71431632Y-89823475D01*
X71638475Y-89616632D01*
X71800990Y-89373411D01*
X71912932Y-89103158D01*
X71970000Y-88816260D01*
X71970000Y-88523740D01*
X71912932Y-88236842D01*
X71800990Y-87966589D01*
X71638475Y-87723368D01*
X71431632Y-87516525D01*
X71188411Y-87354010D01*
X70918158Y-87242068D01*
X70631260Y-87185000D01*
X70338740Y-87185000D01*
X70051842Y-87242068D01*
X69781589Y-87354010D01*
X69538368Y-87516525D01*
X69406513Y-87648380D01*
X69384502Y-87575820D01*
X69325537Y-87465506D01*
X69246185Y-87368815D01*
X69149494Y-87289463D01*
X69039180Y-87230498D01*
X68919482Y-87194188D01*
X68795000Y-87181928D01*
X68230750Y-87185000D01*
X68072000Y-87343750D01*
X67818000Y-87343750D01*
X67659250Y-87185000D01*
X67095000Y-87181928D01*
X66970518Y-87194188D01*
X66850820Y-87230498D01*
X66740506Y-87289463D01*
X66643815Y-87368815D01*
X66564463Y-87465506D01*
X66505498Y-87575820D01*
X66483487Y-87648380D01*
X66351632Y-87516525D01*
X66108411Y-87354010D01*
X65838158Y-87242068D01*
X65551260Y-87185000D01*
X65258740Y-87185000D01*
X64971842Y-87242068D01*
X64701589Y-87354010D01*
X64458368Y-87516525D01*
X64251525Y-87723368D01*
X64089010Y-87966589D01*
X63977068Y-88236842D01*
X63920000Y-88523740D01*
X60494250Y-88523740D01*
X60482932Y-88466842D01*
X60370990Y-88196589D01*
X60208475Y-87953368D01*
X60001632Y-87746525D01*
X59827240Y-87630000D01*
X60001632Y-87513475D01*
X60208475Y-87306632D01*
X60370990Y-87063411D01*
X60482932Y-86793158D01*
X60540000Y-86506260D01*
X60540000Y-86213740D01*
X60482932Y-85926842D01*
X60370990Y-85656589D01*
X60208475Y-85413368D01*
X60076620Y-85281513D01*
X60149180Y-85259502D01*
X60259494Y-85200537D01*
X60356185Y-85121185D01*
X60435537Y-85024494D01*
X60494502Y-84914180D01*
X60530812Y-84794482D01*
X60543072Y-84670000D01*
X75346928Y-84670000D01*
X75359188Y-84794482D01*
X75395498Y-84914180D01*
X75454463Y-85024494D01*
X75533815Y-85121185D01*
X75630506Y-85200537D01*
X75740820Y-85259502D01*
X75813380Y-85281513D01*
X75681525Y-85413368D01*
X75519010Y-85656589D01*
X75407068Y-85926842D01*
X75350000Y-86213740D01*
X75350000Y-86506260D01*
X75407068Y-86793158D01*
X75519010Y-87063411D01*
X75681525Y-87306632D01*
X75888368Y-87513475D01*
X76062760Y-87630000D01*
X75888368Y-87746525D01*
X75681525Y-87953368D01*
X75519010Y-88196589D01*
X75407068Y-88466842D01*
X75350000Y-88753740D01*
X75350000Y-89046260D01*
X75407068Y-89333158D01*
X75519010Y-89603411D01*
X75681525Y-89846632D01*
X75888368Y-90053475D01*
X76131589Y-90215990D01*
X76401842Y-90327932D01*
X76688740Y-90385000D01*
X76981260Y-90385000D01*
X77268158Y-90327932D01*
X77538411Y-90215990D01*
X77781632Y-90053475D01*
X77988475Y-89846632D01*
X78150990Y-89603411D01*
X78262932Y-89333158D01*
X78320000Y-89046260D01*
X78320000Y-88753740D01*
X78262932Y-88466842D01*
X78150990Y-88196589D01*
X77988475Y-87953368D01*
X77781632Y-87746525D01*
X77607240Y-87630000D01*
X77781632Y-87513475D01*
X77988475Y-87306632D01*
X78150990Y-87063411D01*
X78262932Y-86793158D01*
X78320000Y-86506260D01*
X78320000Y-86213740D01*
X78262932Y-85926842D01*
X78150990Y-85656589D01*
X77988475Y-85413368D01*
X77856620Y-85281513D01*
X77929180Y-85259502D01*
X78039494Y-85200537D01*
X78136185Y-85121185D01*
X78215537Y-85024494D01*
X78274502Y-84914180D01*
X78310812Y-84794482D01*
X78323072Y-84670000D01*
X78320000Y-84105750D01*
X78161250Y-83947000D01*
X76962000Y-83947000D01*
X76962000Y-83967000D01*
X76708000Y-83967000D01*
X76708000Y-83947000D01*
X75508750Y-83947000D01*
X75350000Y-84105750D01*
X75346928Y-84670000D01*
X60543072Y-84670000D01*
X60540000Y-84105750D01*
X60381250Y-83947000D01*
X59182000Y-83947000D01*
X59182000Y-83967000D01*
X58928000Y-83967000D01*
X58928000Y-83947000D01*
X57728750Y-83947000D01*
X57570000Y-84105750D01*
X57566928Y-84670000D01*
X50791382Y-84670000D01*
X50844449Y-84626449D01*
X50879996Y-84583135D01*
X53341141Y-82121991D01*
X53384449Y-82086449D01*
X53526284Y-81913623D01*
X53631676Y-81716447D01*
X53696577Y-81502499D01*
X53713000Y-81335752D01*
X53713000Y-81335743D01*
X53718490Y-81280001D01*
X53713000Y-81224259D01*
X53713000Y-71970000D01*
X57566928Y-71970000D01*
X57579188Y-72094482D01*
X57615498Y-72214180D01*
X57674463Y-72324494D01*
X57753815Y-72421185D01*
X57850506Y-72500537D01*
X57960820Y-72559502D01*
X58033380Y-72581513D01*
X57901525Y-72713368D01*
X57739010Y-72956589D01*
X57627068Y-73226842D01*
X57570000Y-73513740D01*
X57570000Y-73806260D01*
X57627068Y-74093158D01*
X57739010Y-74363411D01*
X57901525Y-74606632D01*
X58108368Y-74813475D01*
X58282760Y-74930000D01*
X58108368Y-75046525D01*
X57901525Y-75253368D01*
X57739010Y-75496589D01*
X57627068Y-75766842D01*
X57570000Y-76053740D01*
X57570000Y-76346260D01*
X57627068Y-76633158D01*
X57739010Y-76903411D01*
X57901525Y-77146632D01*
X58108368Y-77353475D01*
X58282760Y-77470000D01*
X58108368Y-77586525D01*
X57901525Y-77793368D01*
X57739010Y-78036589D01*
X57627068Y-78306842D01*
X57570000Y-78593740D01*
X57570000Y-78886260D01*
X57627068Y-79173158D01*
X57739010Y-79443411D01*
X57901525Y-79686632D01*
X58108368Y-79893475D01*
X58282760Y-80010000D01*
X58108368Y-80126525D01*
X57901525Y-80333368D01*
X57739010Y-80576589D01*
X57627068Y-80846842D01*
X57570000Y-81133740D01*
X57570000Y-81426260D01*
X57627068Y-81713158D01*
X57739010Y-81983411D01*
X57901525Y-82226632D01*
X58033380Y-82358487D01*
X57960820Y-82380498D01*
X57850506Y-82439463D01*
X57753815Y-82518815D01*
X57674463Y-82615506D01*
X57615498Y-82725820D01*
X57579188Y-82845518D01*
X57566928Y-82970000D01*
X57570000Y-83534250D01*
X57728750Y-83693000D01*
X58928000Y-83693000D01*
X58928000Y-83673000D01*
X59182000Y-83673000D01*
X59182000Y-83693000D01*
X60381250Y-83693000D01*
X60540000Y-83534250D01*
X60543072Y-82970000D01*
X60530812Y-82845518D01*
X60494502Y-82725820D01*
X60435537Y-82615506D01*
X60356185Y-82518815D01*
X60259494Y-82439463D01*
X60149180Y-82380498D01*
X60076620Y-82358487D01*
X60208475Y-82226632D01*
X60370990Y-81983411D01*
X60482932Y-81713158D01*
X60540000Y-81426260D01*
X60540000Y-81133740D01*
X60482932Y-80846842D01*
X60370990Y-80576589D01*
X60208475Y-80333368D01*
X60001632Y-80126525D01*
X59827240Y-80010000D01*
X60001632Y-79893475D01*
X60208475Y-79686632D01*
X60370990Y-79443411D01*
X60482932Y-79173158D01*
X60540000Y-78886260D01*
X60540000Y-78593740D01*
X60482932Y-78306842D01*
X60370990Y-78036589D01*
X60208475Y-77793368D01*
X60001632Y-77586525D01*
X59827240Y-77470000D01*
X60001632Y-77353475D01*
X60208475Y-77146632D01*
X60370990Y-76903411D01*
X60482932Y-76633158D01*
X60540000Y-76346260D01*
X60540000Y-76053740D01*
X60482932Y-75766842D01*
X60370990Y-75496589D01*
X60208475Y-75253368D01*
X60001632Y-75046525D01*
X59827240Y-74930000D01*
X60001632Y-74813475D01*
X60208475Y-74606632D01*
X60370990Y-74363411D01*
X60482932Y-74093158D01*
X60540000Y-73806260D01*
X60540000Y-73513740D01*
X60482932Y-73226842D01*
X60370990Y-72956589D01*
X60208475Y-72713368D01*
X60076620Y-72581513D01*
X60149180Y-72559502D01*
X60259494Y-72500537D01*
X60356185Y-72421185D01*
X60435537Y-72324494D01*
X60494502Y-72214180D01*
X60530812Y-72094482D01*
X60543072Y-71970000D01*
X75346928Y-71970000D01*
X75359188Y-72094482D01*
X75395498Y-72214180D01*
X75454463Y-72324494D01*
X75533815Y-72421185D01*
X75630506Y-72500537D01*
X75740820Y-72559502D01*
X75813380Y-72581513D01*
X75681525Y-72713368D01*
X75519010Y-72956589D01*
X75407068Y-73226842D01*
X75350000Y-73513740D01*
X75350000Y-73806260D01*
X75407068Y-74093158D01*
X75519010Y-74363411D01*
X75681525Y-74606632D01*
X75888368Y-74813475D01*
X76062760Y-74930000D01*
X75888368Y-75046525D01*
X75681525Y-75253368D01*
X75519010Y-75496589D01*
X75407068Y-75766842D01*
X75350000Y-76053740D01*
X75350000Y-76346260D01*
X75407068Y-76633158D01*
X75519010Y-76903411D01*
X75681525Y-77146632D01*
X75888368Y-77353475D01*
X76062760Y-77470000D01*
X75888368Y-77586525D01*
X75681525Y-77793368D01*
X75519010Y-78036589D01*
X75407068Y-78306842D01*
X75350000Y-78593740D01*
X75350000Y-78886260D01*
X75407068Y-79173158D01*
X75519010Y-79443411D01*
X75681525Y-79686632D01*
X75888368Y-79893475D01*
X76062760Y-80010000D01*
X75888368Y-80126525D01*
X75681525Y-80333368D01*
X75519010Y-80576589D01*
X75407068Y-80846842D01*
X75350000Y-81133740D01*
X75350000Y-81426260D01*
X75407068Y-81713158D01*
X75519010Y-81983411D01*
X75681525Y-82226632D01*
X75813380Y-82358487D01*
X75740820Y-82380498D01*
X75630506Y-82439463D01*
X75533815Y-82518815D01*
X75454463Y-82615506D01*
X75395498Y-82725820D01*
X75359188Y-82845518D01*
X75346928Y-82970000D01*
X75350000Y-83534250D01*
X75508750Y-83693000D01*
X76708000Y-83693000D01*
X76708000Y-83673000D01*
X76962000Y-83673000D01*
X76962000Y-83693000D01*
X78161250Y-83693000D01*
X78320000Y-83534250D01*
X78323072Y-82970000D01*
X78310812Y-82845518D01*
X78274502Y-82725820D01*
X78215537Y-82615506D01*
X78136185Y-82518815D01*
X78039494Y-82439463D01*
X77929180Y-82380498D01*
X77856620Y-82358487D01*
X77988475Y-82226632D01*
X78150990Y-81983411D01*
X78262932Y-81713158D01*
X78320000Y-81426260D01*
X78320000Y-81133740D01*
X78262932Y-80846842D01*
X78150990Y-80576589D01*
X77988475Y-80333368D01*
X77781632Y-80126525D01*
X77607240Y-80010000D01*
X77781632Y-79893475D01*
X77988475Y-79686632D01*
X78150990Y-79443411D01*
X78262932Y-79173158D01*
X78320000Y-78886260D01*
X78320000Y-78593740D01*
X78262932Y-78306842D01*
X78150990Y-78036589D01*
X77988475Y-77793368D01*
X77781632Y-77586525D01*
X77607240Y-77470000D01*
X77781632Y-77353475D01*
X77988475Y-77146632D01*
X78150990Y-76903411D01*
X78262932Y-76633158D01*
X78320000Y-76346260D01*
X78320000Y-76053740D01*
X78262932Y-75766842D01*
X78150990Y-75496589D01*
X77988475Y-75253368D01*
X77781632Y-75046525D01*
X77607240Y-74930000D01*
X77781632Y-74813475D01*
X77988475Y-74606632D01*
X78150990Y-74363411D01*
X78262932Y-74093158D01*
X78320000Y-73806260D01*
X78320000Y-73513740D01*
X78262932Y-73226842D01*
X78150990Y-72956589D01*
X77988475Y-72713368D01*
X77856620Y-72581513D01*
X77929180Y-72559502D01*
X78039494Y-72500537D01*
X78136185Y-72421185D01*
X78215537Y-72324494D01*
X78274502Y-72214180D01*
X78310812Y-72094482D01*
X78323072Y-71970000D01*
X78320000Y-71405750D01*
X78161250Y-71247000D01*
X76962000Y-71247000D01*
X76962000Y-71267000D01*
X76708000Y-71267000D01*
X76708000Y-71247000D01*
X75508750Y-71247000D01*
X75350000Y-71405750D01*
X75346928Y-71970000D01*
X60543072Y-71970000D01*
X60540000Y-71405750D01*
X60381250Y-71247000D01*
X59182000Y-71247000D01*
X59182000Y-71267000D01*
X58928000Y-71267000D01*
X58928000Y-71247000D01*
X57728750Y-71247000D01*
X57570000Y-71405750D01*
X57566928Y-71970000D01*
X53713000Y-71970000D01*
X53713000Y-71175743D01*
X53718490Y-71120001D01*
X53713000Y-71064259D01*
X53713000Y-59270000D01*
X57566928Y-59270000D01*
X57579188Y-59394482D01*
X57615498Y-59514180D01*
X57674463Y-59624494D01*
X57753815Y-59721185D01*
X57850506Y-59800537D01*
X57960820Y-59859502D01*
X58033380Y-59881513D01*
X57901525Y-60013368D01*
X57739010Y-60256589D01*
X57627068Y-60526842D01*
X57570000Y-60813740D01*
X57570000Y-61106260D01*
X57627068Y-61393158D01*
X57739010Y-61663411D01*
X57901525Y-61906632D01*
X58108368Y-62113475D01*
X58282760Y-62230000D01*
X58108368Y-62346525D01*
X57901525Y-62553368D01*
X57739010Y-62796589D01*
X57627068Y-63066842D01*
X57570000Y-63353740D01*
X57570000Y-63646260D01*
X57627068Y-63933158D01*
X57739010Y-64203411D01*
X57901525Y-64446632D01*
X58108368Y-64653475D01*
X58282760Y-64770000D01*
X58108368Y-64886525D01*
X57901525Y-65093368D01*
X57739010Y-65336589D01*
X57627068Y-65606842D01*
X57570000Y-65893740D01*
X57570000Y-66186260D01*
X57627068Y-66473158D01*
X57739010Y-66743411D01*
X57901525Y-66986632D01*
X58108368Y-67193475D01*
X58282760Y-67310000D01*
X58108368Y-67426525D01*
X57901525Y-67633368D01*
X57739010Y-67876589D01*
X57627068Y-68146842D01*
X57570000Y-68433740D01*
X57570000Y-68726260D01*
X57627068Y-69013158D01*
X57739010Y-69283411D01*
X57901525Y-69526632D01*
X58033380Y-69658487D01*
X57960820Y-69680498D01*
X57850506Y-69739463D01*
X57753815Y-69818815D01*
X57674463Y-69915506D01*
X57615498Y-70025820D01*
X57579188Y-70145518D01*
X57566928Y-70270000D01*
X57570000Y-70834250D01*
X57728750Y-70993000D01*
X58928000Y-70993000D01*
X58928000Y-70973000D01*
X59182000Y-70973000D01*
X59182000Y-70993000D01*
X60381250Y-70993000D01*
X60540000Y-70834250D01*
X60543072Y-70270000D01*
X60530812Y-70145518D01*
X60494502Y-70025820D01*
X60435537Y-69915506D01*
X60356185Y-69818815D01*
X60259494Y-69739463D01*
X60149180Y-69680498D01*
X60076620Y-69658487D01*
X60208475Y-69526632D01*
X60370990Y-69283411D01*
X60482932Y-69013158D01*
X60540000Y-68726260D01*
X60540000Y-68433740D01*
X60482932Y-68146842D01*
X60370990Y-67876589D01*
X60208475Y-67633368D01*
X60001632Y-67426525D01*
X59827240Y-67310000D01*
X60001632Y-67193475D01*
X60208475Y-66986632D01*
X60370990Y-66743411D01*
X60482932Y-66473158D01*
X60540000Y-66186260D01*
X60540000Y-65893740D01*
X60482932Y-65606842D01*
X60370990Y-65336589D01*
X60208475Y-65093368D01*
X60001632Y-64886525D01*
X59827240Y-64770000D01*
X60001632Y-64653475D01*
X60208475Y-64446632D01*
X60370990Y-64203411D01*
X60482932Y-63933158D01*
X60540000Y-63646260D01*
X60540000Y-63353740D01*
X60482932Y-63066842D01*
X60370990Y-62796589D01*
X60208475Y-62553368D01*
X60001632Y-62346525D01*
X59827240Y-62230000D01*
X60001632Y-62113475D01*
X60208475Y-61906632D01*
X60370990Y-61663411D01*
X60482932Y-61393158D01*
X60540000Y-61106260D01*
X60540000Y-60813740D01*
X60482932Y-60526842D01*
X60370990Y-60256589D01*
X60208475Y-60013368D01*
X60076620Y-59881513D01*
X60149180Y-59859502D01*
X60259494Y-59800537D01*
X60356185Y-59721185D01*
X60435537Y-59624494D01*
X60494502Y-59514180D01*
X60530812Y-59394482D01*
X60543072Y-59270000D01*
X75346928Y-59270000D01*
X75359188Y-59394482D01*
X75395498Y-59514180D01*
X75454463Y-59624494D01*
X75533815Y-59721185D01*
X75630506Y-59800537D01*
X75740820Y-59859502D01*
X75813380Y-59881513D01*
X75681525Y-60013368D01*
X75519010Y-60256589D01*
X75407068Y-60526842D01*
X75350000Y-60813740D01*
X75350000Y-61106260D01*
X75407068Y-61393158D01*
X75519010Y-61663411D01*
X75681525Y-61906632D01*
X75888368Y-62113475D01*
X76062760Y-62230000D01*
X75888368Y-62346525D01*
X75681525Y-62553368D01*
X75519010Y-62796589D01*
X75407068Y-63066842D01*
X75350000Y-63353740D01*
X75350000Y-63646260D01*
X75407068Y-63933158D01*
X75519010Y-64203411D01*
X75681525Y-64446632D01*
X75888368Y-64653475D01*
X76062760Y-64770000D01*
X75888368Y-64886525D01*
X75681525Y-65093368D01*
X75519010Y-65336589D01*
X75407068Y-65606842D01*
X75350000Y-65893740D01*
X75350000Y-66186260D01*
X75407068Y-66473158D01*
X75519010Y-66743411D01*
X75681525Y-66986632D01*
X75888368Y-67193475D01*
X76062760Y-67310000D01*
X75888368Y-67426525D01*
X75681525Y-67633368D01*
X75519010Y-67876589D01*
X75407068Y-68146842D01*
X75350000Y-68433740D01*
X75350000Y-68726260D01*
X75407068Y-69013158D01*
X75519010Y-69283411D01*
X75681525Y-69526632D01*
X75813380Y-69658487D01*
X75740820Y-69680498D01*
X75630506Y-69739463D01*
X75533815Y-69818815D01*
X75454463Y-69915506D01*
X75395498Y-70025820D01*
X75359188Y-70145518D01*
X75346928Y-70270000D01*
X75350000Y-70834250D01*
X75508750Y-70993000D01*
X76708000Y-70993000D01*
X76708000Y-70973000D01*
X76962000Y-70973000D01*
X76962000Y-70993000D01*
X78161250Y-70993000D01*
X78320000Y-70834250D01*
X78323072Y-70270000D01*
X78310812Y-70145518D01*
X78274502Y-70025820D01*
X78215537Y-69915506D01*
X78136185Y-69818815D01*
X78039494Y-69739463D01*
X77929180Y-69680498D01*
X77856620Y-69658487D01*
X77988475Y-69526632D01*
X78150990Y-69283411D01*
X78262932Y-69013158D01*
X78320000Y-68726260D01*
X78320000Y-68433740D01*
X78262932Y-68146842D01*
X78150990Y-67876589D01*
X77988475Y-67633368D01*
X77781632Y-67426525D01*
X77607240Y-67310000D01*
X77781632Y-67193475D01*
X77988475Y-66986632D01*
X78150990Y-66743411D01*
X78262932Y-66473158D01*
X78320000Y-66186260D01*
X78320000Y-65893740D01*
X78262932Y-65606842D01*
X78150990Y-65336589D01*
X77988475Y-65093368D01*
X77781632Y-64886525D01*
X77607240Y-64770000D01*
X77781632Y-64653475D01*
X77988475Y-64446632D01*
X78150990Y-64203411D01*
X78262932Y-63933158D01*
X78320000Y-63646260D01*
X78320000Y-63353740D01*
X78262932Y-63066842D01*
X78150990Y-62796589D01*
X77988475Y-62553368D01*
X77781632Y-62346525D01*
X77607240Y-62230000D01*
X77781632Y-62113475D01*
X77988475Y-61906632D01*
X78150990Y-61663411D01*
X78262932Y-61393158D01*
X78320000Y-61106260D01*
X78320000Y-60813740D01*
X78262932Y-60526842D01*
X78150990Y-60256589D01*
X77988475Y-60013368D01*
X77856620Y-59881513D01*
X77929180Y-59859502D01*
X78039494Y-59800537D01*
X78136185Y-59721185D01*
X78215537Y-59624494D01*
X78274502Y-59514180D01*
X78310812Y-59394482D01*
X78323072Y-59270000D01*
X78320000Y-58705750D01*
X78161250Y-58547000D01*
X76962000Y-58547000D01*
X76962000Y-58567000D01*
X76708000Y-58567000D01*
X76708000Y-58547000D01*
X75508750Y-58547000D01*
X75350000Y-58705750D01*
X75346928Y-59270000D01*
X60543072Y-59270000D01*
X60540000Y-58705750D01*
X60381250Y-58547000D01*
X59182000Y-58547000D01*
X59182000Y-58567000D01*
X58928000Y-58567000D01*
X58928000Y-58547000D01*
X57728750Y-58547000D01*
X57570000Y-58705750D01*
X57566928Y-59270000D01*
X53713000Y-59270000D01*
X53713000Y-57713743D01*
X53718490Y-57658001D01*
X53713000Y-57602259D01*
X53713000Y-46918742D01*
X53718490Y-46863001D01*
X53713000Y-46807259D01*
X53713000Y-46570000D01*
X57566928Y-46570000D01*
X57579188Y-46694482D01*
X57615498Y-46814180D01*
X57674463Y-46924494D01*
X57753815Y-47021185D01*
X57850506Y-47100537D01*
X57960820Y-47159502D01*
X58033380Y-47181513D01*
X57901525Y-47313368D01*
X57739010Y-47556589D01*
X57627068Y-47826842D01*
X57570000Y-48113740D01*
X57570000Y-48406260D01*
X57627068Y-48693158D01*
X57739010Y-48963411D01*
X57901525Y-49206632D01*
X58108368Y-49413475D01*
X58282760Y-49530000D01*
X58108368Y-49646525D01*
X57901525Y-49853368D01*
X57739010Y-50096589D01*
X57627068Y-50366842D01*
X57570000Y-50653740D01*
X57570000Y-50946260D01*
X57627068Y-51233158D01*
X57739010Y-51503411D01*
X57901525Y-51746632D01*
X58108368Y-51953475D01*
X58282760Y-52070000D01*
X58108368Y-52186525D01*
X57901525Y-52393368D01*
X57739010Y-52636589D01*
X57627068Y-52906842D01*
X57570000Y-53193740D01*
X57570000Y-53486260D01*
X57627068Y-53773158D01*
X57739010Y-54043411D01*
X57901525Y-54286632D01*
X58108368Y-54493475D01*
X58282760Y-54610000D01*
X58108368Y-54726525D01*
X57901525Y-54933368D01*
X57739010Y-55176589D01*
X57627068Y-55446842D01*
X57570000Y-55733740D01*
X57570000Y-56026260D01*
X57627068Y-56313158D01*
X57739010Y-56583411D01*
X57901525Y-56826632D01*
X58033380Y-56958487D01*
X57960820Y-56980498D01*
X57850506Y-57039463D01*
X57753815Y-57118815D01*
X57674463Y-57215506D01*
X57615498Y-57325820D01*
X57579188Y-57445518D01*
X57566928Y-57570000D01*
X57570000Y-58134250D01*
X57728750Y-58293000D01*
X58928000Y-58293000D01*
X58928000Y-58273000D01*
X59182000Y-58273000D01*
X59182000Y-58293000D01*
X60381250Y-58293000D01*
X60540000Y-58134250D01*
X60543072Y-57570000D01*
X60530812Y-57445518D01*
X60494502Y-57325820D01*
X60435537Y-57215506D01*
X60356185Y-57118815D01*
X60259494Y-57039463D01*
X60149180Y-56980498D01*
X60076620Y-56958487D01*
X60208475Y-56826632D01*
X60370990Y-56583411D01*
X60482932Y-56313158D01*
X60540000Y-56026260D01*
X60540000Y-55733740D01*
X60482932Y-55446842D01*
X60370990Y-55176589D01*
X60208475Y-54933368D01*
X60001632Y-54726525D01*
X59827240Y-54610000D01*
X60001632Y-54493475D01*
X60208475Y-54286632D01*
X60370990Y-54043411D01*
X60482932Y-53773158D01*
X60540000Y-53486260D01*
X60540000Y-53193740D01*
X60482932Y-52906842D01*
X60370990Y-52636589D01*
X60208475Y-52393368D01*
X60001632Y-52186525D01*
X59827240Y-52070000D01*
X60001632Y-51953475D01*
X60208475Y-51746632D01*
X60370990Y-51503411D01*
X60482932Y-51233158D01*
X60540000Y-50946260D01*
X60540000Y-50653740D01*
X60482932Y-50366842D01*
X60370990Y-50096589D01*
X60208475Y-49853368D01*
X60001632Y-49646525D01*
X59827240Y-49530000D01*
X60001632Y-49413475D01*
X60208475Y-49206632D01*
X60370990Y-48963411D01*
X60482932Y-48693158D01*
X60540000Y-48406260D01*
X60540000Y-48113740D01*
X60482932Y-47826842D01*
X60370990Y-47556589D01*
X60208475Y-47313368D01*
X60076620Y-47181513D01*
X60149180Y-47159502D01*
X60259494Y-47100537D01*
X60356185Y-47021185D01*
X60435537Y-46924494D01*
X60494502Y-46814180D01*
X60530812Y-46694482D01*
X60543072Y-46570000D01*
X75346928Y-46570000D01*
X75359188Y-46694482D01*
X75395498Y-46814180D01*
X75454463Y-46924494D01*
X75533815Y-47021185D01*
X75630506Y-47100537D01*
X75740820Y-47159502D01*
X75813380Y-47181513D01*
X75681525Y-47313368D01*
X75519010Y-47556589D01*
X75407068Y-47826842D01*
X75350000Y-48113740D01*
X75350000Y-48406260D01*
X75407068Y-48693158D01*
X75519010Y-48963411D01*
X75681525Y-49206632D01*
X75888368Y-49413475D01*
X76062760Y-49530000D01*
X75888368Y-49646525D01*
X75681525Y-49853368D01*
X75519010Y-50096589D01*
X75407068Y-50366842D01*
X75350000Y-50653740D01*
X75350000Y-50946260D01*
X75407068Y-51233158D01*
X75519010Y-51503411D01*
X75681525Y-51746632D01*
X75888368Y-51953475D01*
X76062760Y-52070000D01*
X75888368Y-52186525D01*
X75681525Y-52393368D01*
X75519010Y-52636589D01*
X75407068Y-52906842D01*
X75350000Y-53193740D01*
X75350000Y-53486260D01*
X75407068Y-53773158D01*
X75519010Y-54043411D01*
X75681525Y-54286632D01*
X75888368Y-54493475D01*
X76062760Y-54610000D01*
X75888368Y-54726525D01*
X75681525Y-54933368D01*
X75519010Y-55176589D01*
X75407068Y-55446842D01*
X75350000Y-55733740D01*
X75350000Y-56026260D01*
X75407068Y-56313158D01*
X75519010Y-56583411D01*
X75681525Y-56826632D01*
X75813380Y-56958487D01*
X75740820Y-56980498D01*
X75630506Y-57039463D01*
X75533815Y-57118815D01*
X75454463Y-57215506D01*
X75395498Y-57325820D01*
X75359188Y-57445518D01*
X75346928Y-57570000D01*
X75350000Y-58134250D01*
X75508750Y-58293000D01*
X76708000Y-58293000D01*
X76708000Y-58273000D01*
X76962000Y-58273000D01*
X76962000Y-58293000D01*
X78161250Y-58293000D01*
X78320000Y-58134250D01*
X78323072Y-57570000D01*
X78310812Y-57445518D01*
X78274502Y-57325820D01*
X78215537Y-57215506D01*
X78136185Y-57118815D01*
X78039494Y-57039463D01*
X77929180Y-56980498D01*
X77856620Y-56958487D01*
X77988475Y-56826632D01*
X78150990Y-56583411D01*
X78262932Y-56313158D01*
X78320000Y-56026260D01*
X78320000Y-55733740D01*
X78262932Y-55446842D01*
X78150990Y-55176589D01*
X77988475Y-54933368D01*
X77781632Y-54726525D01*
X77607240Y-54610000D01*
X77781632Y-54493475D01*
X77988475Y-54286632D01*
X78150990Y-54043411D01*
X78262932Y-53773158D01*
X78320000Y-53486260D01*
X78320000Y-53193740D01*
X78262932Y-52906842D01*
X78150990Y-52636589D01*
X77988475Y-52393368D01*
X77781632Y-52186525D01*
X77607240Y-52070000D01*
X77781632Y-51953475D01*
X77988475Y-51746632D01*
X78150990Y-51503411D01*
X78262932Y-51233158D01*
X78320000Y-50946260D01*
X78320000Y-50653740D01*
X78262932Y-50366842D01*
X78150990Y-50096589D01*
X77988475Y-49853368D01*
X77781632Y-49646525D01*
X77607240Y-49530000D01*
X77781632Y-49413475D01*
X77988475Y-49206632D01*
X78150990Y-48963411D01*
X78262932Y-48693158D01*
X78320000Y-48406260D01*
X78320000Y-48113740D01*
X78262932Y-47826842D01*
X78150990Y-47556589D01*
X77988475Y-47313368D01*
X77856620Y-47181513D01*
X77929180Y-47159502D01*
X78039494Y-47100537D01*
X78136185Y-47021185D01*
X78215537Y-46924494D01*
X78274502Y-46814180D01*
X78310812Y-46694482D01*
X78323072Y-46570000D01*
X78320000Y-46005750D01*
X78161250Y-45847000D01*
X76962000Y-45847000D01*
X76962000Y-45867000D01*
X76708000Y-45867000D01*
X76708000Y-45847000D01*
X75508750Y-45847000D01*
X75350000Y-46005750D01*
X75346928Y-46570000D01*
X60543072Y-46570000D01*
X60540000Y-46005750D01*
X60381250Y-45847000D01*
X59182000Y-45847000D01*
X59182000Y-45867000D01*
X58928000Y-45867000D01*
X58928000Y-45847000D01*
X57728750Y-45847000D01*
X57570000Y-46005750D01*
X57566928Y-46570000D01*
X53713000Y-46570000D01*
X53713000Y-44870000D01*
X57566928Y-44870000D01*
X57570000Y-45434250D01*
X57728750Y-45593000D01*
X58928000Y-45593000D01*
X58928000Y-45573000D01*
X59182000Y-45573000D01*
X59182000Y-45593000D01*
X60381250Y-45593000D01*
X60540000Y-45434250D01*
X60543072Y-44870000D01*
X60530812Y-44745518D01*
X60494502Y-44625820D01*
X60435537Y-44515506D01*
X60356185Y-44418815D01*
X60259494Y-44339463D01*
X60149180Y-44280498D01*
X60076620Y-44258487D01*
X60208475Y-44126632D01*
X60370990Y-43883411D01*
X60462042Y-43663589D01*
X64135000Y-43663589D01*
X64135000Y-43936411D01*
X64188225Y-44203989D01*
X64292629Y-44456043D01*
X64444201Y-44682886D01*
X64637114Y-44875799D01*
X64863957Y-45027371D01*
X65116011Y-45131775D01*
X65383589Y-45185000D01*
X65656411Y-45185000D01*
X65923989Y-45131775D01*
X66176043Y-45027371D01*
X66402886Y-44875799D01*
X66595799Y-44682886D01*
X66747371Y-44456043D01*
X66851775Y-44203989D01*
X66905000Y-43936411D01*
X66905000Y-43663589D01*
X68985000Y-43663589D01*
X68985000Y-43936411D01*
X69038225Y-44203989D01*
X69142629Y-44456043D01*
X69294201Y-44682886D01*
X69487114Y-44875799D01*
X69713957Y-45027371D01*
X69966011Y-45131775D01*
X70233589Y-45185000D01*
X70506411Y-45185000D01*
X70773989Y-45131775D01*
X71026043Y-45027371D01*
X71252886Y-44875799D01*
X71445799Y-44682886D01*
X71597371Y-44456043D01*
X71701775Y-44203989D01*
X71755000Y-43936411D01*
X71755000Y-43663589D01*
X71701775Y-43396011D01*
X71597371Y-43143957D01*
X71445799Y-42917114D01*
X71252886Y-42724201D01*
X71026043Y-42572629D01*
X70773989Y-42468225D01*
X70506411Y-42415000D01*
X70233589Y-42415000D01*
X69966011Y-42468225D01*
X69713957Y-42572629D01*
X69487114Y-42724201D01*
X69294201Y-42917114D01*
X69142629Y-43143957D01*
X69038225Y-43396011D01*
X68985000Y-43663589D01*
X66905000Y-43663589D01*
X66851775Y-43396011D01*
X66747371Y-43143957D01*
X66595799Y-42917114D01*
X66402886Y-42724201D01*
X66176043Y-42572629D01*
X65923989Y-42468225D01*
X65656411Y-42415000D01*
X65383589Y-42415000D01*
X65116011Y-42468225D01*
X64863957Y-42572629D01*
X64637114Y-42724201D01*
X64444201Y-42917114D01*
X64292629Y-43143957D01*
X64188225Y-43396011D01*
X64135000Y-43663589D01*
X60462042Y-43663589D01*
X60482932Y-43613158D01*
X60540000Y-43326260D01*
X60540000Y-43033740D01*
X60482932Y-42746842D01*
X60370990Y-42476589D01*
X60208475Y-42233368D01*
X60001632Y-42026525D01*
X59827240Y-41910000D01*
X60001632Y-41793475D01*
X60208475Y-41586632D01*
X60370990Y-41343411D01*
X60482932Y-41073158D01*
X60540000Y-40786260D01*
X60540000Y-40618816D01*
X63685000Y-40618816D01*
X63685000Y-40921184D01*
X63743989Y-41217743D01*
X63859701Y-41497095D01*
X64027688Y-41748505D01*
X64241495Y-41962312D01*
X64492905Y-42130299D01*
X64772257Y-42246011D01*
X65068816Y-42305000D01*
X65371184Y-42305000D01*
X65667743Y-42246011D01*
X65947095Y-42130299D01*
X66198505Y-41962312D01*
X66412312Y-41748505D01*
X66580299Y-41497095D01*
X66696011Y-41217743D01*
X66755000Y-40921184D01*
X66755000Y-40618816D01*
X66696011Y-40322257D01*
X66580299Y-40042905D01*
X66412312Y-39791495D01*
X66396817Y-39776000D01*
X69493183Y-39776000D01*
X69477688Y-39791495D01*
X69309701Y-40042905D01*
X69193989Y-40322257D01*
X69135000Y-40618816D01*
X69135000Y-40921184D01*
X69193989Y-41217743D01*
X69309701Y-41497095D01*
X69477688Y-41748505D01*
X69691495Y-41962312D01*
X69942905Y-42130299D01*
X70222257Y-42246011D01*
X70518816Y-42305000D01*
X70821184Y-42305000D01*
X71117743Y-42246011D01*
X71397095Y-42130299D01*
X71648505Y-41962312D01*
X71862312Y-41748505D01*
X72030299Y-41497095D01*
X72146011Y-41217743D01*
X72205000Y-40921184D01*
X72205000Y-40618816D01*
X72146011Y-40322257D01*
X72030299Y-40042905D01*
X71862312Y-39791495D01*
X71846817Y-39776000D01*
X72103581Y-39776000D01*
X72136000Y-39779193D01*
X72168419Y-39776000D01*
X72265383Y-39766450D01*
X72389793Y-39728710D01*
X72504450Y-39667425D01*
X72604948Y-39584948D01*
X72687425Y-39484450D01*
X72748710Y-39369793D01*
X72786450Y-39245383D01*
X72799193Y-39116000D01*
X72796000Y-39083581D01*
X72796000Y-31782419D01*
X72799193Y-31750000D01*
X72786450Y-31620617D01*
X72748710Y-31496207D01*
X72687425Y-31381550D01*
X72604948Y-31281052D01*
X72504450Y-31198575D01*
X72389793Y-31137290D01*
X72265383Y-31099550D01*
X72168419Y-31090000D01*
X72136000Y-31086807D01*
X72103581Y-31090000D01*
X64548419Y-31090000D01*
X64516000Y-31086807D01*
X64483581Y-31090000D01*
X64386617Y-31099550D01*
X64262207Y-31137290D01*
X64147550Y-31198575D01*
X64047052Y-31281052D01*
X63964575Y-31381550D01*
X63903290Y-31496207D01*
X63865550Y-31620617D01*
X63852807Y-31750000D01*
X63856000Y-31782419D01*
X63856001Y-39083571D01*
X63852807Y-39116000D01*
X63865550Y-39245383D01*
X63903290Y-39369793D01*
X63964575Y-39484450D01*
X64047052Y-39584948D01*
X64147550Y-39667425D01*
X64150292Y-39668891D01*
X64027688Y-39791495D01*
X63859701Y-40042905D01*
X63743989Y-40322257D01*
X63685000Y-40618816D01*
X60540000Y-40618816D01*
X60540000Y-40493740D01*
X60482932Y-40206842D01*
X60370990Y-39936589D01*
X60208475Y-39693368D01*
X60001632Y-39486525D01*
X59758411Y-39324010D01*
X59488158Y-39212068D01*
X59201260Y-39155000D01*
X58908740Y-39155000D01*
X58621842Y-39212068D01*
X58351589Y-39324010D01*
X58108368Y-39486525D01*
X57901525Y-39693368D01*
X57739010Y-39936589D01*
X57627068Y-40206842D01*
X57570000Y-40493740D01*
X57570000Y-40786260D01*
X57627068Y-41073158D01*
X57739010Y-41343411D01*
X57901525Y-41586632D01*
X58108368Y-41793475D01*
X58282760Y-41910000D01*
X58108368Y-42026525D01*
X57901525Y-42233368D01*
X57739010Y-42476589D01*
X57627068Y-42746842D01*
X57570000Y-43033740D01*
X57570000Y-43326260D01*
X57627068Y-43613158D01*
X57739010Y-43883411D01*
X57901525Y-44126632D01*
X58033380Y-44258487D01*
X57960820Y-44280498D01*
X57850506Y-44339463D01*
X57753815Y-44418815D01*
X57674463Y-44515506D01*
X57615498Y-44625820D01*
X57579188Y-44745518D01*
X57566928Y-44870000D01*
X53713000Y-44870000D01*
X53713000Y-41364131D01*
X57725059Y-37352072D01*
X58558000Y-37352072D01*
X58682482Y-37339812D01*
X58802180Y-37303502D01*
X58912494Y-37244537D01*
X59009185Y-37165185D01*
X59088537Y-37068494D01*
X59147502Y-36958180D01*
X59183812Y-36838482D01*
X59196072Y-36714000D01*
X59196072Y-35881060D01*
X64224132Y-30853000D01*
X76946389Y-30853000D01*
X76880815Y-30906815D01*
X76801463Y-31003506D01*
X76742498Y-31113820D01*
X76706188Y-31233518D01*
X76693928Y-31358000D01*
X76693928Y-32190940D01*
X73404860Y-35480009D01*
X73361552Y-35515551D01*
X73219717Y-35688377D01*
X73163384Y-35793770D01*
X73114324Y-35885554D01*
X73049423Y-36099502D01*
X73027509Y-36322000D01*
X73033001Y-36377761D01*
X73033000Y-42108248D01*
X73027509Y-42164000D01*
X73033000Y-42219751D01*
X73049423Y-42386498D01*
X73114324Y-42600446D01*
X73219716Y-42797623D01*
X73361551Y-42970449D01*
X73404864Y-43005996D01*
X74342008Y-43943140D01*
X74377551Y-43986449D01*
X74550377Y-44128284D01*
X74744283Y-44231928D01*
X74747553Y-44233676D01*
X74961501Y-44298577D01*
X75184000Y-44320491D01*
X75239751Y-44315000D01*
X75676272Y-44315000D01*
X75630506Y-44339463D01*
X75533815Y-44418815D01*
X75454463Y-44515506D01*
X75395498Y-44625820D01*
X75359188Y-44745518D01*
X75346928Y-44870000D01*
X75350000Y-45434250D01*
X75508750Y-45593000D01*
X76708000Y-45593000D01*
X76708000Y-45573000D01*
X76962000Y-45573000D01*
X76962000Y-45593000D01*
X78161250Y-45593000D01*
X78320000Y-45434250D01*
X78323072Y-44870000D01*
X78310812Y-44745518D01*
X78274502Y-44625820D01*
X78215537Y-44515506D01*
X78136185Y-44418815D01*
X78039494Y-44339463D01*
X77929180Y-44280498D01*
X77856620Y-44258487D01*
X77988475Y-44126632D01*
X78150990Y-43883411D01*
X78262932Y-43613158D01*
X78320000Y-43326260D01*
X78320000Y-43033740D01*
X78262932Y-42746842D01*
X78150990Y-42476589D01*
X77988475Y-42233368D01*
X77781632Y-42026525D01*
X77607240Y-41910000D01*
X77781632Y-41793475D01*
X77988475Y-41586632D01*
X78150990Y-41343411D01*
X78262932Y-41073158D01*
X78320000Y-40786260D01*
X78320000Y-40493740D01*
X78262932Y-40206842D01*
X78150990Y-39936589D01*
X77988475Y-39693368D01*
X77781632Y-39486525D01*
X77538411Y-39324010D01*
X77268158Y-39212068D01*
X76981260Y-39155000D01*
X76688740Y-39155000D01*
X76401842Y-39212068D01*
X76131589Y-39324010D01*
X75888368Y-39486525D01*
X75681525Y-39693368D01*
X75519010Y-39936589D01*
X75407068Y-40206842D01*
X75350000Y-40493740D01*
X75350000Y-40786260D01*
X75407068Y-41073158D01*
X75519010Y-41343411D01*
X75681525Y-41586632D01*
X75888368Y-41793475D01*
X76062760Y-41910000D01*
X75888368Y-42026525D01*
X75869893Y-42045000D01*
X75654132Y-42045000D01*
X75303000Y-41693869D01*
X75303000Y-36792131D01*
X78299060Y-33796072D01*
X79132000Y-33796072D01*
X79256482Y-33783812D01*
X79376180Y-33747502D01*
X79486494Y-33688537D01*
X79583185Y-33609185D01*
X79662537Y-33512494D01*
X79721502Y-33402180D01*
X79757812Y-33282482D01*
X79770072Y-33158000D01*
X79770072Y-31358000D01*
X79757812Y-31233518D01*
X79721502Y-31113820D01*
X79662537Y-31003506D01*
X79583185Y-30906815D01*
X79517611Y-30853000D01*
X82079868Y-30853000D01*
X82431001Y-31204133D01*
X82431000Y-45918248D01*
X82431000Y-45918249D01*
X82431001Y-60396239D01*
X82425509Y-60452000D01*
X82447423Y-60674498D01*
X82512324Y-60888446D01*
X82561384Y-60980230D01*
X82617717Y-61085623D01*
X82759552Y-61258449D01*
X82802860Y-61293991D01*
X84209000Y-62700133D01*
X84209000Y-62936249D01*
X84209001Y-67508239D01*
X84209000Y-67508249D01*
X84209001Y-75382239D01*
X84209000Y-75382249D01*
X84209000Y-76144248D01*
X84203509Y-76200000D01*
X84209000Y-76255751D01*
X84209001Y-86050239D01*
X84209000Y-86050249D01*
X84209000Y-87066249D01*
X84203509Y-87122000D01*
X84209000Y-87177751D01*
X84209000Y-87177752D01*
X84225423Y-87344499D01*
X84290324Y-87558447D01*
X84395717Y-87755623D01*
X84537552Y-87928449D01*
X84580860Y-87963991D01*
X85606859Y-88989991D01*
X85642402Y-89033300D01*
X85815228Y-89175135D01*
X86012404Y-89280527D01*
X86226352Y-89345428D01*
X86393099Y-89361851D01*
X86393108Y-89361851D01*
X86448850Y-89367341D01*
X86504592Y-89361851D01*
X88340383Y-89361851D01*
X88395342Y-89350919D01*
X88451094Y-89345428D01*
X88504701Y-89329166D01*
X88559662Y-89318234D01*
X88611437Y-89296788D01*
X88665042Y-89280527D01*
X88714446Y-89254120D01*
X88766219Y-89232675D01*
X88812809Y-89201544D01*
X88862218Y-89175135D01*
X88905527Y-89139592D01*
X88952115Y-89108463D01*
X88991736Y-89068842D01*
X89035044Y-89033300D01*
X89070586Y-88989992D01*
X89110207Y-88950371D01*
X89141336Y-88903783D01*
X89176879Y-88860474D01*
X89203288Y-88811065D01*
X89234419Y-88764475D01*
X89255864Y-88712702D01*
X89282271Y-88663298D01*
X89298532Y-88609693D01*
X89319978Y-88557918D01*
X89330910Y-88502957D01*
X89347172Y-88449350D01*
X89352663Y-88393598D01*
X89363595Y-88338639D01*
X89363595Y-88282603D01*
X89369086Y-88226851D01*
X89363595Y-88171099D01*
X89363595Y-88115063D01*
X89352663Y-88060104D01*
X89347172Y-88004352D01*
X89330910Y-87950745D01*
X89319978Y-87895784D01*
X89298532Y-87844009D01*
X89282271Y-87790404D01*
X89255864Y-87741000D01*
X89234419Y-87689227D01*
X89203288Y-87642637D01*
X89176879Y-87593228D01*
X89141336Y-87549919D01*
X89110207Y-87503331D01*
X89070586Y-87463710D01*
X89035044Y-87420402D01*
X88991736Y-87384860D01*
X88952115Y-87345239D01*
X88905527Y-87314110D01*
X88862218Y-87278567D01*
X88812809Y-87252158D01*
X88766219Y-87221027D01*
X88714446Y-87199582D01*
X88665042Y-87173175D01*
X88611437Y-87156914D01*
X88559662Y-87135468D01*
X88504701Y-87124536D01*
X88451094Y-87108274D01*
X88395342Y-87102783D01*
X88340383Y-87091851D01*
X86918983Y-87091851D01*
X86479000Y-86651869D01*
X86479000Y-80518000D01*
X97910743Y-80518000D01*
X97939705Y-80812051D01*
X98025476Y-81094802D01*
X98164762Y-81355387D01*
X98352208Y-81583792D01*
X98580613Y-81771238D01*
X98611972Y-81788000D01*
X98580613Y-81804762D01*
X98352208Y-81992208D01*
X98164762Y-82220613D01*
X98025476Y-82481198D01*
X97939705Y-82763949D01*
X97910743Y-83058000D01*
X97939705Y-83352051D01*
X98025476Y-83634802D01*
X98164762Y-83895387D01*
X98352208Y-84123792D01*
X98580613Y-84311238D01*
X98611972Y-84328000D01*
X98580613Y-84344762D01*
X98352208Y-84532208D01*
X98164762Y-84760613D01*
X98025476Y-85021198D01*
X97939705Y-85303949D01*
X97910743Y-85598000D01*
X97939705Y-85892051D01*
X98025476Y-86174802D01*
X98164762Y-86435387D01*
X98352208Y-86663792D01*
X98580613Y-86851238D01*
X98841198Y-86990524D01*
X99123949Y-87076295D01*
X99344320Y-87098000D01*
X99791680Y-87098000D01*
X100012051Y-87076295D01*
X100294802Y-86990524D01*
X100555387Y-86851238D01*
X100783792Y-86663792D01*
X100971238Y-86435387D01*
X101110524Y-86174802D01*
X101196295Y-85892051D01*
X101225257Y-85598000D01*
X101196295Y-85303949D01*
X101110524Y-85021198D01*
X100971238Y-84760613D01*
X100783792Y-84532208D01*
X100555387Y-84344762D01*
X100524028Y-84328000D01*
X100555387Y-84311238D01*
X100783792Y-84123792D01*
X100934414Y-83940258D01*
X100972606Y-83978450D01*
X101166692Y-84108134D01*
X101382348Y-84197461D01*
X101611288Y-84243000D01*
X101844712Y-84243000D01*
X102073652Y-84197461D01*
X102289308Y-84108134D01*
X102483394Y-83978450D01*
X102648450Y-83813394D01*
X102778134Y-83619308D01*
X102867461Y-83403652D01*
X102913000Y-83174712D01*
X102913000Y-82941288D01*
X102867461Y-82712348D01*
X102778134Y-82496692D01*
X102648450Y-82302606D01*
X102483394Y-82137550D01*
X102289308Y-82007866D01*
X102073652Y-81918539D01*
X101844712Y-81873000D01*
X101611288Y-81873000D01*
X101382348Y-81918539D01*
X101166692Y-82007866D01*
X100972606Y-82137550D01*
X100934414Y-82175742D01*
X100783792Y-81992208D01*
X100555387Y-81804762D01*
X100524028Y-81788000D01*
X100555387Y-81771238D01*
X100783792Y-81583792D01*
X100971238Y-81355387D01*
X101110524Y-81094802D01*
X101196295Y-80812051D01*
X101225257Y-80518000D01*
X101196295Y-80223949D01*
X101110524Y-79941198D01*
X100971238Y-79680613D01*
X100783792Y-79452208D01*
X100777970Y-79447430D01*
X100827180Y-79432502D01*
X100937494Y-79373537D01*
X101034185Y-79294185D01*
X101113537Y-79197494D01*
X101172502Y-79087180D01*
X101208812Y-78967482D01*
X101221072Y-78843000D01*
X101218000Y-78263750D01*
X101059250Y-78105000D01*
X99695000Y-78105000D01*
X99695000Y-78125000D01*
X99441000Y-78125000D01*
X99441000Y-78105000D01*
X98076750Y-78105000D01*
X97918000Y-78263750D01*
X97914928Y-78843000D01*
X97927188Y-78967482D01*
X97963498Y-79087180D01*
X98022463Y-79197494D01*
X98101815Y-79294185D01*
X98198506Y-79373537D01*
X98308820Y-79432502D01*
X98358030Y-79447430D01*
X98352208Y-79452208D01*
X98164762Y-79680613D01*
X98025476Y-79941198D01*
X97939705Y-80223949D01*
X97910743Y-80518000D01*
X86479000Y-80518000D01*
X86479000Y-78918589D01*
X86488377Y-78926284D01*
X86685553Y-79031676D01*
X86899501Y-79096577D01*
X87122000Y-79118491D01*
X87177752Y-79113000D01*
X88249788Y-79113000D01*
X88304747Y-79102068D01*
X88360499Y-79096577D01*
X88414106Y-79080315D01*
X88469067Y-79069383D01*
X88520842Y-79047937D01*
X88574447Y-79031676D01*
X88623851Y-79005269D01*
X88675624Y-78983824D01*
X88722214Y-78952693D01*
X88771623Y-78926284D01*
X88814932Y-78890741D01*
X88861520Y-78859612D01*
X88901143Y-78819989D01*
X88944449Y-78784449D01*
X88979991Y-78741141D01*
X89019612Y-78701520D01*
X89050741Y-78654932D01*
X89086284Y-78611623D01*
X89112693Y-78562214D01*
X89143824Y-78515624D01*
X89165269Y-78463851D01*
X89191676Y-78414447D01*
X89207937Y-78360842D01*
X89229383Y-78309067D01*
X89240315Y-78254106D01*
X89256577Y-78200499D01*
X89262068Y-78144747D01*
X89273000Y-78089788D01*
X89273000Y-78033752D01*
X89278491Y-77978000D01*
X89273000Y-77922248D01*
X89273000Y-77866212D01*
X89262068Y-77811253D01*
X89256577Y-77755501D01*
X89240315Y-77701894D01*
X89229383Y-77646933D01*
X89207937Y-77595158D01*
X89191676Y-77541553D01*
X89165269Y-77492149D01*
X89143824Y-77440376D01*
X89112693Y-77393786D01*
X89086284Y-77344377D01*
X89050741Y-77301068D01*
X89019612Y-77254480D01*
X88979991Y-77214859D01*
X88944449Y-77171551D01*
X88901141Y-77136009D01*
X88878132Y-77113000D01*
X97914928Y-77113000D01*
X97918000Y-77692250D01*
X98076750Y-77851000D01*
X99441000Y-77851000D01*
X99441000Y-76636750D01*
X99695000Y-76636750D01*
X99695000Y-77851000D01*
X101059250Y-77851000D01*
X101218000Y-77692250D01*
X101221072Y-77113000D01*
X101208812Y-76988518D01*
X101172502Y-76868820D01*
X101113537Y-76758506D01*
X101034185Y-76661815D01*
X100937494Y-76582463D01*
X100827180Y-76523498D01*
X100707482Y-76487188D01*
X100583000Y-76474928D01*
X99853750Y-76478000D01*
X99695000Y-76636750D01*
X99441000Y-76636750D01*
X99282250Y-76478000D01*
X98553000Y-76474928D01*
X98428518Y-76487188D01*
X98308820Y-76523498D01*
X98198506Y-76582463D01*
X98101815Y-76661815D01*
X98022463Y-76758506D01*
X97963498Y-76868820D01*
X97927188Y-76988518D01*
X97914928Y-77113000D01*
X88878132Y-77113000D01*
X88861520Y-77096388D01*
X88814932Y-77065259D01*
X88771623Y-77029716D01*
X88722214Y-77003307D01*
X88675624Y-76972176D01*
X88623851Y-76950731D01*
X88574447Y-76924324D01*
X88520842Y-76908063D01*
X88469067Y-76886617D01*
X88414106Y-76875685D01*
X88360499Y-76859423D01*
X88304747Y-76853932D01*
X88249788Y-76843000D01*
X87592133Y-76843000D01*
X86479000Y-75729869D01*
X86479000Y-68072000D01*
X97910743Y-68072000D01*
X97939705Y-68366051D01*
X98025476Y-68648802D01*
X98164762Y-68909387D01*
X98352208Y-69137792D01*
X98580613Y-69325238D01*
X98611972Y-69342000D01*
X98580613Y-69358762D01*
X98352208Y-69546208D01*
X98164762Y-69774613D01*
X98025476Y-70035198D01*
X97939705Y-70317949D01*
X97910743Y-70612000D01*
X97939705Y-70906051D01*
X98025476Y-71188802D01*
X98164762Y-71449387D01*
X98352208Y-71677792D01*
X98580613Y-71865238D01*
X98611972Y-71882000D01*
X98580613Y-71898762D01*
X98352208Y-72086208D01*
X98164762Y-72314613D01*
X98025476Y-72575198D01*
X97939705Y-72857949D01*
X97910743Y-73152000D01*
X97939705Y-73446051D01*
X98025476Y-73728802D01*
X98164762Y-73989387D01*
X98352208Y-74217792D01*
X98580613Y-74405238D01*
X98841198Y-74544524D01*
X99123949Y-74630295D01*
X99344320Y-74652000D01*
X99791680Y-74652000D01*
X100012051Y-74630295D01*
X100294802Y-74544524D01*
X100555387Y-74405238D01*
X100783792Y-74217792D01*
X100971238Y-73989387D01*
X101110524Y-73728802D01*
X101196295Y-73446051D01*
X101225257Y-73152000D01*
X101196295Y-72857949D01*
X101110524Y-72575198D01*
X100971238Y-72314613D01*
X100783792Y-72086208D01*
X100555387Y-71898762D01*
X100524028Y-71882000D01*
X100555387Y-71865238D01*
X100783792Y-71677792D01*
X100934414Y-71494258D01*
X100972606Y-71532450D01*
X101166692Y-71662134D01*
X101382348Y-71751461D01*
X101611288Y-71797000D01*
X101844712Y-71797000D01*
X102073652Y-71751461D01*
X102289308Y-71662134D01*
X102483394Y-71532450D01*
X102648450Y-71367394D01*
X102778134Y-71173308D01*
X102867461Y-70957652D01*
X102913000Y-70728712D01*
X102913000Y-70495288D01*
X102867461Y-70266348D01*
X102778134Y-70050692D01*
X102648450Y-69856606D01*
X102483394Y-69691550D01*
X102289308Y-69561866D01*
X102073652Y-69472539D01*
X101844712Y-69427000D01*
X101611288Y-69427000D01*
X101382348Y-69472539D01*
X101166692Y-69561866D01*
X100972606Y-69691550D01*
X100934414Y-69729742D01*
X100783792Y-69546208D01*
X100555387Y-69358762D01*
X100524028Y-69342000D01*
X100555387Y-69325238D01*
X100783792Y-69137792D01*
X100971238Y-68909387D01*
X101110524Y-68648802D01*
X101196295Y-68366051D01*
X101225257Y-68072000D01*
X101196295Y-67777949D01*
X101110524Y-67495198D01*
X100971238Y-67234613D01*
X100783792Y-67006208D01*
X100777970Y-67001430D01*
X100827180Y-66986502D01*
X100937494Y-66927537D01*
X101034185Y-66848185D01*
X101113537Y-66751494D01*
X101172502Y-66641180D01*
X101208812Y-66521482D01*
X101221072Y-66397000D01*
X101218000Y-65817750D01*
X101059250Y-65659000D01*
X99695000Y-65659000D01*
X99695000Y-65679000D01*
X99441000Y-65679000D01*
X99441000Y-65659000D01*
X98076750Y-65659000D01*
X97918000Y-65817750D01*
X97914928Y-66397000D01*
X97927188Y-66521482D01*
X97963498Y-66641180D01*
X98022463Y-66751494D01*
X98101815Y-66848185D01*
X98198506Y-66927537D01*
X98308820Y-66986502D01*
X98358030Y-67001430D01*
X98352208Y-67006208D01*
X98164762Y-67234613D01*
X98025476Y-67495198D01*
X97939705Y-67777949D01*
X97910743Y-68072000D01*
X86479000Y-68072000D01*
X86479000Y-64974097D01*
X86630628Y-65098535D01*
X86827804Y-65203927D01*
X86967323Y-65246250D01*
X87041752Y-65268828D01*
X87264251Y-65290742D01*
X87320003Y-65285251D01*
X88900657Y-65285251D01*
X88955616Y-65274319D01*
X89011368Y-65268828D01*
X89064975Y-65252566D01*
X89119936Y-65241634D01*
X89171711Y-65220188D01*
X89225316Y-65203927D01*
X89274720Y-65177520D01*
X89326493Y-65156075D01*
X89373083Y-65124944D01*
X89422492Y-65098535D01*
X89465801Y-65062992D01*
X89512389Y-65031863D01*
X89552012Y-64992240D01*
X89595318Y-64956700D01*
X89630860Y-64913392D01*
X89670481Y-64873771D01*
X89701610Y-64827183D01*
X89737153Y-64783874D01*
X89763562Y-64734465D01*
X89794693Y-64687875D01*
X89803339Y-64667000D01*
X97914928Y-64667000D01*
X97918000Y-65246250D01*
X98076750Y-65405000D01*
X99441000Y-65405000D01*
X99441000Y-64190750D01*
X99695000Y-64190750D01*
X99695000Y-65405000D01*
X101059250Y-65405000D01*
X101218000Y-65246250D01*
X101221072Y-64667000D01*
X101208812Y-64542518D01*
X101172502Y-64422820D01*
X101113537Y-64312506D01*
X101034185Y-64215815D01*
X100937494Y-64136463D01*
X100827180Y-64077498D01*
X100707482Y-64041188D01*
X100583000Y-64028928D01*
X99853750Y-64032000D01*
X99695000Y-64190750D01*
X99441000Y-64190750D01*
X99282250Y-64032000D01*
X98553000Y-64028928D01*
X98428518Y-64041188D01*
X98308820Y-64077498D01*
X98198506Y-64136463D01*
X98101815Y-64215815D01*
X98022463Y-64312506D01*
X97963498Y-64422820D01*
X97927188Y-64542518D01*
X97914928Y-64667000D01*
X89803339Y-64667000D01*
X89816138Y-64636102D01*
X89842545Y-64586698D01*
X89858806Y-64533093D01*
X89880252Y-64481318D01*
X89891184Y-64426357D01*
X89907446Y-64372750D01*
X89912937Y-64316998D01*
X89923869Y-64262039D01*
X89923869Y-64206003D01*
X89929360Y-64150251D01*
X89923869Y-64094499D01*
X89923869Y-64038463D01*
X89912937Y-63983504D01*
X89907446Y-63927752D01*
X89891184Y-63874145D01*
X89880252Y-63819184D01*
X89858806Y-63767409D01*
X89842545Y-63713804D01*
X89816138Y-63664400D01*
X89794693Y-63612627D01*
X89763562Y-63566037D01*
X89737153Y-63516628D01*
X89701610Y-63473319D01*
X89670481Y-63426731D01*
X89630858Y-63387108D01*
X89595318Y-63343802D01*
X89552010Y-63308260D01*
X89512389Y-63268639D01*
X89465801Y-63237510D01*
X89422492Y-63201967D01*
X89373083Y-63175558D01*
X89326493Y-63144427D01*
X89274720Y-63122982D01*
X89225316Y-63096575D01*
X89171711Y-63080314D01*
X89119936Y-63058868D01*
X89064975Y-63047936D01*
X89011368Y-63031674D01*
X88955616Y-63026183D01*
X88900657Y-63015251D01*
X87734382Y-63015251D01*
X87709992Y-62990861D01*
X87709988Y-62990856D01*
X86185998Y-61466867D01*
X86185989Y-61466856D01*
X86185987Y-61466854D01*
X86150449Y-61423551D01*
X86107145Y-61388012D01*
X84701000Y-59981869D01*
X84701000Y-55372000D01*
X97910743Y-55372000D01*
X97939705Y-55666051D01*
X98025476Y-55948802D01*
X98164762Y-56209387D01*
X98352208Y-56437792D01*
X98580613Y-56625238D01*
X98611972Y-56642000D01*
X98580613Y-56658762D01*
X98352208Y-56846208D01*
X98164762Y-57074613D01*
X98025476Y-57335198D01*
X97939705Y-57617949D01*
X97910743Y-57912000D01*
X97939705Y-58206051D01*
X98025476Y-58488802D01*
X98164762Y-58749387D01*
X98352208Y-58977792D01*
X98580613Y-59165238D01*
X98611972Y-59182000D01*
X98580613Y-59198762D01*
X98352208Y-59386208D01*
X98164762Y-59614613D01*
X98025476Y-59875198D01*
X97939705Y-60157949D01*
X97910743Y-60452000D01*
X97939705Y-60746051D01*
X98025476Y-61028802D01*
X98164762Y-61289387D01*
X98352208Y-61517792D01*
X98580613Y-61705238D01*
X98841198Y-61844524D01*
X99123949Y-61930295D01*
X99344320Y-61952000D01*
X99791680Y-61952000D01*
X100012051Y-61930295D01*
X100294802Y-61844524D01*
X100555387Y-61705238D01*
X100783792Y-61517792D01*
X100971238Y-61289387D01*
X101110524Y-61028802D01*
X101196295Y-60746051D01*
X101225257Y-60452000D01*
X101196295Y-60157949D01*
X101110524Y-59875198D01*
X100971238Y-59614613D01*
X100783792Y-59386208D01*
X100555387Y-59198762D01*
X100524028Y-59182000D01*
X100555387Y-59165238D01*
X100783792Y-58977792D01*
X100934414Y-58794258D01*
X100972606Y-58832450D01*
X101166692Y-58962134D01*
X101382348Y-59051461D01*
X101611288Y-59097000D01*
X101844712Y-59097000D01*
X102073652Y-59051461D01*
X102289308Y-58962134D01*
X102483394Y-58832450D01*
X102648450Y-58667394D01*
X102778134Y-58473308D01*
X102867461Y-58257652D01*
X102913000Y-58028712D01*
X102913000Y-57795288D01*
X102867461Y-57566348D01*
X102778134Y-57350692D01*
X102648450Y-57156606D01*
X102483394Y-56991550D01*
X102289308Y-56861866D01*
X102073652Y-56772539D01*
X101844712Y-56727000D01*
X101611288Y-56727000D01*
X101382348Y-56772539D01*
X101166692Y-56861866D01*
X100972606Y-56991550D01*
X100934414Y-57029742D01*
X100783792Y-56846208D01*
X100555387Y-56658762D01*
X100524028Y-56642000D01*
X100555387Y-56625238D01*
X100783792Y-56437792D01*
X100971238Y-56209387D01*
X101110524Y-55948802D01*
X101196295Y-55666051D01*
X101225257Y-55372000D01*
X101196295Y-55077949D01*
X101110524Y-54795198D01*
X100971238Y-54534613D01*
X100783792Y-54306208D01*
X100777970Y-54301430D01*
X100827180Y-54286502D01*
X100937494Y-54227537D01*
X101034185Y-54148185D01*
X101113537Y-54051494D01*
X101172502Y-53941180D01*
X101208812Y-53821482D01*
X101221072Y-53697000D01*
X101218000Y-53117750D01*
X101059250Y-52959000D01*
X99695000Y-52959000D01*
X99695000Y-52979000D01*
X99441000Y-52979000D01*
X99441000Y-52959000D01*
X98076750Y-52959000D01*
X97918000Y-53117750D01*
X97914928Y-53697000D01*
X97927188Y-53821482D01*
X97963498Y-53941180D01*
X98022463Y-54051494D01*
X98101815Y-54148185D01*
X98198506Y-54227537D01*
X98308820Y-54286502D01*
X98358030Y-54301430D01*
X98352208Y-54306208D01*
X98164762Y-54534613D01*
X98025476Y-54795198D01*
X97939705Y-55077949D01*
X97910743Y-55372000D01*
X84701000Y-55372000D01*
X84701000Y-51967000D01*
X97914928Y-51967000D01*
X97918000Y-52546250D01*
X98076750Y-52705000D01*
X99441000Y-52705000D01*
X99441000Y-51490750D01*
X99695000Y-51490750D01*
X99695000Y-52705000D01*
X101059250Y-52705000D01*
X101218000Y-52546250D01*
X101221072Y-51967000D01*
X101208812Y-51842518D01*
X101172502Y-51722820D01*
X101113537Y-51612506D01*
X101034185Y-51515815D01*
X100937494Y-51436463D01*
X100827180Y-51377498D01*
X100707482Y-51341188D01*
X100583000Y-51328928D01*
X99853750Y-51332000D01*
X99695000Y-51490750D01*
X99441000Y-51490750D01*
X99282250Y-51332000D01*
X98553000Y-51328928D01*
X98428518Y-51341188D01*
X98308820Y-51377498D01*
X98198506Y-51436463D01*
X98101815Y-51515815D01*
X98022463Y-51612506D01*
X97963498Y-51722820D01*
X97927188Y-51842518D01*
X97914928Y-51967000D01*
X84701000Y-51967000D01*
X84701000Y-41245000D01*
X95564928Y-41245000D01*
X95564928Y-43845000D01*
X95577188Y-43969482D01*
X95613498Y-44089180D01*
X95672463Y-44199494D01*
X95751815Y-44296185D01*
X95848506Y-44375537D01*
X95958820Y-44434502D01*
X96078518Y-44470812D01*
X96203000Y-44483072D01*
X98203000Y-44483072D01*
X98327482Y-44470812D01*
X98447180Y-44434502D01*
X98557494Y-44375537D01*
X98654185Y-44296185D01*
X98733537Y-44199494D01*
X98792502Y-44089180D01*
X98828812Y-43969482D01*
X98841072Y-43845000D01*
X98841072Y-41245000D01*
X101564928Y-41245000D01*
X101564928Y-43845000D01*
X101577188Y-43969482D01*
X101613498Y-44089180D01*
X101672463Y-44199494D01*
X101751815Y-44296185D01*
X101848506Y-44375537D01*
X101958820Y-44434502D01*
X102078518Y-44470812D01*
X102203000Y-44483072D01*
X104203000Y-44483072D01*
X104327482Y-44470812D01*
X104447180Y-44434502D01*
X104557494Y-44375537D01*
X104654185Y-44296185D01*
X104733537Y-44199494D01*
X104792502Y-44089180D01*
X104828812Y-43969482D01*
X104841072Y-43845000D01*
X104841072Y-41245000D01*
X104828812Y-41120518D01*
X104792502Y-41000820D01*
X104733537Y-40890506D01*
X104654185Y-40793815D01*
X104557494Y-40714463D01*
X104447180Y-40655498D01*
X104327482Y-40619188D01*
X104203000Y-40606928D01*
X102203000Y-40606928D01*
X102078518Y-40619188D01*
X101958820Y-40655498D01*
X101848506Y-40714463D01*
X101751815Y-40793815D01*
X101672463Y-40890506D01*
X101613498Y-41000820D01*
X101577188Y-41120518D01*
X101564928Y-41245000D01*
X98841072Y-41245000D01*
X98828812Y-41120518D01*
X98792502Y-41000820D01*
X98733537Y-40890506D01*
X98654185Y-40793815D01*
X98557494Y-40714463D01*
X98447180Y-40655498D01*
X98327482Y-40619188D01*
X98203000Y-40606928D01*
X96203000Y-40606928D01*
X96078518Y-40619188D01*
X95958820Y-40655498D01*
X95848506Y-40714463D01*
X95751815Y-40793815D01*
X95672463Y-40890506D01*
X95613498Y-41000820D01*
X95577188Y-41120518D01*
X95564928Y-41245000D01*
X84701000Y-41245000D01*
X84701000Y-36845000D01*
X98264928Y-36845000D01*
X98264928Y-38845000D01*
X98277188Y-38969482D01*
X98313498Y-39089180D01*
X98372463Y-39199494D01*
X98451815Y-39296185D01*
X98548506Y-39375537D01*
X98658820Y-39434502D01*
X98778518Y-39470812D01*
X98903000Y-39483072D01*
X101503000Y-39483072D01*
X101627482Y-39470812D01*
X101747180Y-39434502D01*
X101857494Y-39375537D01*
X101954185Y-39296185D01*
X102033537Y-39199494D01*
X102092502Y-39089180D01*
X102128812Y-38969482D01*
X102141072Y-38845000D01*
X102141072Y-36845000D01*
X102128812Y-36720518D01*
X102092502Y-36600820D01*
X102033537Y-36490506D01*
X101954185Y-36393815D01*
X101857494Y-36314463D01*
X101747180Y-36255498D01*
X101627482Y-36219188D01*
X101503000Y-36206928D01*
X98903000Y-36206928D01*
X98778518Y-36219188D01*
X98658820Y-36255498D01*
X98548506Y-36314463D01*
X98451815Y-36393815D01*
X98372463Y-36490506D01*
X98313498Y-36600820D01*
X98277188Y-36720518D01*
X98264928Y-36845000D01*
X84701000Y-36845000D01*
X84701000Y-34527740D01*
X99219964Y-34527740D01*
X99268606Y-34688107D01*
X99398764Y-34959414D01*
X99579351Y-35200116D01*
X99803427Y-35400962D01*
X100062380Y-35554234D01*
X100346259Y-35654041D01*
X100584000Y-35533992D01*
X100584000Y-34290000D01*
X99340622Y-34290000D01*
X99219964Y-34527740D01*
X84701000Y-34527740D01*
X84701000Y-33798260D01*
X99219964Y-33798260D01*
X99340622Y-34036000D01*
X100584000Y-34036000D01*
X100584000Y-32792008D01*
X100838000Y-32792008D01*
X100838000Y-34036000D01*
X100858000Y-34036000D01*
X100858000Y-34290000D01*
X100838000Y-34290000D01*
X100838000Y-35533992D01*
X101075741Y-35654041D01*
X101359620Y-35554234D01*
X101618573Y-35400962D01*
X101753311Y-35280192D01*
X101761498Y-35307180D01*
X101820463Y-35417494D01*
X101899815Y-35514185D01*
X101996506Y-35593537D01*
X102106820Y-35652502D01*
X102226518Y-35688812D01*
X102351000Y-35701072D01*
X104151000Y-35701072D01*
X104275482Y-35688812D01*
X104395180Y-35652502D01*
X104505494Y-35593537D01*
X104602185Y-35514185D01*
X104681537Y-35417494D01*
X104740502Y-35307180D01*
X104776812Y-35187482D01*
X104789072Y-35063000D01*
X104789072Y-33263000D01*
X104776812Y-33138518D01*
X104740502Y-33018820D01*
X104681537Y-32908506D01*
X104602185Y-32811815D01*
X104505494Y-32732463D01*
X104395180Y-32673498D01*
X104275482Y-32637188D01*
X104151000Y-32624928D01*
X102351000Y-32624928D01*
X102226518Y-32637188D01*
X102106820Y-32673498D01*
X101996506Y-32732463D01*
X101899815Y-32811815D01*
X101820463Y-32908506D01*
X101761498Y-33018820D01*
X101753311Y-33045808D01*
X101618573Y-32925038D01*
X101359620Y-32771766D01*
X101075741Y-32671959D01*
X100838000Y-32792008D01*
X100584000Y-32792008D01*
X100346259Y-32671959D01*
X100062380Y-32771766D01*
X99803427Y-32925038D01*
X99579351Y-33125884D01*
X99398764Y-33366586D01*
X99268606Y-33637893D01*
X99219964Y-33798260D01*
X84701000Y-33798260D01*
X84701000Y-31109131D01*
X84839647Y-30970485D01*
X85021490Y-30934314D01*
X85275727Y-30829005D01*
X85504535Y-30676120D01*
X85624090Y-30556565D01*
X85828040Y-30556565D01*
X85895020Y-30796656D01*
X86144048Y-30913756D01*
X86411135Y-30980023D01*
X86686017Y-30992910D01*
X86958133Y-30951922D01*
X87217023Y-30858636D01*
X87332980Y-30796656D01*
X87399960Y-30556565D01*
X86614000Y-29770605D01*
X85828040Y-30556565D01*
X85624090Y-30556565D01*
X85699120Y-30481535D01*
X85852005Y-30252727D01*
X85908105Y-30117290D01*
X86434395Y-29591000D01*
X86793605Y-29591000D01*
X87319895Y-30117290D01*
X87375995Y-30252727D01*
X87528880Y-30481535D01*
X87723465Y-30676120D01*
X87952273Y-30829005D01*
X88206510Y-30934314D01*
X88476408Y-30988000D01*
X88751592Y-30988000D01*
X89021490Y-30934314D01*
X89275727Y-30829005D01*
X89369670Y-30766234D01*
X89400815Y-30804185D01*
X89497506Y-30883537D01*
X89607820Y-30942502D01*
X89727518Y-30978812D01*
X89852000Y-30991072D01*
X91376000Y-30991072D01*
X91500482Y-30978812D01*
X91620180Y-30942502D01*
X91730494Y-30883537D01*
X91827185Y-30804185D01*
X91906537Y-30707494D01*
X91965502Y-30597180D01*
X91999992Y-30483481D01*
X100379124Y-30483481D01*
X100691308Y-30932177D01*
X101287259Y-31252612D01*
X101934273Y-31450626D01*
X102607484Y-31518610D01*
X103281023Y-31453949D01*
X103929006Y-31259130D01*
X104526530Y-30941639D01*
X104540692Y-30932177D01*
X104852876Y-30483481D01*
X102616000Y-28246605D01*
X100379124Y-30483481D01*
X91999992Y-30483481D01*
X92001812Y-30477482D01*
X92014072Y-30353000D01*
X92014072Y-28829000D01*
X92001812Y-28704518D01*
X91965502Y-28584820D01*
X91906537Y-28474506D01*
X91827185Y-28377815D01*
X91730494Y-28298463D01*
X91620180Y-28239498D01*
X91500482Y-28203188D01*
X91376000Y-28190928D01*
X89852000Y-28190928D01*
X89727518Y-28203188D01*
X89607820Y-28239498D01*
X89497506Y-28298463D01*
X89400815Y-28377815D01*
X89369670Y-28415766D01*
X89275727Y-28352995D01*
X89021490Y-28247686D01*
X88751592Y-28194000D01*
X88476408Y-28194000D01*
X88206510Y-28247686D01*
X87952273Y-28352995D01*
X87723465Y-28505880D01*
X87528880Y-28700465D01*
X87375995Y-28929273D01*
X87319895Y-29064710D01*
X86793605Y-29591000D01*
X86434395Y-29591000D01*
X85908105Y-29064710D01*
X85852005Y-28929273D01*
X85699120Y-28700465D01*
X85624090Y-28625435D01*
X85828040Y-28625435D01*
X86614000Y-29411395D01*
X87399960Y-28625435D01*
X87332980Y-28385344D01*
X87083952Y-28268244D01*
X86816865Y-28201977D01*
X86541983Y-28189090D01*
X86269867Y-28230078D01*
X86010977Y-28323364D01*
X85895020Y-28385344D01*
X85828040Y-28625435D01*
X85624090Y-28625435D01*
X85504535Y-28505880D01*
X85275727Y-28352995D01*
X85021490Y-28247686D01*
X84751592Y-28194000D01*
X84476408Y-28194000D01*
X84206510Y-28247686D01*
X83952273Y-28352995D01*
X83723465Y-28505880D01*
X83646345Y-28583000D01*
X82605751Y-28583000D01*
X82550000Y-28577509D01*
X82494249Y-28583000D01*
X79267817Y-28583000D01*
X79210505Y-28525688D01*
X78959095Y-28357701D01*
X78679743Y-28241989D01*
X78383184Y-28183000D01*
X78080816Y-28183000D01*
X77784257Y-28241989D01*
X77504905Y-28357701D01*
X77253495Y-28525688D01*
X77196183Y-28583000D01*
X63809752Y-28583000D01*
X63754000Y-28577509D01*
X63698248Y-28583000D01*
X63531501Y-28599423D01*
X63317553Y-28664324D01*
X63120377Y-28769716D01*
X62947551Y-28911551D01*
X62912011Y-28954857D01*
X59106655Y-32760214D01*
X59018299Y-32546905D01*
X58850312Y-32295495D01*
X58636505Y-32081688D01*
X58385095Y-31913701D01*
X58105743Y-31797989D01*
X57809184Y-31739000D01*
X57506816Y-31739000D01*
X57210257Y-31797989D01*
X56930905Y-31913701D01*
X56679495Y-32081688D01*
X56465688Y-32295495D01*
X56297701Y-32546905D01*
X56181989Y-32826257D01*
X56123000Y-33122816D01*
X56123000Y-33425184D01*
X56181989Y-33721743D01*
X56297701Y-34001095D01*
X56465688Y-34252505D01*
X56532127Y-34318944D01*
X56513820Y-34324498D01*
X56403506Y-34383463D01*
X56306815Y-34462815D01*
X56227463Y-34559506D01*
X56168498Y-34669820D01*
X56132188Y-34789518D01*
X56119928Y-34914000D01*
X56119928Y-35746941D01*
X51814865Y-40052004D01*
X51771551Y-40087551D01*
X51629716Y-40260377D01*
X51528362Y-40450000D01*
X51524324Y-40457554D01*
X51459423Y-40671502D01*
X51437509Y-40894000D01*
X51443000Y-40949752D01*
X51443001Y-45950000D01*
X39779608Y-45950000D01*
X39700567Y-45870959D01*
X39940656Y-45803980D01*
X40057756Y-45554952D01*
X40124023Y-45287865D01*
X40136910Y-45012983D01*
X40095922Y-44740867D01*
X40002636Y-44481977D01*
X39940656Y-44366020D01*
X39700565Y-44299040D01*
X38914605Y-45085000D01*
X38928748Y-45099143D01*
X38749143Y-45278748D01*
X38735000Y-45264605D01*
X38208710Y-45790895D01*
X38073273Y-45846995D01*
X37844465Y-45999880D01*
X37649880Y-46194465D01*
X37496995Y-46423273D01*
X37391686Y-46677510D01*
X37338000Y-46947408D01*
X31146119Y-46947408D01*
X31146341Y-45157017D01*
X37333090Y-45157017D01*
X37374078Y-45429133D01*
X37467364Y-45688023D01*
X37529344Y-45803980D01*
X37769435Y-45870960D01*
X38555395Y-45085000D01*
X37769435Y-44299040D01*
X37529344Y-44366020D01*
X37412244Y-44615048D01*
X37345977Y-44882135D01*
X37333090Y-45157017D01*
X31146341Y-45157017D01*
X31146938Y-40323000D01*
X37334928Y-40323000D01*
X37334928Y-41847000D01*
X37347188Y-41971482D01*
X37383498Y-42091180D01*
X37442463Y-42201494D01*
X37521815Y-42298185D01*
X37559766Y-42329330D01*
X37496995Y-42423273D01*
X37391686Y-42677510D01*
X37338000Y-42947408D01*
X37338000Y-43222592D01*
X37391686Y-43492490D01*
X37496995Y-43746727D01*
X37649880Y-43975535D01*
X37844465Y-44170120D01*
X38073273Y-44323005D01*
X38208710Y-44379105D01*
X38735000Y-44905395D01*
X39261290Y-44379105D01*
X39396727Y-44323005D01*
X39625535Y-44170120D01*
X39820120Y-43975535D01*
X39973005Y-43746727D01*
X40078314Y-43492490D01*
X40132000Y-43222592D01*
X40132000Y-42947408D01*
X40078314Y-42677510D01*
X39973005Y-42423273D01*
X39910234Y-42329330D01*
X39948185Y-42298185D01*
X40027537Y-42201494D01*
X40086502Y-42091180D01*
X40122812Y-41971482D01*
X40135072Y-41847000D01*
X40135072Y-40323000D01*
X40122812Y-40198518D01*
X40086502Y-40078820D01*
X40027537Y-39968506D01*
X39948185Y-39871815D01*
X39851494Y-39792463D01*
X39741180Y-39733498D01*
X39621482Y-39697188D01*
X39497000Y-39684928D01*
X37973000Y-39684928D01*
X37848518Y-39697188D01*
X37728820Y-39733498D01*
X37618506Y-39792463D01*
X37521815Y-39871815D01*
X37442463Y-39968506D01*
X37383498Y-40078820D01*
X37347188Y-40198518D01*
X37334928Y-40323000D01*
X31146938Y-40323000D01*
X31147708Y-34091764D01*
X39207841Y-34091764D01*
X39255148Y-34315348D01*
X39476516Y-34416237D01*
X39713313Y-34472000D01*
X39956438Y-34480495D01*
X40196549Y-34441395D01*
X40424418Y-34356202D01*
X40500852Y-34315348D01*
X40548159Y-34091764D01*
X39878000Y-33421605D01*
X39207841Y-34091764D01*
X31147708Y-34091764D01*
X31147804Y-33320438D01*
X38639505Y-33320438D01*
X38678605Y-33560549D01*
X38763798Y-33788418D01*
X38804652Y-33864852D01*
X39028236Y-33912159D01*
X39698395Y-33242000D01*
X39684253Y-33227858D01*
X39863858Y-33048253D01*
X39878000Y-33062395D01*
X39892143Y-33048253D01*
X40071748Y-33227858D01*
X40057605Y-33242000D01*
X40727764Y-33912159D01*
X40951348Y-33864852D01*
X41052237Y-33643484D01*
X41108000Y-33406687D01*
X41116495Y-33163562D01*
X41077395Y-32923451D01*
X40992202Y-32695582D01*
X40951348Y-32619148D01*
X40727766Y-32571842D01*
X40844872Y-32454736D01*
X40786994Y-32396858D01*
X40832494Y-32372537D01*
X40929185Y-32293185D01*
X41008537Y-32196494D01*
X41067502Y-32086180D01*
X41103812Y-31966482D01*
X41116072Y-31842000D01*
X41116072Y-30642000D01*
X41103812Y-30517518D01*
X41067502Y-30397820D01*
X41008537Y-30287506D01*
X40971192Y-30242000D01*
X45351928Y-30242000D01*
X45351928Y-32242000D01*
X45364188Y-32366482D01*
X45400498Y-32486180D01*
X45459463Y-32596494D01*
X45538815Y-32693185D01*
X45635506Y-32772537D01*
X45745820Y-32831502D01*
X45865518Y-32867812D01*
X45990000Y-32880072D01*
X47990000Y-32880072D01*
X48114482Y-32867812D01*
X48234180Y-32831502D01*
X48344494Y-32772537D01*
X48441185Y-32693185D01*
X48520537Y-32596494D01*
X48579502Y-32486180D01*
X48595037Y-32434967D01*
X48669956Y-32641814D01*
X48959571Y-32782704D01*
X49271108Y-32864384D01*
X49592595Y-32883718D01*
X49911675Y-32839961D01*
X50216088Y-32734795D01*
X50390044Y-32641814D01*
X50485808Y-32377413D01*
X49530000Y-31421605D01*
X49515858Y-31435748D01*
X49336253Y-31256143D01*
X49350395Y-31242000D01*
X49709605Y-31242000D01*
X50665413Y-32197808D01*
X50727280Y-32175400D01*
X50800013Y-32284252D01*
X51027748Y-32511987D01*
X51295537Y-32690918D01*
X51593088Y-32814168D01*
X51908967Y-32877000D01*
X52231033Y-32877000D01*
X52546912Y-32814168D01*
X52844463Y-32690918D01*
X53112252Y-32511987D01*
X53339987Y-32284252D01*
X53518918Y-32016463D01*
X53642168Y-31718912D01*
X53705000Y-31403033D01*
X53705000Y-31080967D01*
X53642168Y-30765088D01*
X53518918Y-30467537D01*
X53339987Y-30199748D01*
X53112252Y-29972013D01*
X52844463Y-29793082D01*
X52546912Y-29669832D01*
X52231033Y-29607000D01*
X51908967Y-29607000D01*
X51593088Y-29669832D01*
X51295537Y-29793082D01*
X51027748Y-29972013D01*
X50800013Y-30199748D01*
X50727280Y-30308600D01*
X50665413Y-30286192D01*
X49709605Y-31242000D01*
X49350395Y-31242000D01*
X49336253Y-31227858D01*
X49515858Y-31048253D01*
X49530000Y-31062395D01*
X50485808Y-30106587D01*
X50390044Y-29842186D01*
X50100429Y-29701296D01*
X49788892Y-29619616D01*
X49467405Y-29600282D01*
X49148325Y-29644039D01*
X48843912Y-29749205D01*
X48669956Y-29842186D01*
X48595037Y-30049033D01*
X48579502Y-29997820D01*
X48520537Y-29887506D01*
X48441185Y-29790815D01*
X48344494Y-29711463D01*
X48234180Y-29652498D01*
X48114482Y-29616188D01*
X47990000Y-29603928D01*
X45990000Y-29603928D01*
X45865518Y-29616188D01*
X45745820Y-29652498D01*
X45635506Y-29711463D01*
X45538815Y-29790815D01*
X45459463Y-29887506D01*
X45400498Y-29997820D01*
X45364188Y-30117518D01*
X45351928Y-30242000D01*
X40971192Y-30242000D01*
X40929185Y-30190815D01*
X40832494Y-30111463D01*
X40722180Y-30052498D01*
X40602482Y-30016188D01*
X40478000Y-30003928D01*
X39278000Y-30003928D01*
X39153518Y-30016188D01*
X39033820Y-30052498D01*
X38923506Y-30111463D01*
X38826815Y-30190815D01*
X38747463Y-30287506D01*
X38688498Y-30397820D01*
X38652188Y-30517518D01*
X38639928Y-30642000D01*
X38639928Y-31842000D01*
X38652188Y-31966482D01*
X38688498Y-32086180D01*
X38747463Y-32196494D01*
X38826815Y-32293185D01*
X38923506Y-32372537D01*
X38969006Y-32396858D01*
X38911128Y-32454736D01*
X39028234Y-32571842D01*
X38804652Y-32619148D01*
X38703763Y-32840516D01*
X38648000Y-33077313D01*
X38639505Y-33320438D01*
X31147804Y-33320438D01*
X31148171Y-30356481D01*
X32180124Y-30356481D01*
X32492308Y-30805177D01*
X33088259Y-31125612D01*
X33735273Y-31323626D01*
X34408484Y-31391610D01*
X35082023Y-31326949D01*
X35730006Y-31132130D01*
X36327530Y-30814639D01*
X36341692Y-30805177D01*
X36653876Y-30356481D01*
X34417000Y-28119605D01*
X32180124Y-30356481D01*
X31148171Y-30356481D01*
X31148339Y-28998457D01*
X31224870Y-29253006D01*
X31542361Y-29850530D01*
X31551823Y-29864692D01*
X32000519Y-30176876D01*
X34237395Y-27940000D01*
X34596605Y-27940000D01*
X36833481Y-30176876D01*
X37282177Y-29864692D01*
X37602612Y-29268741D01*
X37800626Y-28621727D01*
X37857504Y-28058484D01*
X99164390Y-28058484D01*
X99229051Y-28732023D01*
X99423870Y-29380006D01*
X99741361Y-29977530D01*
X99750823Y-29991692D01*
X100199519Y-30303876D01*
X102436395Y-28067000D01*
X100199519Y-25830124D01*
X99750823Y-26142308D01*
X99430388Y-26738259D01*
X99232374Y-27385273D01*
X99164390Y-28058484D01*
X37857504Y-28058484D01*
X37868610Y-27948516D01*
X37803949Y-27274977D01*
X37609130Y-26626994D01*
X37291639Y-26029470D01*
X37282177Y-26015308D01*
X36833481Y-25703124D01*
X34596605Y-27940000D01*
X34237395Y-27940000D01*
X34223253Y-27925858D01*
X34402858Y-27746253D01*
X34417000Y-27760395D01*
X36653876Y-25523519D01*
X36341692Y-25074823D01*
X35811973Y-24790000D01*
X101585278Y-24790000D01*
X101302994Y-24874870D01*
G37*
G04 #@! TD.AperFunction*
M02*
